<?xml version="1.0" standalone="no"?>
<!DOCTYPE svg PUBLIC "-//W3C//DTD SVG 1.1//EN" "http://www.w3.org/Graphics/SVG/1.1/DTD/svg11.dtd" >
<svg xmlns="http://www.w3.org/2000/svg">
<metadata></metadata>
<defs>
<font id="bau-regularregular" horiz-adv-x="1024" >
<font-face units-per-em="2048" ascent="1638" descent="-410" />
<missing-glyph horiz-adv-x="573" />
<glyph horiz-adv-x="2048" />
<glyph horiz-adv-x="2048" />
<glyph unicode="&#xd;" horiz-adv-x="2048" />
<glyph unicode=" "  horiz-adv-x="573" />
<glyph unicode="&#x09;" horiz-adv-x="573" />
<glyph unicode="&#xa0;" horiz-adv-x="573" />
<glyph unicode="!" horiz-adv-x="618" d="M195 0v262h229v-262h-229zM207 1317v225h205v-225l-54 -811h-98z" />
<glyph unicode="&#x22;" horiz-adv-x="835" d="M139 1542h195l-29 -602h-137zM502 1542h194l-28 -602h-138z" />
<glyph unicode="#" horiz-adv-x="1032" d="M82 610v148h203v241h-203v148h203v287h135v-287h192v287h136v-287h202v-148h-202v-241h202v-148h-202v-291h-136v291h-192v-291h-135v291h-203zM420 758h192v241h-192v-241z" />
<glyph unicode="$" horiz-adv-x="1249" d="M92 391l164 31q16 -63 33 -103.5t49 -83.5t85.5 -68.5t129.5 -35.5v547q-88 20 -150.5 41t-119 53t-91 73t-54 99.5t-19.5 134.5q0 161 116 259.5t318 107.5v184h137v-186q179 -13 274 -92t148 -240l-151 -37q-42 122 -100.5 173.5t-170.5 60.5v-494q95 -19 161.5 -39.5 t127 -52.5t96.5 -74t57 -103t21 -140q0 -192 -123.5 -300.5t-339.5 -117.5v-279h-137v281q-107 11 -188.5 45t-134.5 89.5t-85.5 119.5t-52.5 147zM276 1087q0 -108 56 -157t221 -86v467q-277 -16 -277 -224zM690 127q138 8 218.5 76.5t80.5 197.5q0 115 -64 164t-235 86 v-524z" />
<glyph unicode="%" horiz-adv-x="2007" d="M74 1006q0 200 98.5 323t282.5 123q186 0 284.5 -122t98.5 -320q0 -202 -99.5 -324.5t-283.5 -122.5q-183 0 -282 121.5t-99 321.5zM233 1008q0 -156 52 -235t170 -79q119 0 170 80t51 236q0 149 -51 229t-170 80q-118 0 -170 -78.5t-52 -232.5zM578 0l704 1434h152 l-705 -1434h-151zM1169 422q0 200 98.5 323t282.5 123q186 0 284.5 -122t98.5 -320q0 -202 -99.5 -324t-283.5 -122q-183 0 -282 121.5t-99 320.5zM1329 424q0 -156 51.5 -234.5t169.5 -78.5q120 0 171 80t51 235q0 148 -51.5 228.5t-170.5 80.5q-117 0 -169 -78.5 t-52 -232.5z" />
<glyph unicode="&#x26;" horiz-adv-x="1515" d="M94 418q0 75 18.5 141.5t47.5 115t74 93.5t87.5 75.5t98.5 63.5q-90 182 -90 338q0 140 82 222.5t217 82.5q121 0 198.5 -78.5t77.5 -205.5q0 -67 -23 -123.5t-69 -102.5t-89.5 -77t-109.5 -70q136 -234 322 -444q87 196 133 505l150 -4q-63 -404 -172 -620 q87 -95 135 -132.5t92 -37.5q51 0 68.5 48.5t19.5 166.5l113 -15q3 -73 -4 -134t-28.5 -116.5t-66 -87.5t-108.5 -32q-68 0 -138 44t-174 152q-162 -200 -411 -200q-204 0 -327.5 116.5t-123.5 315.5zM266 424q0 -134 79 -209.5t206 -75.5q180 0 301 160q-249 280 -379 510 q-64 -44 -106.5 -91t-71.5 -122.5t-29 -171.5zM485 1243q0 -109 74 -254q104 63 158.5 126t54.5 153q0 74 -37.5 116.5t-105.5 42.5q-67 0 -105.5 -51t-38.5 -133z" />
<glyph unicode="'" horiz-adv-x="473" d="M139 1542h195l-29 -602h-137z" />
<glyph unicode="(" horiz-adv-x="874" d="M168 643q0 329 132.5 591t350.5 439l97 -100q-69 -64 -123 -126.5t-107 -148t-88 -179t-56.5 -216t-21.5 -260.5q0 -136 23 -257.5t57.5 -211t90 -176.5t106 -146t119.5 -128l-97 -101q-105 93 -187 192.5t-151.5 224.5t-107 278.5t-37.5 324.5z" />
<glyph unicode=")" horiz-adv-x="874" d="M127 -276q69 69 119.5 128t105.5 146t89.5 176.5t57.5 211t23 257.5q0 138 -21.5 260.5t-56.5 216t-87.5 179t-106.5 148t-123 126.5l96 100q141 -115 246 -260.5t171.5 -346t66.5 -423.5q0 -138 -25.5 -265.5t-69 -231t-106.5 -201t-131.5 -173.5t-151.5 -149z" />
<glyph unicode="*" horiz-adv-x="843" d="M90 1217l45 139l240 -119l-29 305h150l-31 -305l244 119l45 -139l-262 -66l194 -233l-117 -84l-151 262l-148 -262l-116 84l196 233z" />
<glyph unicode="+" horiz-adv-x="950" d="M123 606v148h280v309h144v-309h280v-148h-280v-309h-144v309h-280z" />
<glyph unicode="," horiz-adv-x="577" d="M174 0v283h229v-267q0 -270 -225 -297l-2 111q108 22 111 170h-113z" />
<glyph unicode="-" horiz-adv-x="686" d="M123 457v159h438v-159h-438z" />
<glyph unicode="." horiz-adv-x="577" d="M174 0v283h229v-283h-229z" />
<glyph unicode="/" horiz-adv-x="825" d="M16 -322l602 1987h156l-600 -1987h-158z" />
<glyph unicode="0" horiz-adv-x="1208" d="M92 573q0 269 140.5 428.5t371.5 159.5q234 0 372.5 -157t139.5 -426q1 -276 -136 -437t-372 -161q-238 0 -377 159.5t-139 433.5zM260 575q0 -228 91 -338t257 -110q163 0 251.5 113.5t88.5 339.5q0 214 -90.5 326t-253.5 112t-253.5 -109.5t-90.5 -333.5z" />
<glyph unicode="1" horiz-adv-x="620" d="M92 735v125q113 23 183 88t102 193h80v-1141h-164v805q-76 -60 -201 -70z" />
<glyph unicode="2" horiz-adv-x="1097" d="M90 0q-5 87 19.5 162.5t64 129.5t102.5 103t119.5 80t130.5 64q149 67 179 84q88 50 112 118q12 35 12 78q0 105 -59.5 153t-189.5 48q-261 0 -312 -244l-151 35q25 162 147 256t316 94q190 0 301.5 -86t111.5 -252q0 -67 -19.5 -121t-49 -91t-81.5 -72t-100 -59 t-121 -58q-7 -3 -10 -4q-62 -29 -105 -50.5t-89 -50.5t-74 -55t-47 -58.5t-21 -66.5h717v-137h-903z" />
<glyph unicode="3" horiz-adv-x="1095" d="M66 82l159 35q19 -101 55.5 -159.5t104.5 -88t178 -29.5q285 0 285 258q0 152 -71.5 218.5t-223.5 66.5h-137v139h129q136 0 193 59.5t57 194.5q0 127 -62 184.5t-184 57.5q-66 0 -113.5 -15t-79 -46t-50.5 -68.5t-34 -91.5l-147 39q13 64 44 120.5t81.5 103.5t128 74 t172.5 27q192 0 298.5 -95t106.5 -286q0 -133 -49 -206.5t-155 -112.5q133 -36 198.5 -135.5t65.5 -227.5q0 -192 -117 -297.5t-340 -105.5q-207 0 -336.5 99.5t-156.5 287.5z" />
<glyph unicode="4" horiz-adv-x="1169" d="M55 0v160q187 204 366.5 460t317.5 521h176v-998h213v-143h-213v-285h-163v285h-697zM209 143h543v768q-93 -185 -237.5 -387.5t-305.5 -380.5z" />
<glyph unicode="5" horiz-adv-x="1116" d="M66 94l161 31q23 -143 97.5 -213t232.5 -70q311 0 311 348q0 174 -75 259.5t-230 85.5q-95 0 -153.5 -34t-96.5 -95h-137l55 735h717v-146h-594l-30 -420q40 47 107 75t153 28q215 0 333.5 -130.5t118.5 -357.5q0 -228 -126.5 -361.5t-350.5 -133.5q-219 0 -344.5 110.5 t-148.5 288.5z" />
<glyph unicode="6" horiz-adv-x="1171" d="M100 608q0 391 148 617.5t407 226.5q145 0 241 -79t130 -220l-158 -47q-23 96 -76 148.5t-149 52.5q-159 0 -253 -148t-122 -430q59 92 153.5 143.5t211.5 51.5q205 0 325.5 -128t120.5 -341q0 -227 -129 -351t-350 -124q-149 0 -257.5 64.5t-166.5 174.5 q-43 82 -59.5 172.5t-16.5 216.5zM279 465q0 -157 89.5 -247.5t231.5 -90.5q152 0 232.5 82.5t80.5 243.5q0 162 -82.5 245.5t-230.5 83.5q-145 0 -233 -80.5t-88 -236.5z" />
<glyph unicode="7" horiz-adv-x="1085" d="M72 999v142h942v-154q-119 -113 -208 -241t-142 -248.5t-87 -260.5t-47 -259t-18 -263h-188q17 394 149 723t365 561h-766z" />
<glyph unicode="8" horiz-adv-x="1161" d="M88 397q0 153 74.5 248.5t191.5 128.5q-98 45 -149 121t-51 201q0 158 121 257t307 99q182 0 302 -97t120 -259q0 -124 -51 -197t-150 -119q123 -32 196.5 -132.5t73.5 -250.5q0 -193 -127.5 -305t-365.5 -112q-228 0 -360 115t-132 302zM256 406q0 -98 44.5 -163.5 t115 -93.5t164.5 -28q69 0 125 15.5t101 47.5t70 88.5t25 133.5q0 294 -319 294q-326 0 -326 -294zM315 1087q0 -121 68.5 -183t196.5 -62q127 0 195.5 62t68.5 183q0 110 -70.5 168t-191.5 58q-123 0 -195 -58t-72 -168z" />
<glyph unicode="9" horiz-adv-x="1175" d="M92 666q0 228 132 361.5t360 133.5q154 0 276 -82q215 -142 215 -577q0 -399 -134.5 -603t-391.5 -204q-172 0 -281.5 87t-144.5 238l151 33q22 -75 52.5 -119t86.5 -69t142 -25q330 0 350 555q-122 -198 -366 -198q-209 0 -328 130t-119 339zM260 666 q0 -169 74.5 -247.5t226.5 -78.5q148 0 240 83.5t92 244.5q0 163 -81.5 256.5t-227.5 93.5q-154 0 -239 -88.5t-85 -263.5z" />
<glyph unicode=":" horiz-adv-x="598" d="M184 0v262h230v-262h-230zM184 594v262h230v-262h-230z" />
<glyph unicode=";" horiz-adv-x="598" d="M184 0v262h230v-246q0 -270 -226 -297l-2 111q108 22 111 170h-113zM184 594v262h230v-262h-230z" />
<glyph unicode="&#x3c;" horiz-adv-x="929" d="M102 473v127l705 338v-158l-535 -241l535 -250v-154z" />
<glyph unicode="=" horiz-adv-x="950" d="M123 279v147h704v-147h-704zM123 647v148h704v-148h-704z" />
<glyph unicode="&#x3e;" horiz-adv-x="929" d="M123 135v158l534 242l-534 249v154l704 -338v-127z" />
<glyph unicode="?" horiz-adv-x="1140" d="M76 1163q55 418 499 418q127 0 221 -30.5t148 -83.5t79.5 -117t25.5 -140q0 -44 -8 -82t-18 -66t-33 -57t-38.5 -45.5t-51 -41.5t-53.5 -36t-62 -37q-22 -13 -33 -20q-95 -58 -130.5 -109t-35.5 -143v-67h-164v90q0 56 14 104t33.5 80.5t55 65t63.5 51.5t74 47 q59 36 89 57t60.5 52.5t42.5 67t12 83.5q0 110 -67 164.5t-221 54.5q-159 0 -232.5 -65t-103.5 -225zM391 0v262h230v-262h-230z" />
<glyph unicode="@" horiz-adv-x="1845" d="M98 481q0 186 68 347.5t184.5 272.5t274 174.5t333.5 63.5q170 0 318 -56.5t251 -154t161.5 -232t58.5 -286.5q0 -146 -31.5 -255t-87.5 -171.5t-124 -92.5t-148 -30q-87 0 -146 45t-82 134q-119 -215 -348 -215q-145 0 -223 98t-78 264q0 171 57 308t160 215.5t234 78.5 q90 0 152.5 -40t88.5 -105l25 121h152l-91 -531q-42 -244 113 -244q48 0 89.5 22.5t76 68.5t54.5 127t20 188q0 276 -177.5 444t-474.5 168q-206 0 -368 -88t-254 -253.5t-92 -381.5q0 -143 38.5 -264t112.5 -213t193 -144.5t270 -53.5q151 0 243.5 31t205.5 102l77 -111 q-121 -86 -237.5 -123t-288.5 -37q-177 0 -322.5 64.5t-240 175.5t-146 257t-51.5 312zM637 387q0 -227 170 -227q246 0 311 342q31 170 -19.5 259t-164.5 89q-72 0 -130 -40t-93.5 -106.5t-54.5 -148t-19 -168.5z" />
<glyph unicode="A" horiz-adv-x="1296" d="M31 0l549 1544h143l543 -1544h-185l-159 465h-557l-160 -465h-174zM416 614h454l-227 666z" />
<glyph unicode="B" horiz-adv-x="1439" d="M170 0v1542h614q502 0 502 -412q0 -220 -209 -317q295 -81 295 -377q0 -111 -40.5 -195.5t-112.5 -136.5t-166.5 -78t-208.5 -26h-674zM348 147h522q158 0 242 75t84 216q0 140 -87 212.5t-257 72.5h-504v-576zM348 868h492q270 0 270 275q0 131 -77 191.5t-234 60.5 h-451v-527z" />
<glyph unicode="C" horiz-adv-x="1521" d="M119 770q0 227 87 408t246 284t363 103q234 0 386.5 -107.5t230.5 -337.5l-158 -55q-53 175 -164.5 263.5t-290.5 88.5q-235 0 -376.5 -177t-141.5 -468q0 -295 141 -467t383 -172q361 0 465 365l160 -60q-154 -456 -629 -456q-212 0 -372.5 101.5t-245 280t-84.5 406.5z " />
<glyph unicode="D" horiz-adv-x="1517" d="M170 0v1542h498q150 0 271.5 -39t206.5 -108t142.5 -166t84 -210.5t26.5 -244.5q0 -132 -24.5 -244.5t-79.5 -211.5t-139 -168.5t-209 -109.5t-283 -40h-494zM348 150h334q137 0 240.5 44.5t167.5 127.5t95.5 196.5t31.5 257.5q0 137 -31 247.5t-94 195t-168 130.5 t-244 46h-332v-1245z" />
<glyph unicode="E" horiz-adv-x="1259" d="M170 0v1542h985v-149h-807v-543h670v-145h-670v-555h846v-150h-1024z" />
<glyph unicode="F" horiz-adv-x="1273" d="M170 0v1542h1026v-149h-848v-580h660v-145h-660v-668h-178z" />
<glyph unicode="G" horiz-adv-x="1603" d="M119 770q0 225 85 405.5t244 285t365 104.5q229 0 380.5 -102t236.5 -322l-160 -62q-59 174 -166.5 256t-286.5 82q-241 0 -378.5 -178t-137.5 -467q0 -192 59 -335.5t177 -224.5t282 -81q136 0 247 65.5t175 186t64 272.5v23h-418v149h592v-827h-115l-35 287 q-169 -305 -514 -305q-160 0 -292 59.5t-220 165t-136 250t-48 313.5z" />
<glyph unicode="H" horiz-adv-x="1472" d="M170 0v1542h178v-700h776v700h179v-1542h-179v688h-776v-688h-178z" />
<glyph unicode="I" horiz-adv-x="555" d="M188 0v1542h179v-1542h-179z" />
<glyph unicode="J" horiz-adv-x="1042" d="M94 385v135h170v-112q0 -149 49 -215t172 -66q56 0 97 19.5t64 49.5t37 77.5t18 92.5t4 105v1071h178v-1057q0 -88 -8.5 -156.5t-34 -135t-68 -110t-113.5 -70.5t-167 -27q-86 0 -156.5 23t-125.5 69.5t-85.5 124.5t-30.5 182z" />
<glyph unicode="K" horiz-adv-x="1308" d="M170 0v1542h178v-780l684 782h207l-567 -641l596 -903h-207l-506 770l-207 -231v-539h-178z" />
<glyph unicode="L" horiz-adv-x="1202" d="M170 0v1542h178v-1392h789v-150h-967z" />
<glyph unicode="M" horiz-adv-x="1773" d="M170 0v1542h256l467 -1323l457 1323h254v-1542h-179v1294l-452 -1294h-166l-469 1294v-1294h-168z" />
<glyph unicode="N" horiz-adv-x="1536" d="M170 0v1542h211l817 -1313v1313h168v-1542h-227l-801 1286v-1286h-168z" />
<glyph unicode="O" horiz-adv-x="1662" d="M119 770q0 226 89 407t253 284.5t373 103.5q157 0 291 -62t225 -168.5t142.5 -251.5t51.5 -309q0 -224 -86 -403.5t-248 -284t-372 -104.5q-204 0 -369 103t-257.5 283t-92.5 402zM301 772q0 -290 149.5 -464.5t387.5 -174.5q249 0 386.5 173t137.5 470q0 179 -63.5 324 t-185 231t-279.5 86q-242 0 -387.5 -179t-145.5 -466z" />
<glyph unicode="P" horiz-adv-x="1400" d="M170 0v1542h647q230 0 364 -110t134 -322q0 -203 -135.5 -309.5t-362.5 -106.5h-469v-694h-178zM348 838h483q152 0 229 73t77 209q0 275 -306 275h-483v-557z" />
<glyph unicode="Q" horiz-adv-x="1662" d="M119 770q0 226 89 407t253 284.5t373 103.5q157 0 291 -62t225 -168.5t142.5 -251.5t51.5 -309q0 -170 -51 -316.5t-147 -254.5l210 -197l-108 -119l-225 209q-163 -114 -385 -114q-204 0 -369 103t-257.5 283t-92.5 402zM301 772q0 -290 149.5 -464.5t387.5 -174.5 q155 0 270 70l-213 198l109 119l225 -209q133 168 133 465q0 179 -63.5 324t-185 231t-279.5 86q-242 0 -387.5 -179t-145.5 -466z" />
<glyph unicode="R" horiz-adv-x="1398" d="M170 0v1542h631q141 0 247.5 -44t170 -138t63.5 -227q0 -163 -92.5 -255t-249.5 -122q102 -31 162 -104.5t88 -221.5q35 -173 78 -293q32 -94 59 -127v-10h-182q-75 117 -123 401q-17 96 -44 158t-70 95t-94 45t-126 12h-340v-711h-178zM348 852h418q170 0 255 68.5 t85 212.5q0 262 -291 262h-467v-543z" />
<glyph unicode="S" horiz-adv-x="1357" d="M96 420l170 35q13 -49 26 -84.5t34.5 -75.5t52.5 -67t74 -50t103.5 -34t137.5 -11q168 0 269.5 75t101.5 224q0 48 -8.5 83.5t-30.5 63.5t-50 47.5t-77.5 36.5t-101.5 29.5t-133 28.5q-77 15 -135 29.5t-116 35t-98.5 43.5t-77 55.5t-58 72t-34 90.5t-12.5 114 q0 184 134 292t366 108q160 0 266.5 -42t167 -118.5t102.5 -202.5l-157 -41q-51 146 -133 203t-236 57q-344 0 -344 -248q0 -54 11.5 -90.5t35 -64.5t72.5 -49t111.5 -38t164.5 -36q112 -21 189.5 -43.5t149 -58t113.5 -82t66.5 -114.5t24.5 -157q0 -216 -145.5 -334 t-397.5 -118q-115 0 -207.5 22.5t-156 60.5t-111.5 94.5t-76 119t-47 139.5z" />
<glyph unicode="T" horiz-adv-x="1263" d="M53 1393v149h1157v-149h-489v-1393h-178v1393h-490z" />
<glyph unicode="U" horiz-adv-x="1445" d="M164 559v983h178v-962q0 -240 90.5 -343.5t286.5 -103.5q97 0 166 21.5t122.5 74t80 146.5t26.5 233v934h168v-960q0 -288 -142 -444t-427 -156q-265 0 -407 148t-142 429z" />
<glyph unicode="V" horiz-adv-x="1316" d="M31 1542h184l436 -1284l441 1284h174l-549 -1542h-144z" />
<glyph unicode="W" horiz-adv-x="1970" d="M27 1542h186l356 -1229l353 1229h141l354 -1233l357 1233h170l-453 -1542h-145l-357 1237l-354 -1237h-146z" />
<glyph unicode="X" horiz-adv-x="1284" d="M20 0l523 793l-490 749h205l397 -612l398 612h186l-491 -749l516 -793h-205l-428 655l-424 -655h-187z" />
<glyph unicode="Y" horiz-adv-x="1277" d="M20 1542h205l432 -717l418 717h182l-516 -872v-670h-178v672z" />
<glyph unicode="Z" horiz-adv-x="1269" d="M88 0v166l907 1227h-862v149h1041v-184l-887 -1202h876v-156h-1075z" />
<glyph unicode="[" horiz-adv-x="829" d="M184 -352v1997h510v-150h-338v-1698h338v-149h-510z" />
<glyph unicode="\" horiz-adv-x="825" d="M51 1665h156l602 -1987h-158z" />
<glyph unicode="]" horiz-adv-x="829" d="M135 -203h338v1698h-338v150h510v-1997h-510v149z" />
<glyph unicode="^" horiz-adv-x="684" d="M123 641v160h438v-160h-438z" />
<glyph unicode="_" horiz-adv-x="684" d="M-2 -129h688v-139h-688v139z" />
<glyph unicode="`" d="M233 1489h216l139 -299h-109z" />
<glyph unicode="a" horiz-adv-x="1058" d="M80 254q0 69 24 123t70 91t102.5 62.5t133.5 40.5t149 22t162 11v90q0 207 -199 207q-100 0 -159.5 -41.5t-106.5 -138.5l-135 72q111 251 409 251q52 0 100.5 -11t95.5 -38t82 -67t56 -103.5t21 -142.5v-465q0 -53 14 -74.5t53 -21.5q43 0 86 24h4l-16 -135 q-56 -28 -108 -28q-154 0 -189 153q-126 -158 -323 -158q-145 0 -235.5 69.5t-90.5 207.5zM244 258q0 -147 188 -147q122 0 205.5 63t83.5 162v149q-70 -3 -124.5 -8t-112 -15t-98.5 -26.5t-74.5 -40t-50.5 -58.5t-17 -79z" />
<glyph unicode="b" horiz-adv-x="1148" d="M164 0v1550h164v-676q102 170 317 170q189 0 299.5 -140.5t110.5 -387.5q0 -246 -105.5 -390t-310.5 -144q-122 0 -195 47.5t-120 130.5l4 -160h-164zM324 522q0 -405 299 -405q264 0 264 407q0 200 -67.5 287.5t-198.5 87.5q-137 0 -217 -89.5t-80 -287.5z" />
<glyph unicode="c" horiz-adv-x="1052" d="M90 508v6q0 154 52 272q53 120 157.5 189t247.5 69q167 0 264 -79.5t145 -235.5l-149 -33q-17 54 -36.5 89.5t-49.5 63t-72.5 40t-101.5 12.5q-145 0 -217 -102t-72 -281q0 -85 16.5 -155t50.5 -126t93 -87t139 -31q122 0 185.5 67t95.5 199l149 -31q-96 -374 -432 -374 q-212 0 -337.5 150t-127.5 378z" />
<glyph unicode="d" horiz-adv-x="1157" d="M94 504q0 161 46 281t142 189.5t232 69.5q122 0 196 -44t119 -126v676h164v-1550h-164l5 158q-111 -183 -326 -183q-189 0 -301.5 141.5t-112.5 387.5zM262 504q0 -203 69 -295t201 -92q137 0 219.5 94.5t82.5 294.5q0 393 -304 393q-142 0 -205 -102t-63 -293z" />
<glyph unicode="e" horiz-adv-x="1081" d="M90 508q0 155 52 275t156 190.5t245 70.5q204 0 325.5 -137.5t130.5 -421.5h-745q6 -171 80 -268.5t225 -97.5q118 0 187 63t102 187l143 -29q-95 -360 -434 -360q-143 0 -250 71t-162 190t-55 267zM258 610h571q-18 156 -87 224.5t-199 68.5q-248 0 -285 -293z" />
<glyph unicode="f" horiz-adv-x="624" d="M45 887v133h164v266q0 154 92 225q63 48 158 48q81 0 147 -41l-24 -148h-7q-37 37 -104 37q-98 0 -98 -111v-276h207v-133h-207v-887h-164v887h-164z" />
<glyph unicode="g" horiz-adv-x="1116" d="M72 -162q0 66 38 118t93 81q-127 47 -127 178q0 65 45.5 114t114.5 72q-123 99 -123 275q0 169 110 268.5t303 99.5q116 0 209 -38t150 -107q29 71 69 106t101 35q71 0 114 -49l-71 -131h-4q-24 33 -66 33q-32 0 -53 -30t-21 -72q0 -14 5.5 -49t5.5 -70 q0 -180 -115 -272.5t-313 -92.5q-109 0 -199 35q-107 -26 -107 -98q0 -31 19 -49t68.5 -25t87 -8.5t119.5 -1.5h32q137 0 214 -8t140 -31q168 -61 168 -256q0 -320 -501 -320q-506 0 -506 293zM223 -150q0 -91 81.5 -131.5t275.5 -40.5q189 0 266.5 45t77.5 142 q0 44 -16 68.5t-60 41.5q-34 12 -77.5 17.5t-79 6.5t-116.5 1h-28q-151 0 -219 8q-105 -53 -105 -158zM276 674q0 -236 263 -236q129 0 195.5 55.5t66.5 180.5q0 239 -271 239q-127 0 -190.5 -58.5t-63.5 -180.5z" />
<glyph unicode="h" horiz-adv-x="1071" d="M164 0v1550h164v-673q91 167 288 167q134 0 221 -88.5t87 -263.5v-692h-164v702q0 193 -174 193q-258 0 -258 -295v-600h-164z" />
<glyph unicode="i" horiz-adv-x="505" d="M166 1348v194h174v-194h-174zM170 0v1020h166v-1020h-166z" />
<glyph unicode="j" horiz-adv-x="505" d="M-6 -399l12 141q27 -31 78 -31q86 0 86 135v1174h166v-1200q0 -112 -51 -180q-54 -70 -170 -70q-61 0 -121 31zM166 1348v194h174v-194h-174z" />
<glyph unicode="k" horiz-adv-x="962" d="M164 0v1550h164v-970l364 440h182l-335 -402l387 -618h-187l-305 492l-106 -125v-367h-164z" />
<glyph unicode="l" horiz-adv-x="505" d="M170 0v1550h166v-1550h-166z" />
<glyph unicode="m" horiz-adv-x="1667" d="M164 0v1020h164l-4 -150q95 174 292 174q100 0 174.5 -45t106.5 -141q42 80 123 133t192 53q65 0 119.5 -20.5t97.5 -61.5t67 -110t24 -160v-692h-164v702q0 193 -172 193q-120 0 -190 -69.5t-70 -225.5v-600h-164v702q0 193 -172 193q-120 0 -190 -69.5t-70 -225.5v-600 h-164z" />
<glyph unicode="n" horiz-adv-x="1083" d="M164 0v1020h164l-4 -150q41 75 118 124.5t183 49.5q136 0 223.5 -88t87.5 -264v-692h-164v702q0 193 -178 193q-121 0 -193.5 -69.5t-72.5 -225.5v-600h-164z" />
<glyph unicode="o" horiz-adv-x="1124" d="M90 508v7q0 108 30 202q32 97 91 170t149.5 115t202.5 42t202.5 -41.5t149 -114t89.5 -169.5q30 -94 30 -202v-7q-1 -151 -53.5 -269t-161 -189.5t-258.5 -71.5q-146 0 -254 72t-162 190t-55 266zM258 518q0 -178 75.5 -288.5t229.5 -110.5q79 0 138.5 29.5t95 82.5 t52.5 122.5t17 154.5q0 84 -17.5 153.5t-53 124t-95 85t-137.5 30.5q-154 0 -229.5 -105t-75.5 -278z" />
<glyph unicode="p" horiz-adv-x="1148" d="M164 -403v1423h164l-4 -154q34 56 74 93t103 61t144 24q189 0 299.5 -140.5t110.5 -387.5q0 -246 -105.5 -390t-310.5 -144q-84 0 -146.5 24t-97.5 58.5t-67 87.5v-555h-164zM324 522q0 -405 299 -405q264 0 264 407q0 200 -67.5 287.5t-198.5 87.5q-137 0 -217 -89.5 t-80 -287.5z" />
<glyph unicode="q" horiz-adv-x="1157" d="M94 504q0 161 46 281t142 189.5t232 69.5q124 0 198.5 -45.5t121.5 -130.5l-5 152h164v-1423h-164v555q-52 -84 -127.5 -130.5t-193.5 -46.5q-189 0 -301.5 141.5t-112.5 387.5zM262 504q0 -203 69 -295t201 -92q137 0 219.5 94.5t82.5 294.5q0 393 -304 393 q-142 0 -205 -102t-63 -293z" />
<glyph unicode="r" horiz-adv-x="761" d="M164 0v1020h164l-4 -160q79 184 239 184q110 0 170 -57l-67 -141h-4q-45 57 -125 57q-90 0 -149.5 -85.5t-59.5 -258.5v-559h-164z" />
<glyph unicode="s" horiz-adv-x="952" d="M78 293l151 31q12 -50 28 -83.5t45 -62.5t76 -43t114 -14q99 0 161 43.5t62 126.5q0 33 -10 56t-26.5 38.5t-47.5 28.5t-64 21.5t-85 21.5q-10 2 -16 3.5l-16 4l-18 4.5q-78 19 -131 40.5t-99.5 54.5t-69.5 81t-23 113q0 93 48.5 159t124 96.5t169.5 30.5 q157 0 242.5 -51.5t133.5 -167.5l-137 -63q-29 78 -82 110.5t-151 32.5q-99 0 -146 -37t-47 -100q0 -68 45 -93.5t184 -58.5q15 -4 23 -6q49 -12 81 -21t73 -24t67 -30.5t54 -39t43.5 -52t25.5 -67t10 -85.5q0 -135 -102.5 -223t-263.5 -88q-375 0 -426 313z" />
<glyph unicode="t" horiz-adv-x="628" d="M45 887v133h164v285q39 33 85 84t71 88h6v-457h184v-133h-184v-664q0 -59 21 -79.5t69 -20.5q54 0 100 33h4l-24 -144q-66 -32 -144 -32q-96 0 -139 49q-49 49 -49 186v672h-164z" />
<glyph unicode="u" horiz-adv-x="1083" d="M147 328v692h164v-703q0 -198 178 -198q119 0 193 73.5t74 227.5v600h164v-1020h-164l4 150q-41 -75 -118 -125t-183 -50q-136 0 -224 88.5t-88 264.5z" />
<glyph unicode="v" horiz-adv-x="970" d="M43 1020h176l277 -844l270 844h162l-350 -1020h-177z" />
<glyph unicode="w" horiz-adv-x="1527" d="M43 1020h176l234 -778l258 778h129l241 -778l240 778h164l-332 -1020h-143l-240 766l-254 -766h-145z" />
<glyph unicode="x" horiz-adv-x="931" d="M25 0l344 526l-320 494h189l231 -363l227 363h174l-313 -481l350 -539h-190l-260 408l-258 -408h-174z" />
<glyph unicode="y" horiz-adv-x="983" d="M43 1020h176l287 -797l272 797h162l-442 -1241q-35 -102 -82 -154q-63 -69 -170 -69q-85 0 -140 38l15 140h4q43 -43 111 -43q92 0 141 155l47 152z" />
<glyph unicode="z" horiz-adv-x="956" d="M68 0v137l637 746h-578v137h747v-168l-608 -711h621v-141h-819z" />
<glyph unicode="{" horiz-adv-x="897" d="M98 586v139q62 -3 108 10t73.5 36t44.5 57t22.5 68t5.5 75q0 51 -13 144.5t-13 137.5q0 182 105 275t323 117l16 -146q-81 -15 -129 -32t-81 -46.5t-45.5 -71.5t-12.5 -108q0 -54 10 -147.5t10 -149.5q0 -106 -54 -182.5t-157 -106.5q103 -30 157 -106.5t54 -181.5 q0 -56 -10 -160t-10 -158q0 -66 12.5 -108t45.5 -71.5t81 -46.5t129 -32l-16 -145q-218 24 -323 117t-105 274q0 44 13 148t13 155q0 41 -5.5 75t-22.5 68t-44.5 57t-73.5 36t-108 10z" />
<glyph unicode="|" horiz-adv-x="532" d="M190 -322v1987h152v-1987h-152z" />
<glyph unicode="}" horiz-adv-x="897" d="M127 -209q81 15 129 32t81 46.5t45.5 71.5t12.5 108q0 54 -10 158t-10 160q0 105 54 181.5t157 106.5q-103 30 -157 106.5t-54 182.5q0 56 10 149.5t10 147.5q0 66 -12.5 108t-45.5 71.5t-81 46.5t-129 32l16 146q218 -24 323 -117t105 -275q0 -44 -13 -137.5t-13 -144.5 q0 -41 5.5 -75t22.5 -68t44.5 -57t73.5 -36t108 -10v-139q-62 3 -108 -10t-73.5 -36t-44.5 -57t-22.5 -68t-5.5 -75q0 -51 13 -155t13 -148q0 -181 -105 -274t-323 -117z" />
<glyph unicode="~" horiz-adv-x="942" d="M102 485q19 131 78 198t152 67q49 0 93.5 -23t72.5 -50t64.5 -50t70.5 -23q73 0 84 131l123 -16q-12 -113 -71 -184.5t-151 -71.5q-50 0 -97 22.5t-77 49t-65 49t-62 22.5q-79 0 -92 -141z" />
<glyph horiz-adv-x="1347" d="M35 506v131h151q-2 25 -2 80q0 49 2 74h-151v131h168q46 248 196 391t371 143q193 0 317.5 -96.5t190.5 -312.5l-143 -46q-29 84 -57.5 138t-70 96t-98.5 61t-135 19q-168 0 -270.5 -101t-136.5 -292h518v-131h-533q-2 -23 -2 -72q0 -55 2 -82h533v-131h-518 q69 -379 403 -379q151 0 237.5 77t139.5 245l143 -54q-65 -205 -194 -308t-330 -103q-227 0 -373.5 137.5t-189.5 384.5h-168z" />
<glyph horiz-adv-x="468" d="M127 0v274h215v-258q0 -126 -57 -192.5t-154 -77.5l-4 98q103 16 106 156h-106z" />
<glyph horiz-adv-x="784" d="M-70 -377l31 144h6q47 -37 96 -37q95 0 109 114l109 897h-205v136h221l49 409q18 148 80 210.5t178 62.5q54 0 100 -15t68 -39l-33 -143h-6q-43 47 -119 47q-48 0 -74.5 -25t-33.5 -88l-51 -419h254v-136h-271l-106 -884q-19 -148 -78 -211.5t-176 -63.5q-87 0 -148 41z " />
<glyph horiz-adv-x="821" d="M127 0v274h215v-258q0 -126 -57 -192.5t-154 -77.5l-4 98q103 16 106 156h-106zM479 0v274h215v-258q0 -126 -57 -192.5t-154 -77.5l-4 98q104 16 107 156h-107z" />
<glyph unicode="&#x85;" horiz-adv-x="1509" d="M174 0v303h219v-303h-219zM645 0v303h219v-303h-219zM1116 0v303h219v-303h-219z" />
<glyph horiz-adv-x="976" d="M84 969v139h326v434h157v-434h326v-139h-326v-969h-157v969h-326z" />
<glyph horiz-adv-x="976" d="M84 434v139h326v396h-326v139h326v434h157v-434h326v-139h-326v-396h326v-139h-326v-434h-157v434h-326z" />
<glyph d="M248 1190l192 299h144l192 -299h-104l-162 178l-162 -178h-100z" />
<glyph horiz-adv-x="2897" d="M74 1006q0 200 98.5 323t282.5 123q186 0 284.5 -122t98.5 -320q0 -202 -99.5 -324.5t-283.5 -122.5q-183 0 -282 121.5t-99 321.5zM233 1008q0 -156 52 -235t170 -79q119 0 170 80t51 236q0 149 -51 229t-170 80q-118 0 -170 -78.5t-52 -232.5zM578 0l704 1434h152 l-705 -1434h-151zM1169 422q0 200 98.5 323t282.5 123q186 0 284.5 -122t98.5 -320q0 -202 -99.5 -324t-283.5 -122q-183 0 -282 121.5t-99 320.5zM1329 424q0 -156 51.5 -234.5t169.5 -78.5q120 0 171 80t51 235q0 148 -51.5 228.5t-170.5 80.5q-117 0 -169 -78.5 t-52 -232.5zM2060 422q0 200 98.5 323t282.5 123q186 0 284.5 -122t98.5 -320q0 -202 -99.5 -324t-283.5 -122q-183 0 -282 121.5t-99 320.5zM2220 424q0 -156 51.5 -234.5t169.5 -78.5q119 0 170 79.5t51 235.5q0 149 -51 229t-170 80q-117 0 -169 -78.5t-52 -232.5z" />
<glyph horiz-adv-x="1357" d="M96 420l170 35q13 -49 26 -84.5t34.5 -75.5t52.5 -67t74 -50t103.5 -34t137.5 -11q168 0 269.5 75t101.5 224q0 48 -8.5 83.5t-30.5 63.5t-50 47.5t-77.5 36.5t-101.5 29.5t-133 28.5q-77 15 -135 29.5t-116 35t-98.5 43.5t-77 55.5t-58 72t-34 90.5t-12.5 114 q0 184 134 292t366 108q160 0 266.5 -42t167 -118.5t102.5 -202.5l-157 -41q-51 146 -133 203t-236 57q-344 0 -344 -248q0 -54 11.5 -90.5t35 -64.5t72.5 -49t111.5 -38t164.5 -36q112 -21 189.5 -43.5t149 -58t113.5 -82t66.5 -114.5t24.5 -157q0 -216 -145.5 -334 t-397.5 -118q-115 0 -207.5 22.5t-156 60.5t-111.5 94.5t-76 119t-47 139.5zM391 1952h105l161 -178l162 178h101l-193 -299h-143z" />
<glyph horiz-adv-x="659" d="M121 494l266 405h168l-256 -405l256 -406h-168z" />
<glyph horiz-adv-x="2410" d="M119 770q0 164 51.5 310.5t142.5 253t222.5 169t283.5 62.5q338 0 527 -258v235h960v-149h-786v-543h649v-145h-649v-555h825v-150h-999v242q-194 -260 -531 -260q-198 0 -357.5 103t-249 283t-89.5 402zM301 772q0 -291 142.5 -465t371.5 -174q256 0 396.5 172.5 t140.5 470.5q0 180 -62 324.5t-184.5 230.5t-286.5 86q-233 0 -375.5 -179.5t-142.5 -465.5z" />
<glyph horiz-adv-x="1269" d="M88 0v166l907 1227h-862v149h1041v-184l-887 -1202h876v-156h-1075zM389 1952h105l161 -178l162 178h101l-193 -299h-143z" />
<glyph horiz-adv-x="468" d="M127 1034v258q0 126 57 193t154 78l4 -99q-103 -16 -106 -155h106v-275h-215z" />
<glyph horiz-adv-x="468" d="M127 1112q103 16 106 156h-106v274h215v-258q0 -126 -57 -192.5t-154 -77.5z" />
<glyph horiz-adv-x="821" d="M127 1034v258q0 126 57 193t154 78l4 -99q-103 -16 -106 -155h106v-275h-215zM479 1034v258q0 126 57 193t154 78l4 -99q-103 -16 -106 -155h106v-275h-215z" />
<glyph horiz-adv-x="821" d="M127 1112q103 16 106 156h-106v274h215v-258q0 -126 -57 -192.5t-154 -77.5zM479 1112q104 16 107 156h-107v274h215v-258q0 -126 -57 -192.5t-154 -77.5z" />
<glyph horiz-adv-x="958" d="M119 754q0 163 96.5 271t265.5 108t265 -107t94 -270q-2 -164 -96 -268.5t-265 -104.5q-167 0 -263.5 106t-96.5 265z" />
<glyph horiz-adv-x="1282" d="M123 549v149h1036v-149h-1036z" />
<glyph horiz-adv-x="1855" d="M123 549v149h1610v-149h-1610z" />
<glyph d="M223 1217q13 99 61 150.5t122 51.5q38 0 72 -16t54.5 -35t46.5 -35t50 -16q32 0 46 21.5t19 64.5l103 -14q-9 -87 -55 -142t-121 -55q-38 0 -74 16t-58.5 35t-47.5 35t-44 16q-57 0 -71 -94z" />
<glyph horiz-adv-x="1366" d="M72 1454v88h489v-88h-194v-530h-101v530h-194zM639 924v618h127l172 -493l168 493h133v-618h-104v448l-154 -448h-92l-156 448v-448h-94z" />
<glyph horiz-adv-x="952" d="M78 293l151 31q12 -50 28 -83.5t45 -62.5t76 -43t114 -14q99 0 161 43.5t62 126.5q0 33 -10 56t-26.5 38.5t-47.5 28.5t-64 21.5t-85 21.5q-10 2 -16 3.5l-16 4l-18 4.5q-78 19 -131 40.5t-99.5 54.5t-69.5 81t-23 113q0 93 48.5 159t124 96.5t169.5 30.5 q157 0 242.5 -51.5t133.5 -167.5l-137 -63q-29 78 -82 110.5t-151 32.5q-99 0 -146 -37t-47 -100q0 -68 45 -93.5t184 -58.5q15 -4 23 -6q49 -12 81 -21t73 -24t67 -30.5t54 -39t43.5 -52t25.5 -67t10 -85.5q0 -135 -102.5 -223t-263.5 -88q-375 0 -426 313zM209 1489h104 l162 -178l162 178h100l-192 -299h-144z" />
<glyph horiz-adv-x="659" d="M104 88l256 406l-256 405h168l267 -405l-267 -406h-168z" />
<glyph horiz-adv-x="1851" d="M90 508q-1 112 30.5 209t90.5 170t149.5 115t202.5 42q134 0 230.5 -59t152.5 -164q53 106 145.5 164.5t221.5 58.5q201 0 324 -138t132 -421h-745q6 -171 80 -268.5t225 -97.5q120 0 187.5 62.5t101.5 187.5l143 -29q-95 -360 -434 -360q-131 0 -227 59.5t-152 165.5 q-115 -225 -387 -225q-146 0 -254 72t-162 190t-55 266zM258 518q0 -178 75.5 -288.5t229.5 -110.5q79 0 138.5 29.5t95 82.5t52.5 122.5t17 154.5q0 84 -17.5 153.5t-53 124t-95 85t-137.5 30.5q-154 0 -229.5 -105t-75.5 -278zM1028 610h571q-18 156 -87 224.5t-199 68.5 q-248 0 -285 -293z" />
<glyph horiz-adv-x="956" d="M68 0v137l637 746h-578v137h747v-168l-608 -711h621v-141h-819zM238 1489h104l162 -178l162 178h100l-193 -299h-143z" />
<glyph horiz-adv-x="1277" d="M20 1542h205l432 -717l418 717h182l-516 -872v-670h-178v672zM406 1653v198h172v-198h-172zM717 1653v198h172v-198h-172z" />
<glyph unicode="&#xa1;" horiz-adv-x="618" d="M195 1280v262h229v-262h-229zM207 0v225l53 811h98l54 -811v-225h-205z" />
<glyph unicode="&#xa2;" horiz-adv-x="1060" d="M90 508q-2 218 104 362t291 170v236h138v-236q272 -32 354 -311l-150 -37q-27 92 -72.5 143.5t-131.5 65.5v-782q101 14 154.5 81t82.5 185l148 -31q-42 -162 -137 -259t-248 -111v-275h-138v277q-180 29 -286.5 174t-108.5 348zM256 518q0 -154 55 -260.5t174 -134.5 v776q-116 -24 -172.5 -123.5t-56.5 -257.5z" />
<glyph unicode="&#xa3;" horiz-adv-x="1187" d="M51 176q0 97 63.5 154t151.5 57q77 0 162 -45q-2 20 -6.5 41.5t-8 37.5t-13.5 40.5t-14 35t-18 39t-17 35t-20.5 38.5t-19.5 36h-241v131h180q-53 130 -53 266q0 195 124.5 302.5t331.5 107.5q90 0 162 -20t119.5 -52t83 -79t54.5 -94.5t32 -104.5l-154 -43 q-27 130 -93.5 190t-203.5 60q-293 0 -293 -271q0 -113 60 -262h442v-131h-383q48 -103 73.5 -184.5t25.5 -175.5q0 -20 -3 -41q58 -42 86.5 -61t76 -39.5t87.5 -20.5q83 0 120.5 42t49.5 144l146 -20q-20 -156 -87 -232.5t-206 -76.5q-89 0 -162.5 36t-153.5 99 q-40 -68 -106 -109t-145 -41q-97 0 -163.5 57t-66.5 154zM190 172q0 -37 26.5 -58.5t72.5 -21.5q49 0 82 31t47 84q-77 53 -137 53q-47 0 -69 -24t-22 -64z" />
<glyph unicode="&#xa4;" horiz-adv-x="1169" d="M86 246l166 174q-62 100 -62 231q0 141 66 242l-170 180l113 109l166 -176q92 61 217 61q128 0 223 -61l166 176l112 -109l-168 -178q67 -108 64 -244q0 -126 -59 -231l163 -174l-112 -109l-158 168q-98 -67 -231 -67q-129 0 -224 67l-159 -168zM344 662 q0 -130 64 -207.5t174 -77.5q118 0 181.5 71.5t63.5 202.5q0 125 -65.5 203t-179.5 78q-109 0 -173.5 -74t-64.5 -196z" />
<glyph unicode="&#xa5;" horiz-adv-x="1189" d="M57 1434h185l370 -676l359 676h162l-318 -580h297v-131h-369l-51 -94v-70h420v-131h-420v-428h-164v428h-417v131h417v59l-59 105h-358v131h282z" />
<glyph unicode="&#xa6;" horiz-adv-x="532" d="M190 -322v928h152v-928h-152zM190 754v911h152v-911h-152z" />
<glyph unicode="&#xa7;" horiz-adv-x="1089" d="M80 610q0 193 260 262q-156 87 -156 254q0 103 53.5 179t133 111.5t170.5 35.5q315 0 379 -260l-144 -37q-45 160 -229 160q-99 0 -153 -49t-54 -127q0 -89 55 -132t217 -83q101 -25 169.5 -52.5t123 -67t80 -94t25.5 -126.5q0 -195 -260 -267q151 -79 151 -237 q0 -153 -101.5 -238.5t-250.5 -85.5q-158 0 -260 77t-133 241l153 18q21 -103 75 -150.5t159 -47.5q202 0 202 174q0 84 -52.5 123t-215.5 79q-199 48 -298 124.5t-99 215.5zM231 604q0 -89 104 -140.5t257 -51.5q56 0 115 16q66 22 107.5 62.5t41.5 95.5q0 92 -99.5 143 t-258.5 51q-86 0 -146 -28q-121 -52 -121 -148z" />
<glyph unicode="&#xa8;" d="M270 1190v199h172v-199h-172zM582 1190v199h172v-199h-172z" />
<glyph unicode="&#xa9;" horiz-adv-x="1826" d="M119 770q0 163 62 310t168 253.5t254 169t312 62.5q221 0 403.5 -105.5t286 -287t103.5 -398.5q0 -165 -62 -312.5t-168.5 -252.5t-254 -166t-312.5 -61q-163 0 -309 60.5t-252 164.5t-168.5 251t-62.5 312zM229 770q0 -199 92 -357t247 -243.5t343 -85.5 q190 0 346.5 86.5t248 245t91.5 358.5q0 119 -33.5 226t-95 190.5t-145 145t-188.5 94t-220 32.5q-146 0 -273 -51.5t-218 -142t-143 -219.5t-52 -279zM463 770q0 216 127 363t313 147q156 0 256 -69.5t152 -215.5l-133 -51q-34 105 -97 153t-172 48q-131 0 -211 -97.5 t-80 -275.5q0 -175 79 -272t212 -97q221 0 283 207l131 -51q-102 -293 -422 -293q-190 0 -314 144t-124 360z" />
<glyph unicode="&#xaa;" horiz-adv-x="978" d="M84 776q0 69 31 121.5t80 84t123 52t147 29.5t166 12v78q0 90 -41.5 130t-130.5 40q-86 0 -130.5 -37.5t-84.5 -120.5l-119 62q44 115 133 170t209 55q60 0 113.5 -16t99.5 -50.5t73 -96.5t27 -146v-400q0 -41 13 -59t45 -18q33 0 75 22h2l-12 -121q-54 -24 -104 -24 q-129 0 -160 129q-102 -133 -277 -133q-124 0 -201 59t-77 178zM236 778q0 -60 34 -89.5t115 -29.5q105 0 175.5 53.5t70.5 139.5v117q-94 -2 -159 -10.5t-122 -28.5t-85.5 -57.5t-28.5 -94.5z" />
<glyph unicode="&#xab;" d="M121 494l266 405h168l-256 -405l256 -406h-168zM485 494l267 405h168l-256 -405l256 -406h-168z" />
<glyph unicode="&#xac;" horiz-adv-x="917" d="M123 666v143h637v-451h-148v308h-489z" />
<glyph unicode="&#xad;" horiz-adv-x="686" d="M123 457v159h438v-159h-438z" />
<glyph unicode="&#xae;" horiz-adv-x="1095" d="M72 1081q0 130 63 239t172.5 172.5t241.5 63.5q133 0 242 -63t171 -171.5t62 -238.5q0 -202 -137.5 -338.5t-339.5 -136.5q-199 0 -337 136t-138 337zM156 1081q0 -174 112.5 -284.5t278.5 -110.5q167 0 280 112t113 285t-111 284.5t-280 111.5q-170 0 -281.5 -112.5 t-111.5 -285.5zM373 842v497h205q81 0 130.5 -36t49.5 -101q0 -54 -34 -84.5t-85 -40.5q50 -13 70 -59q6 -15 17 -61.5t19 -69.5q10 -30 25 -39v-6h-92q-13 16 -41 141q-18 78 -98 78h-82v-219h-84zM457 1126h116q50 0 74.5 17.5t24.5 56.5q0 36 -24.5 54t-65.5 18h-125 v-146z" />
<glyph unicode="&#xaf;" d="M285 1221v131h454v-131h-454z" />
<glyph unicode="&#xb0;" horiz-adv-x="808" d="M100 1151q0 139 84 229t219 90q138 0 223 -90t83 -229t-85.5 -229.5t-220.5 -90.5q-134 0 -218.5 91.5t-84.5 228.5zM215 1157q0 -104 49 -164.5t139 -60.5q94 0 143.5 56.5t49.5 162.5q0 100 -51 160.5t-142 60.5q-90 0 -139 -57.5t-49 -157.5z" />
<glyph unicode="&#xb1;" horiz-adv-x="950" d="M123 0v147h704v-147h-704zM123 606v148h280v309h144v-309h280v-148h-280v-309h-144v309h-280z" />
<glyph unicode="&#xb2;" horiz-adv-x="796" d="M98 625q-2 73 15 129t56.5 101t84 77t115.5 72q113 64 153.5 102.5t40.5 99.5q0 65 -38 99t-111 34q-77 0 -124 -37t-69 -126l-121 32q24 109 107 175.5t209 66.5q131 0 208.5 -64t77.5 -178q0 -95 -54.5 -154t-176.5 -124q-127 -67 -169.5 -105t-47.5 -88h438v-112h-594 z" />
<glyph unicode="&#xb3;" horiz-adv-x="798" d="M68 846l127 35q19 -82 63 -122t145 -40q79 0 118.5 35t39.5 100q0 77 -38.5 106t-119.5 29h-100v115h96q77 0 109.5 28.5t32.5 92.5q0 118 -140 118q-73 0 -116.5 -34t-65.5 -105l-119 33q27 103 103 161t200 58t201.5 -62t77.5 -167q0 -67 -32.5 -109.5t-94.5 -68.5 q76 -21 115 -72.5t39 -122.5q0 -120 -82.5 -184t-225.5 -64q-146 0 -228 64t-105 176z" />
<glyph unicode="&#xb4;" d="M438 1190l140 299h215l-246 -299h-109z" />
<glyph unicode="&#xb5;" horiz-adv-x="1099" d="M164 -403v1423h164v-703q0 -198 178 -198q119 0 192.5 73.5t73.5 227.5v600h164v-1020h-164l4 150q-41 -75 -114 -125t-170 -50q-105 0 -164 64v-442h-164z" />
<glyph unicode="&#xb6;" horiz-adv-x="1349" d="M70 1137q0 196 130 300.5t337 104.5h743v-145h-158v-1397h-170v1397h-151v-1397h-170v745h-94q-213 0 -340 100.5t-127 291.5z" />
<glyph unicode="&#xb7;" horiz-adv-x="577" d="M174 520v303h229v-303h-229z" />
<glyph unicode="&#xb8;" horiz-adv-x="1013" d="M360 -313l99 39q28 -62 106 -62q97 0 97 78t-76 78q-26 0 -44.5 -11t-25.5 -26h-86v217h98v-121q30 27 80 27q72 0 120 -46t48 -126q0 -75 -59.5 -118.5t-147.5 -43.5q-153 0 -209 115z" />
<glyph unicode="&#xb9;" horiz-adv-x="583" d="M102 1126v109q83 8 143 57t85 142h76v-809h-148v542q-47 -35 -156 -41z" />
<glyph unicode="&#xba;" horiz-adv-x="991" d="M88 993q-2 197 108.5 328t299.5 131q127 0 221 -61.5t140.5 -164.5t45.5 -231q-2 -198 -109.5 -326t-297.5 -128q-125 0 -219 61.5t-141 163t-48 227.5zM240 1001q0 -152 62.5 -243.5t193.5 -91.5q133 0 194.5 88t61.5 239q0 149 -62.5 239.5t-193.5 90.5t-193.5 -87 t-62.5 -235z" />
<glyph unicode="&#xbb;" d="M104 88l256 406l-256 405h168l267 -405l-267 -406h-168zM469 88l256 406l-256 405h168l266 -405l-266 -406h-168z" />
<glyph unicode="&#xbc;" horiz-adv-x="1652" d="M102 1126v109q83 8 143 57t85 142h76v-809h-148v542q-47 -35 -156 -41zM279 0l802 1434h148l-803 -1434h-147zM811 203v129q107 100 225 234t197 243h158v-494h163v-112h-163v-203h-146v203h-434zM942 315h303v334q-129 -174 -303 -334z" />
<glyph unicode="&#xbd;" horiz-adv-x="1705" d="M102 1126v109q83 8 143 57t85 142h76v-809h-148v542q-47 -35 -156 -41zM279 0l802 1434h148l-803 -1434h-147zM995 0q-2 73 14.5 129.5t54 101.5t82.5 78t114 72q116 66 157 103t41 98q0 129 -147 129q-74 0 -118 -36.5t-67 -123.5l-129 33q24 109 106.5 175t209.5 66 q134 0 211.5 -63.5t77.5 -177.5q0 -49 -15 -88.5t-48.5 -73t-72.5 -59.5t-100 -58q-124 -66 -165 -103.5t-46 -84.5h434v-117h-594z" />
<glyph unicode="&#xbe;" horiz-adv-x="1824" d="M68 846l127 35q19 -82 63 -122t145 -40q79 0 118.5 35t39.5 100q0 77 -38.5 106t-119.5 29h-100v115h96q77 0 109.5 28.5t32.5 92.5q0 118 -140 118q-73 0 -116.5 -34t-65.5 -105l-119 33q27 103 103 161t200 58t201.5 -62t77.5 -167q0 -67 -32.5 -109.5t-94.5 -68.5 q76 -21 115 -72.5t39 -122.5q0 -120 -82.5 -184t-225.5 -64q-146 0 -228 64t-105 176zM451 0l802 1434h148l-803 -1434h-147zM983 203v129q107 100 225 234t197 243h158v-494h163v-112h-163v-203h-146v203h-434zM1114 315h303v334q-129 -174 -303 -334z" />
<glyph unicode="&#xbf;" horiz-adv-x="1140" d="M92 336q0 44 8 82t18 66t33 57t38.5 45.5t51 41.5t53.5 36t62 37q7 4 11 6.5t10.5 6.5t11.5 7q95 58 130.5 109t35.5 143v63h164v-86q0 -56 -14 -104t-33.5 -80.5t-55 -65t-63.5 -51.5t-74 -47q-59 -36 -89 -57t-61 -52.5t-43 -67t-12 -83.5q0 -109 67.5 -164t221.5 -55 q159 0 232.5 65.5t103.5 225.5l166 -31q-55 -418 -500 -418q-127 0 -221 30.5t-147.5 83.5t-79 117t-25.5 140zM520 1280v262h230v-262h-230z" />
<glyph unicode="&#xc0;" horiz-adv-x="1296" d="M31 0l549 1544h143l543 -1544h-185l-159 465h-557l-160 -465h-174zM360 1952h215l140 -299h-109zM416 614h454l-227 666z" />
<glyph unicode="&#xc1;" horiz-adv-x="1296" d="M31 0l549 1544h143l543 -1544h-185l-159 465h-557l-160 -465h-174zM416 614h454l-227 666zM586 1653l139 299h215l-246 -299h-108z" />
<glyph unicode="&#xc2;" horiz-adv-x="1296" d="M31 0l549 1544h143l543 -1544h-185l-159 465h-557l-160 -465h-174zM383 1653l192 299h144l192 -299h-104l-162 178l-162 -178h-100zM416 614h454l-227 666z" />
<glyph unicode="&#xc3;" horiz-adv-x="1296" d="M31 0l549 1544h143l543 -1544h-185l-159 465h-557l-160 -465h-174zM358 1679q13 99 61.5 151t121.5 52q38 0 72 -16t54.5 -35t46.5 -35t50 -16q32 0 46 21.5t19 64.5l103 -15q-9 -87 -55 -141.5t-121 -54.5q-38 0 -74 16t-58.5 35t-47.5 35t-44 16q-57 0 -71 -94z M416 614h454l-227 666z" />
<glyph unicode="&#xc4;" horiz-adv-x="1296" d="M31 0l549 1544h143l543 -1544h-185l-159 465h-557l-160 -465h-174zM406 1653v198h172v-198h-172zM416 614h454l-227 666zM717 1653v198h172v-198h-172z" />
<glyph unicode="&#xc5;" horiz-adv-x="1296" d="M31 0l526 1483q-53 26 -83 78t-30 116q0 91 54.5 152t148.5 61q95 0 150 -61t53 -152q-2 -65 -29 -115.5t-78 -76.5l523 -1485h-185l-159 465h-557l-160 -465h-174zM416 614h454l-227 666zM541 1681q0 -133 106 -133q57 0 83 31.5t26 97.5q0 61 -27.5 95t-81.5 34 q-106 0 -106 -125z" />
<glyph unicode="&#xc6;" horiz-adv-x="2037" d="M0 0l932 1542h1001v-149h-766v-543h629v-145h-629v-555h805v-150h-983v424h-561l-252 -424h-176zM516 573h473v799z" />
<glyph unicode="&#xc7;" horiz-adv-x="1521" d="M119 770q0 227 87 408t246 284t363 103q234 0 386.5 -107.5t230.5 -337.5l-158 -55q-53 175 -164.5 263.5t-290.5 88.5q-235 0 -376.5 -177t-141.5 -468q0 -295 141 -467t383 -172q361 0 465 365l160 -60q-154 -456 -627 -456v-103q30 27 80 27q72 0 120 -46t48 -126 q0 -75 -59.5 -118.5t-147.5 -43.5q-153 0 -209 115l99 39q28 -62 106 -62q96 0 96 78t-75 78q-26 0 -44.5 -11t-25.5 -26h-86v205q-185 22 -323 128t-210.5 275t-72.5 379z" />
<glyph unicode="&#xc8;" horiz-adv-x="1259" d="M170 0v1542h985v-149h-807v-543h670v-145h-670v-555h846v-150h-1024zM391 1952h215l139 -299h-108z" />
<glyph unicode="&#xc9;" horiz-adv-x="1259" d="M170 0v1542h985v-149h-807v-543h670v-145h-670v-555h846v-150h-1024zM565 1653l140 299h215l-246 -299h-109z" />
<glyph unicode="&#xca;" horiz-adv-x="1259" d="M170 0v1542h985v-149h-807v-543h670v-145h-670v-555h846v-150h-1024zM401 1653l193 299h143l193 -299h-105l-161 178l-162 -178h-101z" />
<glyph unicode="&#xcb;" horiz-adv-x="1259" d="M170 0v1542h985v-149h-807v-543h670v-145h-670v-555h846v-150h-1024zM420 1653v198h172v-198h-172zM731 1653v198h172v-198h-172z" />
<glyph unicode="&#xcc;" horiz-adv-x="555" d="M12 1952h215l140 -299h-109zM188 0v1542h179v-1542h-179z" />
<glyph unicode="&#xcd;" horiz-adv-x="555" d="M188 0v1542h179v-1542h-179zM217 1653l139 299h215l-245 -299h-109z" />
<glyph unicode="&#xce;" horiz-adv-x="555" d="M27 1653l192 299h143l193 -299h-104l-162 178l-162 -178h-100zM188 0v1542h179v-1542h-179z" />
<glyph unicode="&#xcf;" horiz-adv-x="555" d="M49 1653v198h172v-198h-172zM188 0v1542h179v-1542h-179zM360 1653v198h172v-198h-172z" />
<glyph unicode="&#xd0;" horiz-adv-x="1548" d="M18 690v146h183v706h497q150 0 272 -39t206.5 -108t142 -166t84.5 -210.5t27 -244.5q0 -132 -24.5 -244.5t-80 -211.5t-139.5 -168.5t-209 -109.5t-283 -40h-493v690h-183zM379 150h334q137 0 240 44.5t167 127.5t95.5 196.5t31.5 257.5q0 137 -31 247.5t-94 195 t-167.5 130.5t-243.5 46h-332v-559h309v-146h-309v-540z" />
<glyph unicode="&#xd1;" horiz-adv-x="1536" d="M170 0v1542h211l817 -1313v1313h168v-1542h-227l-801 1286v-1286h-168zM516 1679q13 100 61 151.5t121 51.5q38 0 72 -16t54.5 -35t47 -35t50.5 -16q32 0 46 21.5t19 64.5l103 -15q-9 -87 -55.5 -141.5t-121.5 -54.5q-38 0 -74 16t-58 35t-47 35t-44 16q-58 0 -72 -94z " />
<glyph unicode="&#xd2;" horiz-adv-x="1662" d="M119 770q0 226 89 407t253 284.5t373 103.5q157 0 291 -62t225 -168.5t142.5 -251.5t51.5 -309q0 -224 -86 -403.5t-248 -284t-372 -104.5q-204 0 -369 103t-257.5 283t-92.5 402zM301 772q0 -290 149.5 -464.5t387.5 -174.5q249 0 386.5 173t137.5 470q0 179 -63.5 324 t-185 231t-279.5 86q-242 0 -387.5 -179t-145.5 -466zM553 1952h215l139 -299h-108z" />
<glyph unicode="&#xd3;" horiz-adv-x="1662" d="M119 770q0 226 89 407t253 284.5t373 103.5q157 0 291 -62t225 -168.5t142.5 -251.5t51.5 -309q0 -224 -86 -403.5t-248 -284t-372 -104.5q-204 0 -369 103t-257.5 283t-92.5 402zM301 772q0 -290 149.5 -464.5t387.5 -174.5q249 0 386.5 173t137.5 470q0 179 -63.5 324 t-185 231t-279.5 86q-242 0 -387.5 -179t-145.5 -466zM758 1653l139 299h215l-246 -299h-108z" />
<glyph unicode="&#xd4;" horiz-adv-x="1662" d="M119 770q0 226 89 407t253 284.5t373 103.5q157 0 291 -62t225 -168.5t142.5 -251.5t51.5 -309q0 -224 -86 -403.5t-248 -284t-372 -104.5q-204 0 -369 103t-257.5 283t-92.5 402zM301 772q0 -290 149.5 -464.5t387.5 -174.5q249 0 386.5 173t137.5 470q0 179 -63.5 324 t-185 231t-279.5 86q-242 0 -387.5 -179t-145.5 -466zM567 1653l193 299h143l193 -299h-105l-162 178l-161 -178h-101z" />
<glyph unicode="&#xd5;" horiz-adv-x="1662" d="M119 770q0 226 89 407t253 284.5t373 103.5q157 0 291 -62t225 -168.5t142.5 -251.5t51.5 -309q0 -224 -86 -403.5t-248 -284t-372 -104.5q-204 0 -369 103t-257.5 283t-92.5 402zM301 772q0 -290 149.5 -464.5t387.5 -174.5q249 0 386.5 173t137.5 470q0 179 -63.5 324 t-185 231t-279.5 86q-242 0 -387.5 -179t-145.5 -466zM545 1679q13 100 61 151.5t121 51.5q38 0 72 -16t54.5 -35t46.5 -35t50 -16q32 0 46.5 21.5t19.5 64.5l102 -15q-9 -87 -55 -141.5t-121 -54.5q-38 0 -74 16t-58 35t-47 35t-44 16q-58 0 -72 -94z" />
<glyph unicode="&#xd6;" horiz-adv-x="1662" d="M119 770q0 226 89 407t253 284.5t373 103.5q157 0 291 -62t225 -168.5t142.5 -251.5t51.5 -309q0 -224 -86 -403.5t-248 -284t-372 -104.5q-204 0 -369 103t-257.5 283t-92.5 402zM301 772q0 -290 149.5 -464.5t387.5 -174.5q249 0 386.5 173t137.5 470q0 179 -63.5 324 t-185 231t-279.5 86q-242 0 -387.5 -179t-145.5 -466zM590 1653v198h172v-198h-172zM901 1653v198h172v-198h-172z" />
<glyph unicode="&#xd7;" horiz-adv-x="950" d="M152 297l231 250l-231 250l96 92l225 -244l225 244l97 -92l-232 -250l232 -250l-97 -92l-225 244l-225 -244z" />
<glyph unicode="&#xd8;" horiz-adv-x="1662" d="M23 0l247 266q-151 212 -151 504q0 220 89 401t253.5 287.5t372.5 106.5q276 0 469 -183l147 160h190l-245 -266q149 -210 149 -502q0 -223 -90 -403.5t-254 -284.5t-371 -104q-273 0 -464 178l-150 -160h-192zM293 772q0 -222 88 -385l815 881q-143 153 -362 153 q-245 0 -393 -179t-148 -470zM467 272q143 -143 362 -143q252 0 396.5 173.5t144.5 473.5q0 218 -90 377z" />
<glyph unicode="&#xd9;" horiz-adv-x="1445" d="M164 559v983h178v-962q0 -240 90.5 -343.5t286.5 -103.5q97 0 166 21.5t122.5 74t80 146.5t26.5 233v934h168v-960q0 -288 -142 -444t-427 -156q-265 0 -407 148t-142 429zM444 1952h215l140 -299h-109z" />
<glyph unicode="&#xda;" horiz-adv-x="1445" d="M164 559v983h178v-962q0 -240 90.5 -343.5t286.5 -103.5q97 0 166 21.5t122.5 74t80 146.5t26.5 233v934h168v-960q0 -288 -142 -444t-427 -156q-265 0 -407 148t-142 429zM649 1653l139 299h216l-246 -299h-109z" />
<glyph unicode="&#xdb;" horiz-adv-x="1445" d="M164 559v983h178v-962q0 -240 90.5 -343.5t286.5 -103.5q97 0 166 21.5t122.5 74t80 146.5t26.5 233v934h168v-960q0 -288 -142 -444t-427 -156q-265 0 -407 148t-142 429zM467 1653l192 299h144l192 -299h-104l-162 178l-162 -178h-100z" />
<glyph unicode="&#xdc;" horiz-adv-x="1445" d="M164 559v983h178v-962q0 -240 90.5 -343.5t286.5 -103.5q97 0 166 21.5t122.5 74t80 146.5t26.5 233v934h168v-960q0 -288 -142 -444t-427 -156q-265 0 -407 148t-142 429zM496 1653v198h172v-198h-172zM807 1653v198h172v-198h-172z" />
<glyph unicode="&#xdd;" horiz-adv-x="1277" d="M20 1542h205l432 -717l418 717h182l-516 -872v-670h-178v672zM575 1653l140 299h215l-246 -299h-109z" />
<glyph unicode="&#xde;" horiz-adv-x="1400" d="M170 0v1542h178v-323h469q107 0 196.5 -27t157.5 -79.5t106 -136.5t38 -190q0 -203 -135 -309t-363 -106h-469v-371h-178zM348 514h483q151 0 228.5 73.5t77.5 209.5q0 274 -306 274h-483v-557z" />
<glyph unicode="&#xdf;" horiz-adv-x="1087" d="M164 0v1167q0 187 109 289.5t280 102.5q170 0 271.5 -103t101.5 -270q0 -98 -49.5 -179t-151.5 -120q142 -36 207 -154t65 -289q0 -235 -106.5 -349.5t-280.5 -114.5q-110 0 -174 40l43 121q63 -28 123 -28q103 0 165 78.5t62 248.5q0 68 -9.5 123t-32.5 103.5t-59 80 t-91.5 48t-128.5 12.5v139q68 -2 118 12.5t78 37.5t44.5 57.5t21 64.5t4.5 68q0 114 -56 177.5t-167 63.5q-223 0 -223 -235v-1192h-164z" />
<glyph unicode="&#xe0;" horiz-adv-x="1058" d="M80 254q0 69 24 123t70 91t102.5 62.5t133.5 40.5t149 22.5t162 10.5v90q0 207 -199 207q-100 0 -159.5 -41.5t-106.5 -138.5l-135 72q111 251 409 251q52 0 100.5 -11t95.5 -38t82 -67t56 -103.5t21 -142.5v-465q0 -53 14 -74.5t53 -21.5q43 0 86 24h4l-16 -135 q-56 -28 -108 -28q-154 0 -189 153q-126 -158 -323 -158q-145 0 -235.5 69.5t-90.5 207.5zM244 258q0 -147 188 -147q122 0 205.5 63t83.5 162v149q-70 -3 -124.5 -8t-112 -15t-98.5 -26.5t-74.5 -40t-50.5 -58.5t-17 -79zM248 1489h215l139 -299h-108z" />
<glyph unicode="&#xe1;" horiz-adv-x="1058" d="M80 254q0 69 24 123t70 91t102.5 62.5t133.5 40.5t149 22.5t162 10.5v90q0 207 -199 207q-100 0 -159.5 -41.5t-106.5 -138.5l-135 72q111 251 409 251q52 0 100.5 -11t95.5 -38t82 -67t56 -103.5t21 -142.5v-465q0 -53 14 -74.5t53 -21.5q43 0 86 24h4l-16 -135 q-56 -28 -108 -28q-154 0 -189 153q-126 -158 -323 -158q-145 0 -235.5 69.5t-90.5 207.5zM244 258q0 -147 188 -147q122 0 205.5 63t83.5 162v149q-70 -3 -124.5 -8t-112 -15t-98.5 -26.5t-74.5 -40t-50.5 -58.5t-17 -79zM453 1190l139 299h215l-246 -299h-108z" />
<glyph unicode="&#xe2;" horiz-adv-x="1058" d="M80 254q0 69 24 123t70 91t102.5 62.5t133.5 40.5t149 22.5t162 10.5v90q0 207 -199 207q-100 0 -159.5 -41.5t-106.5 -138.5l-135 72q111 251 409 251q52 0 100.5 -11t95.5 -38t82 -67t56 -103.5t21 -142.5v-465q0 -53 14 -74.5t53 -21.5q43 0 86 24h4l-16 -135 q-56 -28 -108 -28q-154 0 -189 153q-126 -158 -323 -158q-145 0 -235.5 69.5t-90.5 207.5zM244 258q0 -147 188 -147q122 0 205.5 63t83.5 162v149q-70 -3 -124.5 -8t-112 -15t-98.5 -26.5t-74.5 -40t-50.5 -58.5t-17 -79zM262 1190l193 299h143l193 -299h-105l-162 178 l-162 -178h-100z" />
<glyph unicode="&#xe3;" horiz-adv-x="1058" d="M80 254q0 69 24 123t70 91t102.5 62.5t133.5 40.5t149 22.5t162 10.5v90q0 207 -199 207q-100 0 -159.5 -41.5t-106.5 -138.5l-135 72q111 251 409 251q52 0 100.5 -11t95.5 -38t82 -67t56 -103.5t21 -142.5v-465q0 -53 14 -74.5t53 -21.5q43 0 86 24h4l-16 -135 q-56 -28 -108 -28q-154 0 -189 153q-126 -158 -323 -158q-145 0 -235.5 69.5t-90.5 207.5zM238 1217q13 99 61 150.5t121 51.5q38 0 72 -16t54.5 -35t46.5 -35t50 -16q32 0 46.5 21.5t19.5 64.5l102 -14q-9 -87 -55 -142t-121 -55q-38 0 -74 16t-58 35t-47 35t-44 16 q-58 0 -72 -94zM244 258q0 -147 188 -147q122 0 205.5 63t83.5 162v149q-70 -3 -124.5 -8t-112 -15t-98.5 -26.5t-74.5 -40t-50.5 -58.5t-17 -79z" />
<glyph unicode="&#xe4;" horiz-adv-x="1058" d="M80 254q0 69 24 123t70 91t102.5 62.5t133.5 40.5t149 22.5t162 10.5v90q0 207 -199 207q-100 0 -159.5 -41.5t-106.5 -138.5l-135 72q111 251 409 251q52 0 100.5 -11t95.5 -38t82 -67t56 -103.5t21 -142.5v-465q0 -53 14 -74.5t53 -21.5q43 0 86 24h4l-16 -135 q-56 -28 -108 -28q-154 0 -189 153q-126 -158 -323 -158q-145 0 -235.5 69.5t-90.5 207.5zM244 258q0 -147 188 -147q122 0 205.5 63t83.5 162v149q-70 -3 -124.5 -8t-112 -15t-98.5 -26.5t-74.5 -40t-50.5 -58.5t-17 -79zM285 1190v199h172v-199h-172zM596 1190v199h172 v-199h-172z" />
<glyph unicode="&#xe5;" horiz-adv-x="1058" d="M80 254q0 69 24 123t70 91t102.5 62.5t133.5 40.5t149 22.5t162 10.5v90q0 207 -199 207q-100 0 -159.5 -41.5t-106.5 -138.5l-135 72q111 251 409 251q52 0 100.5 -11t95.5 -38t82 -67t56 -103.5t21 -142.5v-465q0 -53 14 -74.5t53 -21.5q43 0 86 24h4l-16 -135 q-56 -28 -108 -28q-154 0 -189 153q-126 -158 -323 -158q-145 0 -235.5 69.5t-90.5 207.5zM244 258q0 -147 188 -147q122 0 205.5 63t83.5 162v149q-70 -3 -124.5 -8t-112 -15t-98.5 -26.5t-74.5 -40t-50.5 -58.5t-17 -79zM319 1341q0 91 54.5 152t148.5 61q95 0 150 -61 t53 -152q-2 -92 -55 -152.5t-148 -60.5q-93 0 -148 61.5t-55 151.5zM416 1346q0 -134 106 -134q57 0 83 31.5t26 97.5q0 61 -27.5 95t-81.5 34q-106 0 -106 -124z" />
<glyph unicode="&#xe6;" horiz-adv-x="1679" d="M80 254q0 69 24 123t70 91t102.5 62.5t133.5 40.5t149 22.5t162 10.5v90q0 207 -199 207q-100 0 -159.5 -41.5t-106.5 -138.5l-135 72q111 251 409 251q218 0 287 -178q59 90 140 134t194 44q200 0 318.5 -137.5t127.5 -421.5h-725q14 -366 295 -366q119 0 182 61.5 t97 188.5l143 -29q-21 -80 -52.5 -141.5t-80.5 -113t-122.5 -78.5t-168.5 -27q-245 0 -366 217q-127 -220 -393 -220q-145 0 -235.5 69.5t-90.5 207.5zM244 258q0 -147 188 -147q122 0 205.5 63t83.5 162v149q-70 -3 -124.5 -8t-112 -15t-98.5 -26.5t-74.5 -40t-50.5 -58.5 t-17 -79zM877 610h550q-19 157 -83.5 225t-192.5 68q-242 0 -274 -293z" />
<glyph unicode="&#xe7;" horiz-adv-x="1052" d="M90 508q-1 158 52 278.5t157.5 189t247.5 68.5q167 0 264 -79.5t145 -235.5l-149 -33q-17 54 -36.5 89.5t-49.5 63t-72.5 40t-101.5 12.5q-145 0 -217 -102t-72 -281q0 -85 16.5 -155t50.5 -126t93 -87t139 -31q122 0 185.5 67t95.5 199l149 -31q-96 -374 -432 -374h-4 v-101q30 27 80 27q72 0 120 -46t48 -126q0 -75 -59.5 -118.5t-147.5 -43.5q-153 0 -209 115l98 39q28 -62 107 -62q96 0 96 78t-76 78q-26 0 -44 -11t-25 -26h-86v207q-168 36 -264.5 178t-98.5 340z" />
<glyph unicode="&#xe8;" horiz-adv-x="1081" d="M90 508q0 155 52 275t156 190.5t245 70.5q204 0 325.5 -137.5t130.5 -421.5h-745q6 -171 80 -268.5t225 -97.5q118 0 187 63t102 187l143 -29q-95 -360 -434 -360q-143 0 -250 71t-162 190t-55 267zM258 610h571q-18 156 -87 224.5t-199 68.5q-248 0 -285 -293zM260 1489 h215l139 -299h-108z" />
<glyph unicode="&#xe9;" horiz-adv-x="1081" d="M90 508q0 155 52 275t156 190.5t245 70.5q204 0 325.5 -137.5t130.5 -421.5h-745q6 -171 80 -268.5t225 -97.5q118 0 187 63t102 187l143 -29q-95 -360 -434 -360q-143 0 -250 71t-162 190t-55 267zM258 610h571q-18 156 -87 224.5t-199 68.5q-248 0 -285 -293zM473 1190 l139 299h215l-245 -299h-109z" />
<glyph unicode="&#xea;" horiz-adv-x="1081" d="M90 508q0 155 52 275t156 190.5t245 70.5q204 0 325.5 -137.5t130.5 -421.5h-745q6 -171 80 -268.5t225 -97.5q118 0 187 63t102 187l143 -29q-95 -360 -434 -360q-143 0 -250 71t-162 190t-55 267zM258 610h571q-18 156 -87 224.5t-199 68.5q-248 0 -285 -293zM274 1190 l193 299h143l193 -299h-105l-161 178l-162 -178h-101z" />
<glyph unicode="&#xeb;" horiz-adv-x="1081" d="M90 508q0 155 52 275t156 190.5t245 70.5q204 0 325.5 -137.5t130.5 -421.5h-745q6 -171 80 -268.5t225 -97.5q118 0 187 63t102 187l143 -29q-95 -360 -434 -360q-143 0 -250 71t-162 190t-55 267zM258 610h571q-18 156 -87 224.5t-199 68.5q-248 0 -285 -293zM297 1190 v199h172v-199h-172zM608 1190v199h172v-199h-172z" />
<glyph unicode="&#xec;" horiz-adv-x="516" d="M-31 1489h215l140 -299h-109zM174 0v1020h168v-1020h-168z" />
<glyph unicode="&#xed;" horiz-adv-x="516" d="M174 0v1020h168v-1020h-168zM197 1190l139 299h215l-246 -299h-108z" />
<glyph unicode="&#xee;" horiz-adv-x="516" d="M-6 1190l192 299h144l192 -299h-104l-162 178l-162 -178h-100zM174 0v1020h168v-1020h-168z" />
<glyph unicode="&#xef;" horiz-adv-x="516" d="M16 1190v199h172v-199h-172zM174 0v1020h168v-1020h-168zM328 1190v199h172v-199h-172z" />
<glyph unicode="&#xf0;" horiz-adv-x="1124" d="M90 508q-1 150 51 270.5t157.5 193t246.5 72.5q142 0 246 -96q-66 154 -189 291l-129 -115l-76 82l127 113q-68 68 -143 127l90 104q90 -65 162 -131l131 117l76 -82l-127 -115q321 -340 321 -800q0 -253 -123.5 -406t-349.5 -153q-146 0 -254 72t-162 190t-55 266z M258 518q0 -178 75.5 -288.5t229.5 -110.5q155 0 230 106t75 283q0 84 -18 154.5t-53.5 126t-95.5 87t-138 31.5q-153 0 -229 -107.5t-76 -281.5z" />
<glyph unicode="&#xf1;" horiz-adv-x="1083" d="M164 0v1020h164l-4 -150q41 75 118 124.5t183 49.5q136 0 223.5 -88t87.5 -264v-692h-164v702q0 193 -178 193q-121 0 -193.5 -69.5t-72.5 -225.5v-600h-164zM252 1217q13 99 61 150.5t121 51.5q38 0 72 -16t54.5 -35t46.5 -35t50 -16q32 0 46.5 21.5t19.5 64.5l102 -14 q-9 -87 -55 -142t-121 -55q-38 0 -74 16t-58 35t-47 35t-44 16q-58 0 -72 -94z" />
<glyph unicode="&#xf2;" horiz-adv-x="1124" d="M90 508q-1 112 30.5 209t90.5 170t149.5 115t202.5 42t202.5 -41.5t149 -114t89.5 -169.5t30 -209q-1 -151 -53.5 -269t-161 -189.5t-258.5 -71.5q-146 0 -254 72t-162 190t-55 266zM258 518q0 -178 75.5 -288.5t229.5 -110.5q79 0 138.5 29.5t95 82.5t52.5 122.5 t17 154.5q0 84 -17.5 153.5t-53 124t-95 85t-137.5 30.5q-154 0 -229.5 -105t-75.5 -278zM283 1489h215l139 -299h-109z" />
<glyph unicode="&#xf3;" horiz-adv-x="1124" d="M90 508q-1 112 30.5 209t90.5 170t149.5 115t202.5 42t202.5 -41.5t149 -114t89.5 -169.5t30 -209q-1 -151 -53.5 -269t-161 -189.5t-258.5 -71.5q-146 0 -254 72t-162 190t-55 266zM258 518q0 -178 75.5 -288.5t229.5 -110.5q79 0 138.5 29.5t95 82.5t52.5 122.5 t17 154.5q0 84 -17.5 153.5t-53 124t-95 85t-137.5 30.5q-154 0 -229.5 -105t-75.5 -278zM504 1190l139 299h215l-246 -299h-108z" />
<glyph unicode="&#xf4;" horiz-adv-x="1124" d="M90 508q-1 112 30.5 209t90.5 170t149.5 115t202.5 42t202.5 -41.5t149 -114t89.5 -169.5t30 -209q-1 -151 -53.5 -269t-161 -189.5t-258.5 -71.5q-146 0 -254 72t-162 190t-55 266zM258 518q0 -178 75.5 -288.5t229.5 -110.5q79 0 138.5 29.5t95 82.5t52.5 122.5 t17 154.5q0 84 -17.5 153.5t-53 124t-95 85t-137.5 30.5q-154 0 -229.5 -105t-75.5 -278zM297 1190l192 299h144l192 -299h-104l-162 178l-162 -178h-100z" />
<glyph unicode="&#xf5;" horiz-adv-x="1124" d="M90 508q-1 112 30.5 209t90.5 170t149.5 115t202.5 42t202.5 -41.5t149 -114t89.5 -169.5t30 -209q-1 -151 -53.5 -269t-161 -189.5t-258.5 -71.5q-146 0 -254 72t-162 190t-55 266zM258 518q0 -178 75.5 -288.5t229.5 -110.5q79 0 138.5 29.5t95 82.5t52.5 122.5 t17 154.5q0 84 -17.5 153.5t-53 124t-95 85t-137.5 30.5q-154 0 -229.5 -105t-75.5 -278zM272 1217q13 99 61 150.5t122 51.5q38 0 72 -16t54.5 -35t46.5 -35t50 -16q32 0 46 21.5t19 64.5l103 -14q-9 -87 -55 -142t-121 -55q-38 0 -74 16t-58.5 35t-47.5 35t-44 16 q-57 0 -71 -94z" />
<glyph unicode="&#xf6;" horiz-adv-x="1124" d="M90 508q-1 112 30.5 209t90.5 170t149.5 115t202.5 42t202.5 -41.5t149 -114t89.5 -169.5t30 -209q-1 -151 -53.5 -269t-161 -189.5t-258.5 -71.5q-146 0 -254 72t-162 190t-55 266zM258 518q0 -178 75.5 -288.5t229.5 -110.5q79 0 138.5 29.5t95 82.5t52.5 122.5 t17 154.5q0 84 -17.5 153.5t-53 124t-95 85t-137.5 30.5q-154 0 -229.5 -105t-75.5 -278zM319 1190v199h173v-199h-173zM631 1190v199h172v-199h-172z" />
<glyph unicode="&#xf7;" horiz-adv-x="950" d="M123 483v148h704v-148h-704zM381 102v222h188v-222h-188zM381 791v221h188v-221h-188z" />
<glyph unicode="&#xf8;" horiz-adv-x="1124" d="M16 0l164 180q-87 137 -90 328q-1 112 30.5 209t90.5 170t149.5 115t202.5 42q181 0 303 -106l72 80h170l-160 -176q89 -141 86 -332q-1 -151 -53.5 -269t-161 -189.5t-258.5 -71.5q-179 0 -299 104l-76 -84h-170zM252 518q0 -123 35 -219l481 530q-78 78 -205 78 q-81 0 -141.5 -29.5t-97 -83t-54.5 -123t-18 -153.5zM358 190q77 -77 205 -77q81 0 142 30t96.5 84.5t53 124.5t17.5 156q0 128 -34 211z" />
<glyph unicode="&#xf9;" horiz-adv-x="1083" d="M147 328v692h164v-703q0 -198 178 -198q119 0 193 73.5t74 227.5v600h164v-1020h-164l4 150q-41 -75 -118 -125t-183 -50q-136 0 -224 88.5t-88 264.5zM262 1489h215l139 -299h-108z" />
<glyph unicode="&#xfa;" horiz-adv-x="1083" d="M147 328v692h164v-703q0 -198 178 -198q119 0 193 73.5t74 227.5v600h164v-1020h-164l4 150q-41 -75 -118 -125t-183 -50q-136 0 -224 88.5t-88 264.5zM473 1190l139 299h215l-245 -299h-109z" />
<glyph unicode="&#xfb;" horiz-adv-x="1083" d="M147 328v692h164v-703q0 -198 178 -198q119 0 193 73.5t74 227.5v600h164v-1020h-164l4 150q-41 -75 -118 -125t-183 -50q-136 0 -224 88.5t-88 264.5zM276 1190l193 299h143l193 -299h-105l-161 178l-162 -178h-101z" />
<glyph unicode="&#xfc;" horiz-adv-x="1083" d="M147 328v692h164v-703q0 -198 178 -198q119 0 193 73.5t74 227.5v600h164v-1020h-164l4 150q-41 -75 -118 -125t-183 -50q-136 0 -224 88.5t-88 264.5zM299 1190v199h172v-199h-172zM610 1190v199h172v-199h-172z" />
<glyph unicode="&#xfd;" horiz-adv-x="983" d="M43 1020h176l287 -797l272 797h162l-442 -1241q-35 -102 -82 -154q-63 -69 -170 -69q-85 0 -140 38l15 140h4q43 -43 111 -43q92 0 141 155l47 152zM414 1190l139 299h215l-246 -299h-108z" />
<glyph unicode="&#xfe;" horiz-adv-x="1148" d="M164 -403v1953h164v-676q102 170 317 170q189 0 299.5 -140.5t110.5 -387.5q0 -246 -105.5 -390t-310.5 -144q-84 0 -145.5 23t-96.5 56t-69 86v-550h-164zM324 522q0 -405 299 -405q264 0 264 407q0 200 -67.5 287.5t-198.5 87.5q-137 0 -217 -89.5t-80 -287.5z" />
<glyph unicode="&#xff;" horiz-adv-x="983" d="M43 1020h176l287 -797l272 797h162l-442 -1241q-35 -102 -82 -154q-63 -69 -170 -69q-85 0 -140 38l15 140h4q43 -43 111 -43q92 0 141 155l47 152zM246 1190v199h172v-199h-172zM557 1190v199h172v-199h-172z" />
<glyph unicode="&#x2000;" horiz-adv-x="976" />
<glyph unicode="&#x2001;" horiz-adv-x="1952" />
<glyph unicode="&#x2002;" horiz-adv-x="976" />
<glyph unicode="&#x2003;" horiz-adv-x="1952" />
<glyph unicode="&#x2004;" horiz-adv-x="650" />
<glyph unicode="&#x2005;" horiz-adv-x="488" />
<glyph unicode="&#x2006;" horiz-adv-x="325" />
<glyph unicode="&#x2007;" horiz-adv-x="325" />
<glyph unicode="&#x2008;" horiz-adv-x="244" />
<glyph unicode="&#x2009;" horiz-adv-x="390" />
<glyph unicode="&#x200a;" horiz-adv-x="108" />
<glyph unicode="&#x2010;" horiz-adv-x="686" d="M123 457v159h438v-159h-438z" />
<glyph unicode="&#x2011;" horiz-adv-x="686" d="M123 457v159h438v-159h-438z" />
<glyph unicode="&#x2012;" horiz-adv-x="686" d="M123 457v159h438v-159h-438z" />
<glyph unicode="&#x2013;" horiz-adv-x="1272" d="M123 457v159h1024v-159h-1024z" />
<glyph unicode="&#x2014;" horiz-adv-x="2296" d="M123 457v159h2048v-159h-2048z" />
<glyph unicode="&#x202f;" horiz-adv-x="390" />
<glyph unicode="&#x205f;" horiz-adv-x="488" />
<glyph unicode="&#xe000;" d="M0 0v1024h1024v-1024h-1024z" />
<glyph unicode="&#xfb01;" horiz-adv-x="1099" d="M45 887v133h164v266q0 154 92 225q63 48 158 48q79 0 133 -33l-25 -148h-6q-29 29 -90 29q-45 0 -71.5 -27.5t-26.5 -83.5v-276h192v-133h-192v-887h-164v887h-164zM760 1348v194h174v-194h-174zM764 0v1020h166v-1020h-166z" />
<glyph unicode="&#xfb02;" horiz-adv-x="1099" d="M45 887v133h164v266q0 154 92 225q63 48 158 48q79 0 133 -33l-25 -148h-6q-29 29 -90 29q-45 0 -71.5 -27.5t-26.5 -83.5v-276h192v-133h-192v-887h-164v887h-164zM764 0v1550h166v-1550h-166z" />
</font>
</defs>
</svg>
