<?xml version="1.0" encoding="utf-8"?>
<!-- Generator: Adobe Illustrator 15.0.2, SVG Export Plug-In . SVG Version: 6.00 Build 0)  -->
<!DOCTYPE svg PUBLIC "-//W3C//DTD SVG 1.1//EN" "http://www.w3.org/Graphics/SVG/1.1/DTD/svg11.dtd">
<svg version="1.1" id="Lager_1" xmlns="http://www.w3.org/2000/svg" xmlns:xlink="http://www.w3.org/1999/xlink" x="0px" y="0px"
	 width="48px" height="48px" viewBox="0 0 48 48" enable-background="new 0 0 48 48" xml:space="preserve">
<g id="Expanded">
	<g>
		<g>
			<path fill="#FFFFFF" d="M42,48H28V35h-8v13H6V27c0-0.553,0.447-1,1-1s1,0.447,1,1v19h10V33h12v13h10V28c0-0.553,0.447-1,1-1
				s1,0.447,1,1V48z"/>
		</g>
		<g>
			<path fill="#FFFFFF" d="M47,27c-0.249,0-0.497-0.092-0.691-0.277L24,5.384L1.691,26.723c-0.399,0.381-1.032,0.368-1.414-0.031
				c-0.382-0.398-0.367-1.031,0.031-1.414L24,2.616l23.691,22.661c0.397,0.382,0.412,1.015,0.031,1.414
				C47.525,26.896,47.264,27,47,27z"/>
		</g>
		<g>
			<path fill="#FFFFFF" d="M39,15c-0.553,0-1-0.448-1-1V8h-6c-0.553,0-1-0.448-1-1s0.447-1,1-1h8v8C40,14.552,39.553,15,39,15z"/>
		</g>
	</g>
</g>
</svg>
