<?xml version="1.0" encoding="utf-8"?>
<!-- Generator: Adobe Illustrator 15.0.2, SVG Export Plug-In . SVG Version: 6.00 Build 0)  -->
<!DOCTYPE svg PUBLIC "-//W3C//DTD SVG 1.1//EN" "http://www.w3.org/Graphics/SVG/1.1/DTD/svg11.dtd">
<svg version="1.1" id="Lager_1" xmlns="http://www.w3.org/2000/svg" xmlns:xlink="http://www.w3.org/1999/xlink" x="0px" y="0px"
	 width="48px" height="48px" viewBox="0 0 48 48" enable-background="new 0 0 48 48" xml:space="preserve">
<g id="Expanded_4_">
	<g>
		<g>
			<path fill="#FFFFFF" d="M24,47.023c-0.147,0-0.294-0.03-0.43-0.096l-21-10C2.222,36.762,2,36.411,2,36.023v-31
				c0-0.343,0.176-0.661,0.466-0.846C2.754,3.996,3.12,3.975,3.43,4.121L24,13.916l20.57-9.795c0.309-0.146,0.672-0.127,0.963,0.058
				C45.824,4.364,46,4.682,46,5.024v31c0,0.388-0.223,0.738-0.57,0.904l-21,10C24.293,46.993,24.146,47.023,24,47.023z M4,35.393
				l20,9.524l20-9.524V6.608l-19.57,9.319c-0.271,0.129-0.588,0.129-0.859,0L4,6.608V35.393z"/>
		</g>
		<g>
			<path fill="#FFFFFF" d="M24,11.18L6.566,2.879c-0.499-0.238-0.71-0.836-0.473-1.334c0.238-0.498,0.834-0.707,1.333-0.473
				L24,8.965l16.572-7.893c0.5-0.234,1.097-0.025,1.335,0.473c0.235,0.498,0.024,1.096-0.474,1.334L24,11.18z"/>
		</g>
		<g>
			<rect x="23" y="15.024" fill="#FFFFFF" width="2" height="31"/>
		</g>
	</g>
</g>
</svg>
