<?xml version="1.0" encoding="utf-8"?>
<!-- Generator: Adobe Illustrator 15.0.2, SVG Export Plug-In . SVG Version: 6.00 Build 0)  -->
<!DOCTYPE svg PUBLIC "-//W3C//DTD SVG 1.1//EN" "http://www.w3.org/Graphics/SVG/1.1/DTD/svg11.dtd">
<svg version="1.1" id="Lager_1" xmlns="http://www.w3.org/2000/svg" xmlns:xlink="http://www.w3.org/1999/xlink" x="0px" y="0px"
	 width="45.893px" height="45.525px" viewBox="1 1.475 45.893 45.525" enable-background="new 1 1.475 45.893 45.525"
	 xml:space="preserve">
<path fill="#FFFFFF" d="M46.83,16.668c0-0.018,0.006-0.034,0.005-0.052c-0.021-0.37-0.276-0.686-0.632-0.788l-9.375-2.677V5.973
	c0-0.388-0.256-0.729-0.628-0.838L23.854,1.51c-0.16-0.047-0.332-0.047-0.492,0.001L11.899,4.887
	c-0.372,0.109-0.627,0.451-0.627,0.837v9.667L1.62,18.323C1.252,18.436,1,18.775,1,19.16v18.482c0,0.363,0.227,0.689,0.566,0.817
	l22.603,8.483C24.268,46.98,24.372,47,24.476,47c0.114,0,0.228-0.021,0.334-0.066l9.682-4.01h0.281v-0.117l11.58-4.795
	c0.326-0.137,0.539-0.455,0.539-0.809V16.668H46.83z M22.831,10.622l-0.127,7.794l-9.237-2.826l-0.447-0.126V7.977L22.831,10.622z
	 M35.081,12.871l-10.593,3.237l0.096-5.764L35.081,6.73V12.871z M23.941,32.311l-7.886-2.455l7.807-2.338l7.555,2.338L23.941,32.311
	z M13.741,23.151l8.736-2.975l0.207,0.062v5.808l-8.99,2.691L13.741,23.151z M33.061,28.536l-8.629-2.671v-6.26l0.021-1.297
	l8.606,2.681v7.547H33.061z M19.613,19.306l-7.03,2.395l-8.512-2.296l7.932-2.41L19.613,19.306z M13.677,30.943l9.398,2.926v10.799
	l-9.483-3.561L13.677,30.943z M24.822,33.857l8.203-2.692v10.474l-8.203,3.399V33.857z M34.693,19.668l-7.864-2.449l8.639-2.64
	l7.628,2.179L34.693,19.668z M23.607,3.258l8.741,2.565l-9.051,3.115l-9.905-2.671L23.607,3.258z M2.747,20.856l9.245,2.493
	L11.85,40.455l-9.103-3.417V20.856z M34.773,40.915V29.959c0-0.018-0.012-0.031-0.012-0.049c0.014-0.064,0.045-0.123,0.045-0.189
	v-8.276c0.062-0.007,0.127-0.011,0.188-0.031l10.15-3.519V36.62L34.773,40.915z"/>
</svg>
