<?xml version="1.0" encoding="utf-8"?>
<!-- Generator: Adobe Illustrator 15.0.2, SVG Export Plug-In . SVG Version: 6.00 Build 0)  -->
<!DOCTYPE svg PUBLIC "-//W3C//DTD SVG 1.1//EN" "http://www.w3.org/Graphics/SVG/1.1/DTD/svg11.dtd">
<svg version="1.1" id="Lager_1" xmlns="http://www.w3.org/2000/svg" xmlns:xlink="http://www.w3.org/1999/xlink" x="0px" y="0px"
	 width="48px" height="51px" viewBox="0 0 48 51" enable-background="new 0 0 48 51" xml:space="preserve">
<g id="Expanded_3_">
	<g>
		<g>
			<path fill="#FFFFFF" d="M24,47.879l-0.823-1.189C22.559,45.791,8,24.619,8,16.121c0-8.822,7.178-16,16-16c8.822,0,16,7.178,16,16
				c0,8.499-14.559,29.67-15.176,30.568L24,47.879z M24,2.121c-7.72,0-14,6.28-14,14c0,6.787,10.885,23.555,14,28.213
				c3.115-4.658,14-21.426,14-28.213C38,8.4,31.721,2.121,24,2.121z"/>
		</g>
		<g>
			<path fill="#FFFFFF" d="M24,23.121c-3.859,0-7-3.14-7-7s3.141-7,7-7c3.859,0,7,3.14,7,7S27.859,23.121,24,23.121z M24,11.121
				c-2.757,0-5,2.243-5,5c0,2.757,2.243,5,5,5s5-2.243,5-5C29,13.364,26.758,11.121,24,11.121z"/>
		</g>
	</g>
</g>
</svg>
