<?xml version="1.0" encoding="utf-8"?>
<!-- Generator: Adobe Illustrator 15.0.2, SVG Export Plug-In . SVG Version: 6.00 Build 0)  -->
<!DOCTYPE svg PUBLIC "-//W3C//DTD SVG 1.1//EN" "http://www.w3.org/Graphics/SVG/1.1/DTD/svg11.dtd">
<svg version="1.1" id="Lager_1" xmlns="http://www.w3.org/2000/svg" xmlns:xlink="http://www.w3.org/1999/xlink" x="0px" y="0px"
	 width="63.417px" height="47.355px" viewBox="3.001 1.562 63.417 47.355" enable-background="new 3.001 1.562 63.417 47.355"
	 xml:space="preserve">
<g>
	<path fill="#FFFFFF" d="M21.965,24.294c-0.515-0.461-1.305-0.417-1.765,0.099l-6.799,7.604c0.09-0.235,0.13-0.492,0.06-0.754
		c-0.483-1.812-0.729-3.69-0.729-5.587c0-11.907,9.687-21.594,21.594-21.594c5.259,0,10.324,1.912,14.266,5.382
		c0.516,0.456,1.307,0.406,1.766-0.112c0.455-0.518,0.406-1.308-0.109-1.764c-4.398-3.873-10.055-6.006-15.92-6.006
		c-13.286,0-24.095,10.809-24.095,24.094c0,1.677,0.18,3.341,0.52,4.967l-5.57-6.23c-0.461-0.516-1.252-0.56-1.765-0.099
		c-0.515,0.46-0.559,1.25-0.099,1.765L11.76,35.5c0.237,0.266,0.576,0.417,0.932,0.417s0.694-0.151,0.932-0.417l8.441-9.441
		C22.524,25.544,22.48,24.754,21.965,24.294z M12.644,32.738c0.062-0.02,0.113-0.055,0.17-0.084l-0.123,0.138L12.644,32.738z"/>
	<path fill="#FFFFFF" d="M66.1,24.421L57.66,14.98c-0.477-0.53-1.391-0.53-1.863,0l-8.439,9.441c-0.459,0.515-0.416,1.305,0.1,1.765
		c0.514,0.461,1.303,0.416,1.766-0.099l6.801-7.605c-0.09,0.236-0.129,0.492-0.061,0.754c0.482,1.812,0.729,3.692,0.729,5.587
		c0,11.908-9.688,21.594-21.593,21.594c-5.258,0-10.324-1.911-14.266-5.383c-0.517-0.455-1.309-0.407-1.765,0.112
		c-0.456,0.519-0.405,1.308,0.112,1.765c4.398,3.873,10.052,6.006,15.918,6.006c13.285,0,24.092-10.81,24.092-24.094
		c0-1.676-0.178-3.339-0.518-4.965l5.568,6.229c0.246,0.276,0.588,0.417,0.932,0.417c0.297,0,0.596-0.104,0.834-0.318
		C66.516,25.726,66.559,24.936,66.1,24.421z M56.604,17.825l0.123-0.137l0.047,0.053C56.713,17.762,56.66,17.796,56.604,17.825z"/>
</g>
</svg>
