<?xml version="1.0" encoding="utf-8"?>
<!-- Generator: Adobe Illustrator 15.0.2, SVG Export Plug-In . SVG Version: 6.00 Build 0)  -->
<!DOCTYPE svg PUBLIC "-//W3C//DTD SVG 1.1//EN" "http://www.w3.org/Graphics/SVG/1.1/DTD/svg11.dtd">
<svg version="1.1" id="Lager_1" xmlns="http://www.w3.org/2000/svg" xmlns:xlink="http://www.w3.org/1999/xlink" x="0px" y="0px"
	 width="48.213px" height="49.815px" viewBox="0 20.729 48.213 49.815" enable-background="new 0 20.729 48.213 49.815"
	 xml:space="preserve">
<g>
	<path fill="#FFFFFF" d="M29.743,40.732c-1.195-1.026-2.721-1.59-4.295-1.59c-1.929,0-3.755,0.84-5.009,2.304
		c-1.148,1.336-1.709,3.04-1.574,4.797c0.134,1.76,0.947,3.36,2.287,4.512c1.195,1.024,2.719,1.59,4.292,1.59
		c1.932,0,3.758-0.841,5.014-2.306C32.825,47.273,32.507,43.1,29.743,40.732z M29.114,48.891c-0.918,1.07-2.256,1.688-3.67,1.688
		c-1.15,0-2.268-0.413-3.143-1.164c-0.981-0.842-1.578-2.016-1.676-3.305c-0.099-1.287,0.312-2.533,1.153-3.512
		c0.918-1.073,2.256-1.688,3.669-1.688c1.15,0,2.27,0.414,3.146,1.165C30.616,43.807,30.853,46.865,29.114,48.891z"/>
	<path fill="#FFFFFF" d="M40.651,51.029c0.646,0,1.172-0.524,1.172-1.172V39.481c0-1.111-0.795-2.047-1.889-2.228l-5.264-0.879
		l-1.699-4.246c-0.344-0.864-1.166-1.424-2.098-1.424H20.015c-0.929,0-1.753,0.558-2.1,1.42l-1.7,4.25l-5.258,0.878
		c-1.095,0.181-1.889,1.116-1.889,2.228v16.292c0,1.244,1.013,2.258,2.258,2.258H29.45c0.646,0,1.174-0.524,1.174-1.172
		c0-0.648-0.525-1.174-1.174-1.174H11.414V39.556l6.49-1.083l2.111-5.421h10.798l2.172,5.421l6.492,1.084v10.3
		C39.478,50.505,40.003,51.029,40.651,51.029z"/>
	<path fill="#FFFFFF" d="M48.185,65.096l-1.629-7.59c-0.145-0.667-0.789-1.092-1.465-0.964l-7.035,1.396
		c-0.676,0.135-1.115,0.791-0.982,1.469c0.135,0.677,0.787,1.115,1.471,0.984l3.873-0.77c-7.26,9.083-20.437,11.182-30.175,4.498
		c-4.937-3.39-8.259-8.496-9.354-14.382c-1.095-5.886,0.167-11.846,3.554-16.783c6.991-10.19,20.97-12.796,31.165-5.802
		c2.818,1.935,5.104,4.415,6.791,7.371c0.342,0.6,1.105,0.809,1.705,0.467s0.809-1.104,0.467-1.705
		c-1.875-3.288-4.414-6.044-7.549-8.194c-11.328-7.773-26.869-4.878-34.642,6.449C0.612,37.029-0.79,43.654,0.427,50.197
		c1.218,6.541,4.911,12.219,10.399,15.984c4.299,2.948,9.205,4.362,14.062,4.362c7.537,0,14.955-3.411,19.812-9.766l1.039,4.841
		c0.127,0.586,0.646,0.987,1.223,0.987c0.088,0,0.176-0.01,0.264-0.028C47.901,66.436,48.329,65.77,48.185,65.096z"/>
</g>
</svg>
