<?xml version="1.0" encoding="utf-8"?>
<!-- Generator: Adobe Illustrator 15.0.2, SVG Export Plug-In . SVG Version: 6.00 Build 0)  -->
<!DOCTYPE svg PUBLIC "-//W3C//DTD SVG 1.1//EN" "http://www.w3.org/Graphics/SVG/1.1/DTD/svg11.dtd">
<svg version="1.1" id="Lager_1" xmlns="http://www.w3.org/2000/svg" xmlns:xlink="http://www.w3.org/1999/xlink" x="0px" y="0px"
	 width="48.213px" height="49.816px" viewBox="12.617 0.729 48.213 49.816" enable-background="new 12.617 0.729 48.213 49.816"
	 xml:space="preserve">
<g>
	<path fill="#FFFFFF" d="M42.361,20.732c-1.196-1.026-2.721-1.59-4.295-1.59c-1.93,0-3.756,0.84-5.011,2.304
		c-1.148,1.336-1.708,3.04-1.574,4.797c0.134,1.76,0.947,3.36,2.288,4.512c1.195,1.024,2.719,1.589,4.292,1.589
		c1.932,0,3.758-0.84,5.014-2.305C45.443,27.273,45.124,23.1,42.361,20.732z M41.732,28.891c-0.918,1.071-2.256,1.688-3.67,1.688
		c-1.151,0-2.269-0.413-3.144-1.164c-0.982-0.842-1.578-2.016-1.676-3.305c-0.098-1.287,0.311-2.533,1.153-3.512
		c0.919-1.073,2.256-1.688,3.67-1.688c1.151,0,2.27,0.414,3.146,1.165C43.234,23.807,43.469,26.865,41.732,28.891z"/>
	<path fill="#FFFFFF" d="M53.268,31.029c0.646,0,1.172-0.524,1.172-1.172V19.481c0-1.111-0.795-2.047-1.889-2.227l-5.263-0.879
		l-1.7-4.246c-0.343-0.865-1.166-1.424-2.098-1.424H32.632c-0.929,0-1.753,0.557-2.1,1.42l-1.7,4.25l-5.258,0.878
		c-1.095,0.18-1.889,1.116-1.889,2.227v16.292c0,1.244,1.013,2.258,2.258,2.258h18.125c0.646,0,1.173-0.524,1.173-1.172
		c0-0.648-0.525-1.174-1.173-1.174H24.031V19.556l6.49-1.083l2.111-5.421H43.43l2.172,5.421l6.492,1.084v10.3
		C52.094,30.505,52.619,31.029,53.268,31.029z"/>
	<path fill="#FFFFFF" d="M60.802,45.096l-1.63-7.589c-0.143-0.667-0.789-1.092-1.465-0.964l-7.034,1.395
		c-0.677,0.135-1.116,0.791-0.983,1.469c0.135,0.677,0.787,1.115,1.471,0.984l3.872-0.769c-7.259,9.083-20.436,11.181-30.174,4.498
		c-4.937-3.39-8.26-8.496-9.355-14.382c-1.095-5.886,0.167-11.846,3.554-16.783C26.049,2.764,40.029,0.159,50.223,7.153
		c2.819,1.935,5.104,4.415,6.791,7.371c0.342,0.6,1.106,0.809,1.705,0.467c0.6-0.342,0.809-1.105,0.467-1.705
		c-1.875-3.288-4.414-6.044-7.549-8.194c-11.328-7.774-26.869-4.878-34.642,6.449c-3.766,5.488-5.168,12.113-3.951,18.656
		c1.218,6.541,4.911,12.219,10.399,15.984c4.299,2.949,9.204,4.363,14.062,4.363c7.537,0,14.954-3.411,19.813-9.766l1.039,4.841
		c0.127,0.586,0.645,0.987,1.222,0.987c0.087,0,0.175-0.01,0.264-0.028C60.518,46.436,60.947,45.77,60.802,45.096z"/>
</g>
</svg>
