<?xml version="1.0" encoding="utf-8"?>
<!-- Generator: Adobe Illustrator 15.0.2, SVG Export Plug-In . SVG Version: 6.00 Build 0)  -->
<!DOCTYPE svg PUBLIC "-//W3C//DTD SVG 1.1//EN" "http://www.w3.org/Graphics/SVG/1.1/DTD/svg11.dtd">
<svg version="1.1" id="Lager_1" xmlns="http://www.w3.org/2000/svg" xmlns:xlink="http://www.w3.org/1999/xlink" x="0px" y="0px"
	 width="48.303px" height="40.123px" viewBox="0 0 48.303 40.123" enable-background="new 0 0 48.303 40.123" xml:space="preserve">
<path fill="none" stroke="#FFFFFF" stroke-width="2.5" stroke-miterlimit="10" d="M32.834,30.249
	c-4.108,4.795-11.327,5.35-16.122,1.24c-4.798-4.112-5.353-11.334-1.239-16.125c4.111-4.799,11.327-5.352,16.124-1.24
	C36.39,18.231,36.943,25.452,32.834,30.249z"/>
<path fill="#FFFFFF" d="M24.151,15.181c-4.208,0-7.622,3.416-7.622,7.625v0.002c0,0.523,0.428,0.953,0.952,0.953
	c0.523,0,0.953-0.43,0.953-0.953v-0.002c0.002-3.158,2.562-5.719,5.717-5.719c0.525,0,0.955-0.427,0.955-0.954
	C25.106,15.608,24.677,15.181,24.151,15.181z"/>
<path fill="none" stroke="#FFFFFF" stroke-width="2.5" stroke-miterlimit="10" d="M47.053,37.235c0,0.906-0.731,1.638-1.636,1.638
	H2.884c-0.903,0-1.634-0.731-1.634-1.638V12.7c0-0.8,0.576-1.482,1.365-1.612l8.905-1.485l2.931-7.325
	c0.25-0.62,0.85-1.028,1.521-1.028h16.357c0.668,0,1.269,0.407,1.518,1.028l2.933,7.325l8.906,1.485
	c0.789,0.13,1.367,0.812,1.367,1.612V37.235z"/>
</svg>
