<?xml version="1.0" encoding="utf-8"?>
<!-- Generator: Adobe Illustrator 15.0.2, SVG Export Plug-In . SVG Version: 6.00 Build 0)  -->
<!DOCTYPE svg PUBLIC "-//W3C//DTD SVG 1.1//EN" "http://www.w3.org/Graphics/SVG/1.1/DTD/svg11.dtd">
<svg version="1.1" id="Lager_1" xmlns="http://www.w3.org/2000/svg" xmlns:xlink="http://www.w3.org/1999/xlink" x="0px" y="0px"
	 width="52.333px" height="37px" viewBox="0 0 52.333 37" enable-background="new 0 0 52.333 37" xml:space="preserve">
<g id="Expanded_2_">
	<g>
		<g>
			<path fill="#FFFFFF" d="M44,36H4c-2.206,0-4-1.795-4-4V8c0-2.206,1.794-4,4-4h40c2.205,0,4,1.794,4,4v24
				C48,34.205,46.206,36,44,36z M4,6C2.897,6,2,6.897,2,8v24c0,1.104,0.897,2,2,2h40c1.104,0,2-0.896,2-2V8c0-1.103-0.896-2-2-2H4z"
				/>
		</g>
		<g>
			<path fill="#FFFFFF" d="M24,25.191L6.457,13.84c-0.464-0.301-0.597-0.919-0.297-1.383c0.3-0.464,0.919-0.596,1.383-0.297
				L24,22.809l16.458-10.648c0.463-0.299,1.082-0.167,1.383,0.297c0.301,0.464,0.166,1.082-0.297,1.383L24,25.191z"/>
		</g>
		<g>
			<path fill="#FFFFFF" d="M6.001,30c-0.323,0-0.641-0.156-0.833-0.445c-0.307-0.459-0.183-1.08,0.277-1.387l9-6
				c0.46-0.307,1.081-0.184,1.387,0.277c0.307,0.459,0.183,1.08-0.277,1.387l-9,6C6.384,29.945,6.191,30,6.001,30z"/>
		</g>
		<g>
			<path fill="#FFFFFF" d="M41.999,30c-0.189,0-0.383-0.055-0.554-0.168l-9-6c-0.461-0.307-0.584-0.928-0.276-1.387
				c0.307-0.461,0.926-0.584,1.387-0.277l9,6c0.461,0.307,0.584,0.928,0.277,1.387C42.641,29.844,42.322,30,41.999,30z"/>
		</g>
	</g>
</g>
</svg>
