<?xml version="1.0" encoding="utf-8"?>
<!-- Generator: Adobe Illustrator 15.0.2, SVG Export Plug-In . SVG Version: 6.00 Build 0)  -->
<!DOCTYPE svg PUBLIC "-//W3C//DTD SVG 1.1//EN" "http://www.w3.org/Graphics/SVG/1.1/DTD/svg11.dtd">
<svg version="1.1" id="Lager_1" xmlns="http://www.w3.org/2000/svg" xmlns:xlink="http://www.w3.org/1999/xlink" x="0px" y="0px"
	 width="52.333px" height="37px" viewBox="-2.167 4.833 52.333 37" enable-background="new -2.167 4.833 52.333 37"
	 xml:space="preserve">
<g id="Expanded_2_">
	<g>
		<g>
			<path d="M44,39.117H4c-2.206,0-4-1.794-4-4v-24c0-2.206,1.794-4,4-4h40c2.206,0,4,1.794,4,4v24
				C48,37.323,46.206,39.117,44,39.117z M4,9.117c-1.103,0-2,0.897-2,2v24c0,1.104,0.897,2,2,2h40c1.104,0,2-0.896,2-2v-24
				c0-1.103-0.896-2-2-2H4z"/>
		</g>
		<g>
			<path d="M24,28.309L6.457,16.957c-0.464-0.301-0.597-0.919-0.297-1.383c0.3-0.464,0.919-0.596,1.383-0.297L24,25.926
				l16.457-10.648c0.464-0.299,1.083-0.167,1.383,0.297c0.301,0.464,0.167,1.082-0.297,1.383L24,28.309z"/>
		</g>
		<g>
			<path d="M6.001,33.117c-0.323,0-0.641-0.156-0.833-0.445c-0.307-0.459-0.183-1.08,0.277-1.387l9-6
				c0.46-0.307,1.081-0.184,1.387,0.277c0.307,0.459,0.183,1.08-0.277,1.387l-9,6C6.384,33.062,6.191,33.117,6.001,33.117z"/>
		</g>
		<g>
			<path d="M41.999,33.117c-0.19,0-0.383-0.055-0.554-0.168l-9-6c-0.461-0.307-0.584-0.928-0.277-1.387
				c0.307-0.461,0.926-0.584,1.387-0.277l9,6c0.461,0.307,0.584,0.928,0.277,1.387C42.641,32.961,42.322,33.117,41.999,33.117z"/>
		</g>
	</g>
</g>
</svg>
