<?xml version="1.0" encoding="utf-8"?>
<!-- Generator: Adobe Illustrator 15.0.2, SVG Export Plug-In . SVG Version: 6.00 Build 0)  -->
<!DOCTYPE svg PUBLIC "-//W3C//DTD SVG 1.1//EN" "http://www.w3.org/Graphics/SVG/1.1/DTD/svg11.dtd">
<svg version="1.1" id="Layer_1" xmlns="http://www.w3.org/2000/svg" xmlns:xlink="http://www.w3.org/1999/xlink" x="0px" y="0px"
	 width="337.986px" height="66.126px" viewBox="0 0 337.986 66.126" enable-background="new 0 0 337.986 66.126"
	 xml:space="preserve">
<g>
	<g>
		<path fill="#FFFFFF" d="M108.471,53.798c0-1.336-0.361-1.797-0.361-1.797s-0.673,0-0.914,0c-0.405,0-0.853-0.064-1.167-0.284
			c-0.43-0.301-0.628-0.628-1.024-1.257c-0.415-0.658-2.719-4.389-2.719-4.389c1.751-0.547,3.296-1.311,4.393-3.719
			c0.613-1.349,0.833-3.506,0.833-5.324c0-1.86-0.208-5.507-1.847-7.312c-1.331-1.467-3.37-2.469-7.382-2.469H87.408v27.878
			c0,0,0.598,0.468,2.329,0.468s2.33-0.468,2.33-0.468v-8.572h5.532c0,0,3.776,6.111,4.447,7.182
			c0.57,0.909,1.045,1.217,1.673,1.503c0.533,0.242,1.164,0.355,1.831,0.355c0.869,0,2.56,0.001,2.56,0.001
			S108.471,55.134,108.471,53.798z M101.795,41.669c-1.071,1.27-2.975,1.248-4.657,1.324c0,0-1.968,0-2.649,0
			c-1.443,0.2-2.422,1.209-2.422,1.209v-13.39h4.938c0.499,0,1.212,0.014,1.468,0.02c1.037,0.038,2.407,0.309,3.099,1.063
			c1.192,1.308,1.223,2.975,1.223,4.843v0.206C102.795,39.162,102.578,40.742,101.795,41.669z"/>
		<path fill="#FFFFFF" d="M265.676,53.798c0-1.336-0.361-1.797-0.361-1.797s-0.673,0-0.914,0c-0.404,0-0.853-0.064-1.166-0.284
			c-0.43-0.301-0.628-0.628-1.024-1.257c-0.414-0.658-2.719-4.389-2.719-4.389c1.751-0.547,3.296-1.311,4.393-3.719
			c0.612-1.349,0.833-3.506,0.833-5.324c0-1.86-0.208-5.507-1.847-7.312c-1.331-1.467-3.37-2.469-7.382-2.469h-10.876v27.878
			c0,0,0.598,0.468,2.329,0.468s2.33-0.468,2.33-0.468v-8.572h5.531c0,0,3.776,6.111,4.447,7.182
			c0.57,0.909,1.045,1.217,1.674,1.503c0.533,0.242,1.163,0.355,1.83,0.355c0.869,0,2.561,0.001,2.561,0.001
			S265.676,55.134,265.676,53.798z M259,41.669c-1.071,1.27-2.975,1.248-4.656,1.324c0,0-1.969,0-2.649,0
			c-1.443,0.2-2.422,1.209-2.422,1.209v-13.39h4.938c0.498,0,1.212,0.014,1.468,0.02c1.037,0.038,2.407,0.309,3.099,1.063
			c1.191,1.308,1.223,2.975,1.223,4.843v0.206C260,39.162,259.783,40.742,259,41.669z"/>
		<path fill="#FFFFFF" d="M156.267,27.247h-17.458l0.002,27.879c0,0,0.598,0.468,2.329,0.468s2.33-0.468,2.33-0.468l-0.002-12.236
			h9.979c0,0,0.358-0.457,0.358-1.783c0-1.324-0.358-1.783-0.358-1.783s-6.249,0-7.563,0c-1.43,0.199-2.416,1.208-2.416,1.208
			v-9.719l12.8,0c0,0,0.358-0.458,0.358-1.782S156.267,27.247,156.267,27.247z"/>
		<path fill="#FFFFFF" d="M83.219,27.247H61.991c0,0-0.358,0.458-0.358,1.783s0.358,1.782,0.358,1.782h8.288v24.312
			c0,0,0.603,0.469,2.33,0.469s2.327-0.469,2.327-0.469V30.812h8.284c0,0,0.358-0.458,0.358-1.782S83.219,27.247,83.219,27.247z"/>
		<path fill="#FFFFFF" d="M337.627,27.247H316.4c0,0-0.358,0.458-0.358,1.783s0.358,1.782,0.358,1.782h8.287v24.312
			c0,0,0.603,0.469,2.33,0.469s2.326-0.469,2.326-0.469V30.812h8.284c0,0,0.358-0.458,0.358-1.782S337.627,27.247,337.627,27.247z"
			/>
		<path fill="#FFFFFF" d="M240.378,53.812c0-1.325-0.358-1.783-0.358-1.783h-13.676V42.89h10.854c0,0,0.359-0.457,0.359-1.783
			c0-1.324-0.359-1.781-0.359-1.781s-7.665,0-8.431,0c-1.451,0.197-2.423,1.207-2.423,1.207v-9.719l13.067-0.001
			c0,0,0.358-0.458,0.358-1.782s-0.358-1.783-0.358-1.783l-17.718,0.001v28.346l18.326,0.001
			C240.02,55.595,240.378,55.137,240.378,53.812z"/>
		<path fill="#FFFFFF" d="M314.327,53.812c0-1.325-0.358-1.783-0.358-1.783h-13.676V42.89h10.854c0,0,0.359-0.457,0.359-1.783
			c0-1.324-0.359-1.781-0.359-1.781s-7.665,0-8.431,0c-1.451,0.197-2.423,1.207-2.423,1.207v-9.719l13.067-0.001
			c0,0,0.358-0.458,0.358-1.782s-0.358-1.783-0.358-1.783l-17.718,0.001v28.346l18.326,0.001
			C313.968,55.595,314.327,55.137,314.327,53.812z"/>
		<path fill="#FFFFFF" d="M160.807,27.716c0,0,0.602-0.468,2.333-0.468s2.331,0.468,2.331,0.468v27.41c0,0-0.6,0.468-2.331,0.468
			s-2.333-0.468-2.333-0.468V27.716z"/>
		<path fill="#FFFFFF" d="M172.09,55.126c0,0,0.596,0.469,2.327,0.469s2.326-0.469,2.326-0.469V42.89h3.06
			c0,0,6.115,9.775,6.786,10.846c0.57,0.909,1.045,1.218,1.674,1.504c0.533,0.242,1.163,0.355,1.83,0.355h2.56
			c0,0,0.361-0.461,0.361-1.797s-0.361-1.797-0.361-1.797h-0.913c-0.404,0-0.853-0.064-1.166-0.283
			c-0.43-0.301-0.628-0.628-1.024-1.257c-0.414-0.658-5.925-9.513-5.925-9.513l8.751-13.701h-4.884l-7.86,12.328h-2.888V27.717
			c0,0-0.595-0.469-2.326-0.469s-2.327,0.469-2.327,0.469V55.126z"/>
		<path fill="#FFFFFF" d="M271,55.126c0,0,0.596,0.469,2.327,0.469s2.326-0.469,2.326-0.469V42.89h3.06
			c0,0,6.115,9.775,6.786,10.846c0.57,0.909,1.045,1.218,1.674,1.504c0.533,0.242,1.163,0.355,1.83,0.355h2.56
			c0,0,0.361-0.461,0.361-1.797s-0.361-1.797-0.361-1.797h-0.913c-0.404,0-0.853-0.064-1.166-0.283
			c-0.43-0.301-0.628-0.628-1.024-1.257c-0.414-0.658-5.925-9.513-5.925-9.513l8.751-13.701h-4.884l-7.86,12.328h-2.888V27.717
			c0,0-0.595-0.469-2.326-0.469S271,27.717,271,27.717V55.126z"/>
		<path fill="#FFFFFF" d="M217.112,33.414c0.148-1.729,0.196-4.127,0.208-5.697c0,0-0.638-0.469-2.48-0.469
			c-1.842,0-2.479,0.469-2.479,0.469c-0.021,1.574-0.131,4.125-0.278,6.996c-0.174,2.48-0.744,5.08-1.693,7.641
			c-1.145,3.1-4.067,8.437-4.067,8.437h-0.572c0,0-2.105-3.866-4.07-8.437c-0.646-1.508-1.592-5.778-1.688-7.662
			c-0.147-2.87-0.258-5.4-0.279-6.974c0,0-0.638-0.469-2.479-0.469c-1.843,0-2.48,0.469-2.48,0.469
			c0.012,1.57,0.06,3.959,0.208,5.689c0.15,1.492,0.447,4.563,1.266,6.811c1.669,4.584,7.814,15.379,7.814,15.379h3.982
			c0,0,6.221-10.795,7.826-15.379C216.588,38.101,216.927,35.511,217.112,33.414z"/>
		<g>
			<path fill="#FFFFFF" d="M129.935,55.126c-0.037-1.75-0.51-7.039-0.51-7.039h-12.462c0,0-0.476,5.137-0.537,7.039
				c0,0-0.535,0.469-2.271,0.469s-2.271-0.469-2.271-0.469c0-0.514,0.133-4.291,0.468-6.732c0.78-5.682,2.817-9.871,3.441-11.163
				c0.668-1.378,3.483-6.995,5.479-9.982h3.845c1.861,2.727,4.836,8.661,5.476,9.982c0.619,1.28,2.853,6.181,3.438,11.163
				c0.293,2.472,0.43,5.449,0.407,6.732c0,0-0.522,0.469-2.251,0.469S129.935,55.126,129.935,55.126z M122.905,32.055
				c-0.689,1.394-2.188,4.166-2.911,5.8c-1.026,2.312-2.053,5.275-2.584,7.875c0,0,1.009-1.01,2.459-1.211c1.253,0,8.812,0,8.812,0
				c-0.572-2.469-1.533-4.865-2.295-6.664c-0.871-2.057-2.248-4.525-2.899-5.8H122.905z"/>
		</g>
	</g>
	<g>
		<path fill="#FFFFFF" d="M22.95,66.126c14.705,0,21.375-10.859,21.806-14.084c-2.392,3.459-11.478,8.688-21.806,8.688
			c-10.327,0-19.411-5.229-21.808-8.688C1.575,55.267,8.245,66.126,22.95,66.126z"/>
		<path fill="#FFFFFF" d="M22.95,2.015c-0.304,0-0.561,0.25-0.561,0.559c0,0.31,0.256,0.564,0.561,0.564
			c0.311,0,0.566-0.254,0.566-0.564C23.516,2.265,23.26,2.015,22.95,2.015z"/>
		<polygon fill="#FFFFFF" points="22.95,10.592 22.95,10.592 22.95,10.592 		"/>
		<g>
			<path fill="#FFFFFF" d="M26.082,10.901c0-0.102,0.168-0.218,0.327-0.218c3.607,1.515,6.875,4.092,9.028,6.677
				c1.45,1.74,2.346,3.912,1.984,5.828c-0.303,1.604-1.717,2.731-3.32,2.506c-1.617-0.224-2.693-1.704-2.502-3.323
				c0.193-1.704,1.891-2.434,1.891-2.434C32.296,15.419,29.081,12.491,26.082,10.901z"/>
			<path fill="#FFFFFF" d="M19.816,10.901c0-0.102-0.168-0.218-0.327-0.218c-3.607,1.515-6.875,4.092-9.028,6.677
				c-1.449,1.74-2.346,3.912-1.984,5.828c0.303,1.604,1.717,2.731,3.32,2.506c1.617-0.224,2.693-1.704,2.502-3.323
				c-0.193-1.704-1.891-2.434-1.891-2.434C13.602,15.419,16.817,12.491,19.816,10.901z"/>
			<path fill="#FFFFFF" d="M22.584,11.729c-0.91,2.885-2.635,8.707-2.635,10.472c0,1.766,1.236,3.196,3,3.196
				c1.765,0,3.002-1.431,3.002-3.196c0-1.765-1.727-7.587-2.638-10.472C23.149,11.607,22.773,11.607,22.584,11.729z"/>
		</g>
		<path fill="#FFFFFF" d="M27.111,34.892c2.205,0,9.688,0.224,9.688,0.224c2.677-0.812,4.036-2.68,4.479-6.053
			c0,0-8.572-0.398-18.327-0.398S4.699,29.062,4.699,29.062c0.438,3.374,1.799,5.242,4.474,6.053c0,0,7.481-0.224,9.689-0.224
			v17.225c0,0.852,1.869,2.061,4.088,2.061c2.22,0,4.161-1.197,4.161-2.061c0,0,0-11.465,0-12.879
			c-0.914-2.896-3.334-4.319-3.34-4.368L27.111,34.892z"/>
	</g>
	<g>
		<g>
			<path fill="#FFFFFF" d="M22.95,1.52c0.421,0,0.762-0.341,0.762-0.761C23.711,0.337,23.371,0,22.95,0
				c-0.412,0-0.753,0.337-0.753,0.759C22.197,1.178,22.538,1.52,22.95,1.52z"/>
			<path fill="#FFFFFF" d="M21.141,3.335c0.419,0,0.753-0.342,0.753-0.761c0-0.415-0.333-0.758-0.753-0.758
				c-0.423,0-0.762,0.343-0.762,0.758C20.379,2.993,20.718,3.335,21.141,3.335z"/>
			<path fill="#FFFFFF" d="M24.773,3.335c0.419,0,0.754-0.342,0.754-0.761c0-0.415-0.335-0.758-0.754-0.758
				c-0.422,0-0.761,0.343-0.761,0.758C24.012,2.993,24.351,3.335,24.773,3.335z"/>
		</g>
		<path fill="#FFFFFF" d="M6.156,45.333c0,0-1.16-4.645-5.262-4.433c-1.572,3.008-0.908,6.134,0.991,9.041
			c1.692,2.579,5.951,5.423,8.978,5.816C10.863,55.758,4.319,50.982,6.156,45.333z"/>
		<path fill="#FFFFFF" d="M39.743,45.333c0,0,1.163-4.645,5.263-4.433c1.573,3.008,0.908,6.14-0.991,9.041
			c-1.691,2.579-5.951,5.423-8.977,5.816C35.038,55.758,41.581,50.982,39.743,45.333z"/>
		<path fill="#FFFFFF" d="M22.95,5.152c0.421,0,0.762-0.341,0.762-0.759c0-0.42-0.341-0.762-0.762-0.762
			c-0.412,0-0.753,0.341-0.753,0.762C22.197,4.811,22.538,5.152,22.95,5.152z"/>
		<path fill="#FFFFFF" d="M22.95,9.631c1.119,0,2.024-0.901,2.024-2.016c0-1.122-0.906-2.02-2.024-2.02
			c-1.112,0-2.021,0.897-2.021,2.02C20.929,8.73,21.837,9.631,22.95,9.631z"/>
		<path fill="#FFFFFF" d="M45.9,18.207c-3.321-3.865-9.81-7.219-18.304-8.759c-0.096,0.043-0.183,0.117-0.173,0.25
			c7.993,2.104,12.24,5.097,16.125,9.421c-1.139,0.336-2.111,1.181-2.568,2.375c-0.72,1.871,0.198,3.872,2.188,4.9L45.9,18.207z"/>
		<path fill="#FFFFFF" d="M0,18.207c3.32-3.865,9.807-7.219,18.304-8.759c0.098,0.043,0.183,0.117,0.174,0.25
			c-7.994,2.104-12.242,5.097-16.127,9.421c1.138,0.336,2.112,1.181,2.569,2.375c0.719,1.871-0.199,3.872-2.191,4.9L0,18.207z"/>
	</g>
</g>
</svg>
