<?xml version="1.0" encoding="utf-8"?>
<!-- Generator: Adobe Illustrator 15.0.2, SVG Export Plug-In . SVG Version: 6.00 Build 0)  -->
<!DOCTYPE svg PUBLIC "-//W3C//DTD SVG 1.1//EN" "http://www.w3.org/Graphics/SVG/1.1/DTD/svg11.dtd">
<svg version="1.1" id="Lager_1" xmlns="http://www.w3.org/2000/svg" xmlns:xlink="http://www.w3.org/1999/xlink" x="0px" y="0px"
	 width="147.702px" height="56.939px" viewBox="0 0 147.702 56.939" enable-background="new 0 0 147.702 56.939"
	 xml:space="preserve">
<g>
	<path fill="#FFFFFF" d="M16.921,18.207l-2.509,4.658c-0.584-0.467-1.233-0.837-1.947-1.111c-0.712-0.274-1.458-0.414-2.234-0.421
		c-0.62,0-1.215,0.161-1.786,0.482c-0.571,0.321-0.878,0.805-0.918,1.448c0.015,0.446,0.176,0.811,0.483,1.096
		c0.308,0.285,0.676,0.515,1.105,0.688c0.428,0.174,0.832,0.314,1.211,0.422l1.608,0.46c1.728,0.445,3.146,1.148,4.259,2.11
		c1.111,0.962,1.687,2.362,1.725,4.202c0.016,1.167-0.16,2.295-0.531,3.387c-0.369,1.09-1.029,2.033-1.978,2.834
		c-0.965,0.76-2.044,1.313-3.237,1.662c-1.193,0.348-2.409,0.518-3.647,0.514c-1.537-0.008-3.03-0.239-4.479-0.697
		C2.596,39.48,1.248,38.834,0,38.002l2.702-4.843c0.788,0.677,1.648,1.239,2.581,1.688c0.934,0.449,1.938,0.685,3.016,0.701
		c0.775,0.004,1.47-0.182,2.084-0.556c0.613-0.375,0.938-0.967,0.973-1.772c-0.021-0.557-0.253-1.008-0.692-1.352
		c-0.438-0.344-0.953-0.615-1.542-0.812C8.531,30.86,8,30.703,7.527,30.586c-1.326-0.336-2.48-0.728-3.46-1.175
		c-0.979-0.448-1.739-1.085-2.28-1.91c-0.541-0.825-0.814-1.973-0.822-3.443c0.014-1.571,0.377-2.936,1.09-4.093
		c0.712-1.157,1.694-2.055,2.947-2.69c1.252-0.637,2.694-0.96,4.327-0.969c1.251,0.007,2.553,0.178,3.904,0.514
		C14.586,17.157,15.814,17.619,16.921,18.207z"/>
	<path fill="#FFFFFF" d="M41.521,21.511v5.76h0.611c0.702,0.012,1.385-0.052,2.049-0.188c0.665-0.138,1.214-0.413,1.649-0.829
		s0.661-1.037,0.677-1.863c-0.016-0.827-0.241-1.447-0.677-1.863s-0.984-0.691-1.649-0.828c-0.664-0.137-1.347-0.2-2.049-0.188
		L41.521,21.511L41.521,21.511z M47.762,30.549l7.624,9.467h-7.85l-5.951-8.885h-0.064v8.885h-6.306V16.915h9.426
		c1.613-0.003,3.052,0.245,4.315,0.747c1.264,0.501,2.262,1.277,2.993,2.326c0.731,1.05,1.104,2.395,1.12,4.036
		c-0.006,1.629-0.461,3.042-1.363,4.239C50.803,29.461,49.488,30.221,47.762,30.549z M29.121,22.007v18.016h-6.305V22.007h-5.211
		v-5.086h16.727v5.086H29.121z"/>
	<path fill="#FFFFFF" d="M85.702,21.478v4.474h0.708c0.873,0.029,1.65-0.099,2.332-0.384c0.681-0.284,1.04-0.902,1.076-1.854
		c-0.012-0.692-0.203-1.199-0.57-1.52c-0.367-0.319-0.83-0.522-1.387-0.606c-0.559-0.085-1.127-0.122-1.709-0.11H85.702z
		 M89.111,39.985h-9.715V16.882h9.008c2.187-0.026,3.926,0.424,5.22,1.348c1.293,0.925,1.955,2.477,1.985,4.657
		c0.012,1.049-0.188,1.977-0.6,2.785c-0.41,0.808-1.101,1.452-2.07,1.934v0.062c1.728,0.231,2.985,0.863,3.779,1.896
		c0.795,1.032,1.186,2.36,1.176,3.987c-0.026,1.604-0.457,2.877-1.291,3.82c-0.834,0.941-1.914,1.616-3.242,2.02
		C92.035,39.797,90.618,39.995,89.111,39.985z M85.702,30.424v4.965h0.804c0.648,0.017,1.359-0.008,2.131-0.071
		s1.438-0.269,2.002-0.614c0.563-0.347,0.858-0.936,0.887-1.766c-0.025-0.909-0.32-1.54-0.887-1.891
		c-0.562-0.354-1.242-0.549-2.035-0.592c-0.793-0.041-1.545-0.052-2.258-0.031H85.702z M68.875,31.413l-2.574-7.354h-0.064
		l-2.605,7.354H68.875z M70.579,36.008h-8.686l-1.673,4.015h-6.691l9.329-23.103h6.885l9.136,23.103h-6.724L70.579,36.008z"/>
	<path fill="#FFFFFF" d="M112.955,31.413l-2.573-7.354h-0.063l-2.605,7.354H112.955z M114.66,36.008h-8.686l-1.674,4.015h-6.691
		l9.33-23.103h6.885l9.136,23.103h-6.724L114.66,36.008z"/>
	<path fill="#FFFFFF" d="M135.188,27.123h12.515c0.004,1.675-0.147,3.258-0.454,4.749c-0.307,1.491-0.98,2.952-2.021,4.383
		c-1.205,1.568-2.664,2.719-4.375,3.451c-1.713,0.729-3.59,1.092-5.631,1.082c-2.56-0.016-4.807-0.531-6.74-1.547
		c-1.936-1.018-3.445-2.436-4.533-4.259c-1.086-1.822-1.639-3.952-1.658-6.389c0.02-2.517,0.576-4.704,1.674-6.562
		c1.1-1.857,2.633-3.298,4.6-4.321s4.262-1.542,6.886-1.558c2.506,0,4.69,0.537,6.554,1.612c1.863,1.076,3.324,2.694,4.385,4.854
		l-5.984,2.39c-0.439-1.118-1.104-2.007-1.994-2.666c-0.891-0.658-1.973-0.995-3.249-1.011c-1.384,0.024-2.544,0.395-3.479,1.107
		c-0.936,0.714-1.641,1.623-2.113,2.729c-0.475,1.104-0.711,2.257-0.713,3.457c0.002,1.216,0.248,2.373,0.737,3.466
		c0.489,1.096,1.209,1.99,2.16,2.687c0.95,0.694,2.118,1.056,3.504,1.078c1.394,0,2.55-0.337,3.472-1.007
		c0.92-0.672,1.459-1.674,1.611-3.008h-5.146v-4.717H135.188z"/>
	<rect fill="#FFFFFF" width="147.702" height="10.152"/>
	<rect y="46.788" fill="#FFFFFF" width="147.702" height="10.151"/>
</g>
</svg>
