<?xml version="1.0" encoding="utf-8"?>
<!-- Generator: Adobe Illustrator 15.0.2, SVG Export Plug-In . SVG Version: 6.00 Build 0)  -->
<!DOCTYPE svg PUBLIC "-//W3C//DTD SVG 1.1//EN" "http://www.w3.org/Graphics/SVG/1.1/DTD/svg11.dtd">
<svg version="1.1" id="Lager_1" xmlns="http://www.w3.org/2000/svg" xmlns:xlink="http://www.w3.org/1999/xlink" x="0px" y="0px"
	 width="122.445px" height="26.475px" viewBox="0 0 122.445 26.475" enable-background="new 0 0 122.445 26.475"
	 xml:space="preserve">
<g>
	<g>
		<g>
			<path fill-rule="evenodd" clip-rule="evenodd" fill="#FFFFFF" d="M91.26,0c1.08,0,2.16,0,3.24,0c-0.096,0.197,0.32,0.197,0.225,0
				c0.18,0,0.36,0,0.54,0c-0.085,0.224,0.47,0.181,0.27,0c0.03,0,0.061,0,0.091,0c0.246,0.389,0.144,0.846,0.135,1.305
				c-0.01,0.486,0.045,1.016,0.045,1.53c-0.001,7.003,0.135,14.629-0.045,21.33c-0.014,0.505,0.089,1.014-0.09,1.485
				c-0.913,0.181-1.915,0.355-2.971,0.494c-0.51,0.067-1.08,0.049-1.62,0.091c-0.559,0.043-1.088,0.135-1.619,0.135
				c-1.413,0-2.735-0.001-3.96-0.271c-0.251-0.055-0.483-0.087-0.721-0.135c-1.709-0.343-2.959-1.272-4.095-2.07
				c-0.272-0.508-0.727-0.851-1.035-1.35c-0.152-0.246-0.308-0.502-0.45-0.765c-0.139-0.258-0.2-0.578-0.404-0.811
				c0.021-0.333-0.19-0.607-0.271-0.899c-0.091-0.334,0.016-0.684-0.18-0.945c-0.113-1.495-0.3-2.965,0-4.23
				c0.104-0.443,0.154-0.857,0.27-1.26c0.296-1.026,0.789-2.062,1.351-2.79c0.067-0.087,0.148-0.095,0.225-0.18
				c0.246-0.276,0.423-0.629,0.675-0.855c0.103-0.091,0.245-0.137,0.36-0.225c0.355-0.272,0.686-0.53,1.08-0.765
				c0.619-0.368,1.476-0.699,2.16-0.9C85,7.763,85.494,7.704,86.04,7.65c0.729-0.072,1.502-0.249,2.25-0.226
				c0.857,0.027,1.766,0.332,2.745,0.181c0.105-2.341,0.016-4.875,0.045-7.29c0.056-0.096,0.17-0.131,0.181-0.271
				C91.26,0.03,91.26,0.015,91.26,0z M89.235,10.845c-0.479-0.011-1.147,0.001-1.484,0.045c-0.475,0.063-1.17,0.191-1.53,0.315
				c-0.907,0.312-1.429,0.622-1.936,1.215c-0.236,0.277-0.413,0.455-0.585,0.765c-0.08,0.145-0.187,0.314-0.225,0.405
				c-0.078,0.186-0.069,0.437-0.135,0.675c-0.061,0.217-0.185,0.424-0.226,0.63c-0.071,0.36-0.112,0.887-0.135,1.351
				c-0.037,0.778,0.024,1.533,0.09,2.115c0.028,0.246,0.003,0.53,0.045,0.72c0.036,0.159,0.167,0.365,0.226,0.54
				c0.073,0.221,0.103,0.455,0.18,0.63c0.248,0.563,0.705,0.998,1.035,1.53c0.516,0.255,1.091,0.755,1.845,0.944
				c0.235,0.06,0.505,0.04,0.765,0.091c0.255,0.049,0.479,0.158,0.721,0.18c0.565,0.049,1.2,0.035,1.755,0
				c0.51-0.033,1.02-0.116,1.395-0.271c0.082-3.286,0.045-6.946,0.045-10.26c0-0.459,0.052-0.922-0.045-1.35
				C90.52,10.913,89.861,10.858,89.235,10.845z"/>
			<path fill-rule="evenodd" clip-rule="evenodd" fill="#FFFFFF" d="M99.405,0c0.12,0,0.24,0,0.36,0
				c-0.076,0.186,0.211,0.186,0.135,0c1.32,0,2.64,0,3.96,0c0.125,0.613,0.09,1.381,0.09,2.16c0,0.763,0.098,1.593-0.135,2.16
				c-0.674,0.081-1.465,0.045-2.25,0.045c-0.768,0-1.562,0.068-2.16-0.045C99.28,3.673,99.376,2.89,99.36,2.115
				C99.344,1.376,99.301,0.614,99.405,0z"/>
			<path fill-rule="evenodd" clip-rule="evenodd" fill="#FFFFFF" d="M0,9.225c0-0.39,0-0.779,0-1.17c0.03,0,0.06,0,0.09,0
				c0.151-0.814,0.201-1.565,0.45-2.25c0.093-0.256,0.29-0.543,0.45-0.81C1.16,4.712,1.3,4.408,1.485,4.185
				c0.392-0.472,0.882-0.854,1.395-1.17C3.395,2.697,3.966,2.373,4.59,2.16C5.061,1.999,5.633,1.94,6.12,1.8
				c0.19-0.055,0.313-0.151,0.495-0.18c0.196-0.03,0.415-0.022,0.63-0.045c0.622-0.066,1.292-0.111,1.98-0.135
				c0.884-0.031,1.842-0.079,2.745,0c0.307,0.026,0.626,0.151,0.945,0.18c0.326,0.028,0.64,0.01,0.945,0.045
				c0.297,0.034,0.52,0.125,0.81,0.18c0.582,0.11,1.182,0.06,1.62,0.405c0.08,0.806-0.014,1.84,0,2.61
				c0.005,0.295,0.11,0.639-0.09,0.854c-2.184-0.408-5.439-0.9-7.83-0.495C7.918,5.297,7.579,5.341,7.29,5.445
				C6.854,5.603,6.542,5.702,6.21,5.85C6.052,6.064,5.801,6.186,5.625,6.39C5.551,6.476,5.486,6.598,5.4,6.705
				c-0.27,0.337-0.211,0.354-0.315,0.9c-0.048,0.251-0.183,0.429-0.18,0.63c0.003,0.228,0.188,0.906,0.27,1.08
				c0.224,0.47,0.601,0.887,0.99,1.125c0.157,0.096,0.354,0.196,0.495,0.27c0.36,0.187,0.8,0.203,1.08,0.495
				c1.096,0.144,2.247,0.576,3.24,0.81c0.7,0.165,1.289,0.33,1.935,0.54c1.657,0.539,3.088,1.269,4.095,2.476
				c0.092,0.111,0.132,0.279,0.27,0.359c0.243,0.502,0.458,1.03,0.63,1.62c0.09,0.311,0.101,0.6,0.135,0.99
				c0.029,0.327,0.141,0.671,0.135,0.99c-0.01,0.523-0.138,1.07-0.225,1.529c-0.189,0.998-0.52,1.853-0.99,2.521
				c-0.238,0.338-0.538,0.604-0.855,0.9c-0.313,0.291-0.602,0.591-0.945,0.81c-0.707,0.45-1.583,0.835-2.43,1.08
				c-0.241,0.069-0.505,0.081-0.765,0.135c-0.241,0.05-0.442,0.178-0.675,0.226c-0.283,0.058-0.631,0.044-0.945,0.09
				c-1.417,0.206-3.489,0.243-5.085,0.135c-0.314-0.021-0.616-0.144-0.945-0.18c-0.389-0.044-0.793,0.006-1.17-0.045
				c-0.497-0.068-0.99-0.188-1.485-0.271c-0.48-0.081-0.973-0.205-1.44-0.314c-0.013-0.548,0-1.269,0-1.936
				c0-0.677-0.118-1.335,0.09-1.755c0.448,0.077,1.208,0.128,1.665,0.315c0.177,0.072,0.431,0.057,0.63,0.09
				c0.268,0.044,0.501,0.14,0.765,0.18c0.3,0.046,0.621,0.001,0.945,0.045c0.258,0.035,0.542,0.143,0.81,0.18
				c0.633,0.089,1.309,0.075,1.935,0.091c1.011,0.023,2.055-0.044,2.79-0.226c0.688-0.169,1.097-0.291,1.62-0.495
				c0.482-0.328,0.933-0.687,1.305-1.125c0.179-0.634,0.468-1.181,0.36-1.935c-0.103-0.718-0.634-1.265-0.945-1.71
				c-0.299-0.062-0.515-0.205-0.675-0.405c-0.62-0.175-1.178-0.412-1.8-0.585c-0.241-0.217-0.585-0.188-0.9-0.27
				c-0.3-0.079-0.623-0.278-0.99-0.226c-0.433-0.235-0.907-0.32-1.35-0.45c-0.464-0.136-0.914-0.27-1.35-0.449
				c-1.679-0.692-3.408-1.485-4.23-2.971c-0.259-0.469-0.642-1.324-0.72-1.979C0.144,9.686,0.254,9.218,0,9.225z"/>
			<path fill-rule="evenodd" clip-rule="evenodd" fill="#FFFFFF" d="M35.685,7.965c0.164,0.394,0.051,0.81,0.045,1.215
				c-0.01,0.67,0.124,1.342-0.045,1.891c-1.589,0.03-3.22-0.285-4.815-0.136c-0.201,0.02-0.423,0.066-0.63,0.091
				c-0.232,0.026-0.465,0.012-0.675,0.045c-0.207,0.032-0.442,0.162-0.675,0.225c-0.265,0.07-0.504,0.092-0.72,0.18
				c-1.1,0.449-1.757,1.14-2.385,2.07c-0.141,0.425-0.221,0.866-0.36,1.44c-0.044,0.182-0.157,0.373-0.18,0.54
				c-0.104,0.77-0.062,1.729,0,2.475c0.086,1.046,0.474,1.936,0.765,2.61c0.045,0.149,0.249,0.141,0.225,0.359
				c0.364,0.342,0.734,0.676,1.125,0.99c0.461,0.215,0.972,0.378,1.395,0.63c1.043,0.132,2.396,0.405,3.69,0.405
				c1.118,0,2.228-0.339,3.285-0.271c0.108,0.415,0.045,1.016,0.045,1.62c0,0.578,0.057,1.173-0.045,1.575
				c-1.722,0.352-4.271,0.61-6.3,0.495c-0.313-0.018-0.602-0.133-0.9-0.18c-0.416-0.066-0.825-0.015-1.215-0.091
				c-0.416-0.08-0.835-0.277-1.26-0.404c-1.564-0.468-2.91-1.374-3.825-2.565c-0.294-0.383-0.625-0.764-0.81-1.125
				c-0.133-0.261-0.2-0.601-0.315-0.899c-0.167-0.433-0.352-0.81-0.45-1.306c-0.068-0.345-0.118-0.675-0.18-0.989
				c-0.098-0.495-0.133-1.193-0.135-1.891c-0.001-0.529-0.028-1.191,0.045-1.755c0.029-0.229,0.176-0.431,0.225-0.675
				c0.093-0.465,0.09-0.989,0.225-1.396c0.104-0.312,0.303-0.64,0.45-0.944c0.148-0.308,0.332-0.59,0.45-0.9
				c0.633-0.739,1.245-1.494,2.07-2.07c0.561-0.391,1.302-0.78,2.07-1.034c0.261-0.087,0.524-0.205,0.765-0.271
				c0.193-0.053,0.441-0.039,0.675-0.09c0.205-0.045,0.391-0.156,0.585-0.18c0.207-0.026,0.416,0.022,0.63,0
				c0.167-0.019,0.334-0.111,0.495-0.136c0.542-0.079,1.281-0.08,1.8-0.09c0.947-0.017,2.009,0.143,3.015,0.226
				C34.481,7.703,35.088,7.92,35.685,7.965z"/>
			<path fill-rule="evenodd" clip-rule="evenodd" fill="#FFFFFF" d="M54.72,25.965c-0.746,0.17-1.56,0.174-2.43,0.226
				c-0.809,0.047-1.661,0.146-2.52,0.18c-1.792,0.071-3.695,0.182-5.355,0c-0.316-0.035-0.619-0.107-0.945-0.135
				c-0.303-0.025-0.665-0.03-0.945-0.091c-0.126-0.026-0.13-0.077-0.27-0.135c-0.101-0.041-0.216-0.01-0.315-0.045
				c-0.379-0.133-0.897-0.317-1.305-0.495c-0.216-0.094-0.327-0.124-0.54-0.27c-0.248-0.17-0.52-0.431-0.765-0.675
				c-0.173-0.173-0.373-0.387-0.45-0.495c-0.234-0.331-0.415-0.863-0.585-1.396c-0.428-1.34-0.402-3.555,0.315-4.814
				c0.054-0.096,0.158-0.212,0.225-0.315c0.575-0.894,1.571-1.422,2.61-1.935c0.648-0.089,1.285-0.236,1.98-0.36
				c1.969-0.353,4.405-0.131,6.66-0.27c0.142-0.892,0.03-1.962-0.225-2.745c-0.265-0.326-0.541-0.744-0.945-0.945
				c-0.222-0.11-0.557-0.158-0.855-0.225c-1.264-0.285-3.54-0.287-5.13-0.136c-0.305,0.029-0.591,0.139-0.9,0.181
				c-0.329,0.044-0.647,0.035-0.945,0.09c-0.66,0.121-1.264,0.229-1.8,0.225c-0.121-0.884-0.033-2.094-0.045-3.104
				c0.426-0.282,0.987-0.346,1.53-0.405c0.537-0.059,1.097-0.179,1.665-0.225c0.582-0.048,1.196-0.039,1.8-0.091
				c1.249-0.105,2.365-0.161,3.645-0.045c0.563,0.052,1.105,0.079,1.62,0.136c0.197,0.021,0.384,0.143,0.585,0.18
				c0.229,0.042,0.469,0,0.675,0.045c0.307,0.067,0.751,0.271,1.08,0.405c0.572,0.231,1.087,0.62,1.53,1.035
				c0.134,0.125,0.303,0.278,0.405,0.404c0.429,0.53,0.898,1.705,0.99,2.565c0.117,1.096,0.045,2.274,0.045,3.465
				c0,2.211,0,4.664,0,6.93C54.81,23.825,54.873,24.93,54.72,25.965z M45.54,18.045c-0.203,0.021-0.417,0.139-0.63,0.18
				c-0.257,0.051-0.54,0.023-0.72,0.091c-0.119,0.044-0.273,0.174-0.405,0.27c-0.339,0.247-0.527,0.495-0.765,0.765
				c-0.093,0.872-0.226,1.755,0.045,2.476c0.125,0.333,0.42,0.525,0.54,0.81c0.321,0.146,0.617,0.329,0.99,0.45
				c0.761,0.247,1.961,0.225,3.015,0.225c0.913,0,1.826-0.009,2.475-0.18c0.097-0.695,0.045-1.615,0.045-2.52
				c0-0.901,0.049-1.826-0.045-2.521C48.674,18.116,46.932,17.901,45.54,18.045z"/>
			<path fill-rule="evenodd" clip-rule="evenodd" fill="#FFFFFF" d="M122.445,10.8c0,0.045,0,0.09,0,0.135
				c-0.142-0.021-0.184,0.057-0.225,0.136c-1.457,0.038-3.065-0.27-4.635-0.136c-1.403,0.12-2.623,0.344-3.601,0.9
				c-0.182,0.118-0.275,0.325-0.54,0.36c-0.37,0.439-0.772,0.847-1.08,1.35c-0.563,1.341-0.679,3.159-0.495,4.815
				c0.063,0.566,0.085,0.814,0.271,1.26c0.147,0.354,0.283,0.697,0.495,1.035c0.24,0.383,0.497,0.614,0.765,0.944
				c0.787,0.468,1.606,0.916,2.61,1.125c0.223,0.047,0.468,0.015,0.72,0.045c0.194,0.024,0.392,0.114,0.585,0.136
				c1.729,0.188,3.369-0.182,5.13-0.136c0,1.035,0,2.07,0,3.105c-1.946,0.37-4.244,0.704-6.615,0.54
				c-0.325-0.022-0.655-0.134-0.989-0.18c-0.376-0.053-0.744-0.064-1.08-0.136c-0.373-0.079-0.578-0.159-0.9-0.27
				c-0.798-0.273-1.454-0.521-2.07-0.9c-0.205-0.126-0.39-0.266-0.585-0.404c-0.098-0.07-0.227-0.112-0.314-0.181
				c-0.091-0.069-0.135-0.187-0.226-0.27c-0.361-0.334-0.783-0.64-1.034-0.99c-0.132-0.184-0.188-0.42-0.315-0.63
				c-0.121-0.2-0.301-0.383-0.405-0.585c-0.225-0.436-0.271-0.967-0.585-1.396c-0.179-1.046-0.443-2.265-0.449-3.51
				c-0.007-1.255,0.177-2.483,0.449-3.51c0.22-0.472,0.329-0.991,0.54-1.44c0.092-0.195,0.27-0.377,0.405-0.585
				c0.422-0.646,0.759-1.048,1.305-1.574c0.813-0.783,1.944-1.343,3.061-1.711c0.127-0.042,0.274-0.037,0.404-0.09
				c0.125-0.05,0.192-0.147,0.315-0.18c0.273-0.071,0.636-0.074,0.945-0.135c0.91-0.178,1.981-0.318,2.925-0.315
				c0.865,0.003,1.755,0.125,2.61,0.181c0.426,0.027,0.823,0.105,1.215,0.18c0.408,0.077,0.808,0.091,1.17,0.18
				c0.082,0.533,0.049,1.637,0.045,2.16C122.263,10.444,122.175,10.82,122.445,10.8z"/>
			<path fill-rule="evenodd" clip-rule="evenodd" fill="#FFFFFF" d="M75.195,26.055c-1.284,0.004-3.126,0.004-4.41,0
				c-0.161-0.918-0.09-1.956-0.09-3.015c0-2.003,0-4.155,0-6.21c0-1.098,0.103-2.188,0-3.105c-0.018-0.157-0.106-0.33-0.135-0.494
				c-0.033-0.19,0.001-0.378-0.045-0.54c-0.128-0.454-0.534-0.738-0.765-1.125c-1.652-0.96-4.69-0.577-6.705-0.181
				c-0.162,0.567-0.091,1.204-0.091,1.8c0,3.654,0,7.481,0,11.205c0,0.56,0.087,1.163-0.09,1.665c-0.883,0.009-2.279,0-3.465,0
				c-0.385,0-0.745,0.062-1.035-0.045c-0.082-5.03-0.045-10.355-0.045-15.524c0-0.7-0.051-1.402,0.045-2.07
				c2.231-0.416,5.271-0.657,7.965-0.855c1.452-0.106,3.425-0.069,4.681,0.226c0.785,0.185,1.704,0.504,2.295,0.945
				c0.168,0.125,0.275,0.325,0.45,0.494c0.304,0.296,0.543,0.485,0.81,0.855c0.073,0.316,0.169,0.61,0.36,0.81
				c0.012,0.318,0.074,0.586,0.225,0.766c0.224,2.262,0.135,5.161,0.135,7.83c0,1.122,0,2.231,0,3.33
				C75.285,23.915,75.358,25.018,75.195,26.055z"/>
			<path fill-rule="evenodd" clip-rule="evenodd" fill="#FFFFFF" d="M99.495,7.875c1.271,0.066,3.099-0.121,4.365,0.09
				c0.175,0.293,0.095,0.667,0.09,0.99c-0.062,4.11,0,8.417,0,12.6c0,1.51,0.073,3.023-0.09,4.455
				c-0.688,0.082-1.496,0.045-2.295,0.045c-0.769,0-1.561,0.069-2.16-0.045c-0.115-0.706-0.045-1.451-0.045-2.205
				c0-3.719,0-7.788,0-11.564c0-1.515-0.039-2.934,0-4.23C99.385,7.945,99.43,7.9,99.495,7.875z"/>
		</g>
	</g>
</g>
</svg>
