<?xml version="1.0" encoding="utf-8"?>
<!-- Generator: Adobe Illustrator 15.0.2, SVG Export Plug-In . SVG Version: 6.00 Build 0)  -->
<!DOCTYPE svg PUBLIC "-//W3C//DTD SVG 1.1//EN" "http://www.w3.org/Graphics/SVG/1.1/DTD/svg11.dtd">
<svg version="1.1" id="Lager_1" xmlns="http://www.w3.org/2000/svg" xmlns:xlink="http://www.w3.org/1999/xlink" x="0px" y="0px"
	 width="749.62px" height="176.548px" viewBox="0 0 749.62 176.548" enable-background="new 0 0 749.62 176.548"
	 xml:space="preserve">
<g>
	<g>
		<path fill="#FFFFFF" d="M169.101,161.484l10.801-11.062c5.464,6.925,10.92,10.927,18.787,10.927
			c8.797,0,14.796-5.867,14.796-18.256V82.36h16.795v61.129c0,11.066-3.191,19.329-8.663,24.789
			c-5.46,5.465-13.327,8.268-22.663,8.268C184.565,176.546,175.229,169.878,169.101,161.484z"/>
		<path fill="#FFFFFF" d="M250.942,145.691c0.744,10.95,10.449,17.049,19.781,16.926c7.96,0,13.312-3.61,16.421-9.213h16.795
			c-3.233,7.591-8.083,13.316-13.809,17.177c-5.722,3.977-12.441,5.965-19.534,5.965c-21.026,0-36.08-17.042-36.08-36.08
			c0-19.41,15.181-36.456,35.833-36.456c10.203,0,19.161,3.86,25.507,10.457c8.334,8.58,11.447,19.28,10.079,31.225H250.942z
			 M289.88,133.25c-0.621-6.47-7.467-15.555-19.404-15.428c-12.071,0-18.664,8.704-19.284,15.428H289.88z"/>
		<path fill="#FFFFFF" d="M310.943,106.129h15.428v8.954c2.989-6.096,8.588-10.95,18.914-11.073v16.421h-0.748
			c-11.447,0-17.292,5.352-17.292,17.173v36.827h-16.302V106.129z"/>
		<path fill="#FFFFFF" d="M349.224,106.129h15.297c0,2.985,0,5.845-0.12,9.085c2.99-5.355,9.082-11.324,21.272-11.204
			c22.274,0.123,26.501,17.173,26.501,29.24v41.181h-16.298v-37.077c0-10.199-3.356-18.036-14.8-18.036
			c-11.574,0.123-15.554,7.837-15.554,17.415v37.698h-16.298V106.129z"/>
		<path fill="#FFFFFF" d="M418.538,82.36h16.299v22.147v9.705c3.86-7.213,12.07-10.322,20.154-10.202
			c10.576,0,17.169,3.61,21.152,9.578c4.104,5.976,5.349,14.063,5.349,23.269v37.574h-16.298v-36.827
			c0-5.229-0.875-9.705-3.113-12.938c-2.362-3.236-6.096-5.348-11.817-5.348c-6.469,0-10.326,2.608-12.564,5.969
			c-2.239,3.363-2.862,7.463-2.862,10.949v38.195h-16.299V82.36z"/>
		<path fill="#FFFFFF" d="M550.803,174.431h-15.304v-9.078c-2.863,5.348-8.959,11.316-21.276,11.193
			c-22.39-0.116-26.62-17.169-26.62-29.109v-41.308h16.294v37.192c0,10.083,3.356,18.051,14.935,17.924
			c11.689,0,15.674-7.721,15.674-17.423v-37.693h16.298V174.431z"/>
		<path fill="#FFFFFF" d="M588.639,124.542c-0.124-3.61-1.992-7.344-8.334-7.344c-5.476,0-8.088,3.49-8.088,6.847
			c0.124,4.351,5.102,6.716,11.567,8.585c10.949,2.985,22.767,6.219,22.897,20.895c0.243,14.062-11.574,23.021-25.88,23.021
			c-10.576,0-24.883-5.472-26.127-22.023h16.298c0.62,7.347,6.97,8.834,10.075,8.834c5.105,0,9.455-3.352,9.332-7.96
			c0-5.853-5.102-7.471-17.666-11.817c-9.208-2.866-16.668-7.964-16.795-17.797c0-13.435,11.32-21.772,24.509-21.772
			c9.208,0,22.895,4.107,24.259,20.532H588.639z"/>
		<path fill="#FFFFFF" d="M626.216,145.691c0.748,10.95,10.453,17.049,19.785,16.926c7.961,0,13.312-3.61,16.422-9.213h16.795
			c-3.236,7.591-8.084,13.316-13.81,17.177c-5.722,3.977-12.44,5.965-19.534,5.965c-21.029,0-36.083-17.042-36.083-36.08
			c0-19.41,15.185-36.456,35.833-36.456c10.206,0,19.16,3.86,25.51,10.457c8.334,8.58,11.439,19.28,10.076,31.225H626.216z
			 M665.158,133.25c-0.624-6.47-7.467-15.555-19.407-15.428c-12.068,0-18.664,8.704-19.288,15.428H665.158z"/>
		<path fill="#FFFFFF" d="M686.67,106.129h15.3c0,2.985,0,5.845-0.123,9.085c2.986-5.355,9.085-11.324,21.283-11.204
			c22.259,0.123,26.49,17.173,26.49,29.24v41.181h-16.295v-37.077c0-10.199-3.363-18.036-14.807-18.036
			c-11.57,0.123-15.555,7.837-15.555,17.415v37.698H686.67V106.129z"/>
	</g>
	<path fill="#FFFFFF" d="M155.194,87.316c-5.479-5.441-12.662-8.169-19.845-8.169c-7.187,0-14.377,2.728-19.855,8.169
		c-10.214,10.15-10.909,26.168-2.078,37.122l-17.457,17.337v-61.5c20.192-2.295,35.874-19.333,35.874-40.007
		C131.833,18.021,113.674,0,91.276,0C68.891,0,50.728,18.021,50.728,40.269c0,20.675,15.686,37.712,35.866,40.007v43.422
		l-17.546-6.346c3.363-7.455,3.931-16.175,0.9-24.441c-4.847-13.222-17.412-21.425-30.784-21.425c-2.724,0-5.482,0.34-8.222,1.058
		l-2.975-8.136c7.811-4.395,11.511-13.876,8.349-22.521c-2.777-7.549-9.949-12.231-17.595-12.231c-2.123,0-4.291,0.358-6.402,1.121
		C4.453,33.616-0.323,41.154,0.017,49.032c0.079,1.857,0.445,3.73,1.118,5.565c2.766,7.557,9.944,12.236,17.587,12.236
		c1.121,0,2.257-0.097,3.375-0.303l2.99,8.121C9.996,81.759,2.562,99.253,8.389,115.141c4.84,13.219,17.4,21.41,30.776,21.41
		c3.719,0,7.508-0.639,11.201-1.97c6.529-2.347,11.824-6.551,15.539-11.779l20.689,7.479v44.15h9.366v-23.906l21.863-21.717
		c5.105,4.073,11.316,6.103,17.527,6.103c7.183,0,14.366-2.713,19.845-8.158C166.156,115.858,166.156,98.207,155.194,87.316z
		 M10.44,51.237c-1.652-4.537,0.699-9.56,5.27-11.219c0.979-0.352,1.996-0.539,3.012-0.539c3.692,0,7.019,2.325,8.282,5.767
		c0.803,2.198,0.702,4.567-0.292,6.693c-0.991,2.119-2.758,3.73-4.978,4.53C20.755,56.821,19.753,57,18.722,57
		C15.033,57,11.707,54.69,10.44,51.237z M46.228,123.284c-2.294,0.841-4.667,1.259-7.063,1.259c-8.64,0-16.444-5.434-19.396-13.518
		c-1.898-5.139-1.641-10.699,0.68-15.681c2.325-4.956,6.473-8.724,11.656-10.592c2.284-0.83,4.664-1.248,7.06-1.248l0,0
		c8.648,0,16.444,5.427,19.404,13.491C62.462,107.625,56.928,119.427,46.228,123.284z M63.935,40.269
		c0-14.975,12.262-27.151,27.341-27.151c15.084,0,27.349,12.176,27.349,27.151S106.36,67.431,91.276,67.431
		C76.197,67.431,63.935,55.244,63.935,40.269z M146.64,118.257c-3.016,2.99-7.026,4.635-11.29,4.635
		c-4.268,0-8.278-1.645-11.301-4.635c-3.012-2.993-4.675-6.996-4.675-11.227c0-4.249,1.663-8.218,4.679-11.211
		c3.02-2.99,7.03-4.646,11.297-4.646c4.264,0,8.274,1.655,11.29,4.646C152.862,102,152.862,112.068,146.64,118.257z"/>
</g>
</svg>
