<?xml version="1.0" encoding="utf-8"?>
<!-- Generator: Adobe Illustrator 17.1.0, SVG Export Plug-In . SVG Version: 6.00 Build 0)  -->
<!DOCTYPE svg PUBLIC "-//W3C//DTD SVG 1.1//EN" "http://www.w3.org/Graphics/SVG/1.1/DTD/svg11.dtd">
<svg version="1.1" id="Layer_1" xmlns="http://www.w3.org/2000/svg" xmlns:xlink="http://www.w3.org/1999/xlink" x="0px" y="0px"
	 width="133.123px" height="200.576px" viewBox="13.265 11.07 133.123 200.576"
	 enable-background="new 13.265 11.07 133.123 200.576" xml:space="preserve">
<g id="Original" display="none">
	
		<path display="inline" fill="none" stroke="#000000" stroke-width="3" stroke-linecap="round" stroke-linejoin="round" stroke-miterlimit="10" d="
		M97.201,49.37l6.104,1.645c3.712,1.216,4.861,2.015,6.877,6.878h0.05l0.624,1.368l9.568,26.762l22.448,18.449
		c2.688,2.686,2.688,7.039,0.001,9.725l-0.972,0.974c-2.688,2.688-7.042,2.688-9.729,0.001L108.58,95.578L98.181,69.231v50.474
		l15.967,24.921l15.596,53.129c1.504,5.122-1.431,10.494-6.553,11.997l0,0c-5.122,1.503-10.494-1.432-11.998-6.553L95.598,150.07
		l-13.114-18.432l-14.79,32.958l-35.905,42.15c-3.461,4.063-9.562,4.552-13.626,1.09l0,0c-4.062-3.462-4.552-9.562-1.091-13.627
		l35.906-42.15l10.938-27.979V69.231l0.039-0.176l-12.156,25.69v28.919c0,3.798-3.075,6.877-6.876,6.877h-1.375
		c-3.8,0-6.879-3.079-6.879-6.877V93.128L52.72,57.893c2.014-4.863,3.163-5.662,6.877-6.878l6.273-1.69"/>
	
		<ellipse display="inline" fill="#FFFFFF" stroke="#000000" stroke-width="2.7503" stroke-linecap="round" stroke-linejoin="round" stroke-miterlimit="10" cx="81.47" cy="30.885" rx="13.171" ry="18.44"/>
</g>
<g id="Blåg">
	<path fill="none" stroke="#164193" stroke-width="3" stroke-linecap="round" stroke-linejoin="round" stroke-miterlimit="10" d="
		M97.201,49.37l6.104,1.645c3.712,1.216,4.861,2.015,6.877,6.878h0.05l0.624,1.368l9.568,26.762l22.448,18.449
		c2.688,2.686,2.688,7.039,0.001,9.725l-0.972,0.974c-2.688,2.688-7.042,2.688-9.729,0.001L108.58,95.578L98.181,69.231v50.474
		l15.967,24.921l15.596,53.129c1.504,5.122-1.431,10.494-6.553,11.997l0,0c-5.122,1.503-10.494-1.432-11.998-6.553L95.598,150.07
		l-13.114-18.432l-14.79,32.958l-35.905,42.15c-3.461,4.063-9.562,4.552-13.626,1.09l0,0c-4.062-3.462-4.552-9.562-1.091-13.627
		l35.906-42.15l10.938-27.979V69.231l0.039-0.176l-12.156,25.69v28.919c0,3.798-3.075,6.877-6.876,6.877h-1.375
		c-3.8,0-6.879-3.079-6.879-6.877V93.128L52.72,57.893c2.014-4.863,3.163-5.662,6.877-6.878l6.273-1.69"/>
	
		<ellipse fill="#FFFFFF" stroke="#164193" stroke-width="2.7503" stroke-linecap="round" stroke-linejoin="round" stroke-miterlimit="10" cx="81.47" cy="30.885" rx="13.171" ry="18.44"/>
</g>
</svg>
