<?xml version="1.0" encoding="utf-8"?>
<!-- Generator: Adobe Illustrator 15.0.2, SVG Export Plug-In . SVG Version: 6.00 Build 0)  -->
<!DOCTYPE svg PUBLIC "-//W3C//DTD SVG 1.1//EN" "http://www.w3.org/Graphics/SVG/1.1/DTD/svg11.dtd">
<svg version="1.1" id="Lager_1" xmlns="http://www.w3.org/2000/svg" xmlns:xlink="http://www.w3.org/1999/xlink" x="0px" y="0px"
	 width="52.079px" height="44.663px" viewBox="0 0 52.079 44.663" enable-background="new 0 0 52.079 44.663" xml:space="preserve">
<g>
	<path fill="#FFFFFF" d="M45.683,28.768l-7.033-2.459c1.708-2.129,2.786-5.167,2.786-8.548c0-6.417-3.86-11.637-8.604-11.637
		s-8.604,5.22-8.604,11.637c0,3.382,1.079,6.421,2.787,8.55l-6.951,2.433c-0.265,0.067-6.479,1.76-6.479,11.163
		c0,0.332,0.165,0.644,0.439,0.828c5.74,3.884,18.273,3.929,18.806,3.929c0.533,0,13.072-0.045,18.812-3.929
		c0.271-0.188,0.438-0.496,0.438-0.828C52.077,30.5,45.863,28.811,45.683,28.768z M32.828,8.123c3.646,0,6.604,4.323,6.604,9.637
		c0,5.315-2.963,9.636-6.604,9.636c-3.641,0-6.604-4.321-6.604-9.636C26.228,12.445,29.189,8.123,32.828,8.123z M32.83,42.662
		c-0.125,0-11.771-0.039-17.229-3.301c0.217-7.309,4.771-8.631,5.045-8.705l7.952-2.781c1.252,0.965,2.688,1.521,4.229,1.521
		c1.542,0,2.986-0.56,4.239-1.521l8.035,2.812c0.049,0.016,4.743,1.295,4.964,8.688C44.619,42.619,32.955,42.662,32.83,42.662z"/>
	<path fill="#FFFFFF" d="M26.189,4.733C24.553,1.725,22.023,0,19.249,0c-4.734,0-8.602,5.22-8.602,11.636
		c0,3.381,1.078,6.421,2.785,8.549l-6.953,2.434C6.216,22.686,0,24.377,0,33.783c0,0.332,0.164,0.643,0.439,0.828
		c1.954,1.322,4.881,2.338,8.699,3.012c0.059,0.01,0.108,0.021,0.175,0.021c0.477,0,0.896-0.349,0.979-0.826
		c0.104-0.545-0.267-1.062-0.811-1.152c-3.246-0.572-5.758-1.391-7.479-2.414c0.224-7.312,4.772-8.635,5.054-8.707l7.953-2.78
		c1.254,0.965,2.689,1.521,4.23,1.521c0.356,0,0.716-0.027,1.07-0.09c0.545-0.09,0.914-0.604,0.825-1.146
		c-0.096-0.545-0.604-0.907-1.149-0.823c-0.247,0.041-0.498,0.062-0.746,0.062c-3.64,0-6.602-4.324-6.602-9.638
		c0-5.313,2.962-9.636,6.602-9.636c2.021,0,3.908,1.345,5.188,3.689c0.263,0.485,0.871,0.665,1.354,0.4
		C26.274,5.826,26.452,5.218,26.189,4.733z"/>
</g>
</svg>
