<?xml version="1.0" encoding="utf-8"?>
<!-- Generator: Adobe Illustrator 15.1.0, SVG Export Plug-In . SVG Version: 6.00 Build 0)  -->
<!DOCTYPE svg PUBLIC "-//W3C//DTD SVG 1.1//EN" "http://www.w3.org/Graphics/SVG/1.1/DTD/svg11.dtd">
<svg version="1.1" xmlns="http://www.w3.org/2000/svg" xmlns:xlink="http://www.w3.org/1999/xlink" x="0px" y="0px" width="1816px"
	 height="595.28px" viewBox="0 0 1816 595.28" enable-background="new 0 0 1816 595.28" xml:space="preserve">
<g id="Pendeltåg">
	<path fill="#FFFFFF" stroke="#000000" stroke-width="3" stroke-miterlimit="10" d="M1488.376-1041.626
		c0,3.434-2.783,6.217-6.217,6.217h-374.566c-3.434,0-6.217-2.783-6.217-6.217v-129.157c0-3.434,2.783-6.217,6.217-6.217h374.566
		c3.434,0,6.217,2.783,6.217,6.217V-1041.626z"/>
	<path fill="#FFFFFF" stroke="#000000" stroke-width="3" stroke-miterlimit="10" d="M1278.447-1275.247v-129.156
		c0-3.434-2.783-6.217-6.217-6.217H897.664c-3.434,0-6.217,2.783-6.217,6.217v129.156H1278.447z"/>
	<g>
		<g>
			<g>
				<path fill="none" stroke="#000000" stroke-width="3" stroke-linecap="round" stroke-miterlimit="10" d="M1169.149-1028.538
					c0,10.624-8.612,19.236-19.235,19.236c-10.624,0-19.236-8.612-19.236-19.236"/>
				<path fill="#FFFFFF" stroke="#000000" stroke-width="3" stroke-linecap="round" stroke-miterlimit="10" d="M1157.527-1028.531
					c0,4.205-3.408,7.614-7.613,7.614s-7.614-3.409-7.614-7.614"/>
				<path fill="#FFFFFF" stroke="#000000" stroke-width="3" stroke-linecap="round" stroke-miterlimit="10" d="M1205.708-1028.531
					c0,4.205-3.408,7.614-7.613,7.614s-7.614-3.409-7.614-7.614"/>
				<path fill="none" stroke="#000000" stroke-width="3" stroke-linecap="round" stroke-miterlimit="10" d="M1217.33-1028.538
					c0,10.624-8.612,19.236-19.236,19.236c-10.623,0-19.235-8.612-19.235-19.236"/>
			</g>
			<g>
				<path fill="#FFFFFF" stroke="#000000" stroke-width="3" stroke-miterlimit="10" d="M1168.685-1095.582
					c0,1.958-1.588,3.546-3.546,3.546h-37.234c-1.958,0-3.546-1.588-3.546-3.546v-47.282c0-1.958,1.588-3.546,3.546-3.546h37.234
					c1.958,0,3.546,1.588,3.546,3.546V-1095.582z"/>
				<path fill="#FFFFFF" stroke="#000000" stroke-width="3" stroke-miterlimit="10" d="M1223.65-1095.582
					c0,1.958-1.588,3.546-3.546,3.546h-37.235c-1.958,0-3.546-1.588-3.546-3.546v-47.282c0-1.958,1.588-3.546,3.546-3.546h37.235
					c1.958,0,3.546,1.588,3.546,3.546V-1095.582z"/>
			</g>
		</g>
		<g>
			<g>
				<path fill="#FFFFFF" stroke="#000000" stroke-width="3" stroke-miterlimit="10" d="M1289.557-1095.582
					c0,1.958-1.588,3.546-3.546,3.546h-37.235c-1.958,0-3.546-1.588-3.546-3.546v-47.282c0-1.958,1.588-3.546,3.546-3.546h37.235
					c1.958,0,3.546,1.588,3.546,3.546V-1095.582z"/>
				<path fill="#FFFFFF" stroke="#000000" stroke-width="3" stroke-miterlimit="10" d="M1344.521-1095.582
					c0,1.958-1.588,3.546-3.546,3.546h-37.234c-1.958,0-3.546-1.588-3.546-3.546v-47.282c0-1.958,1.588-3.546,3.546-3.546h37.234
					c1.958,0,3.546,1.588,3.546,3.546V-1095.582z"/>
			</g>
			<g>
				<path fill="none" stroke="#000000" stroke-width="3" stroke-linecap="round" stroke-miterlimit="10" d="M1290.021-1028.538
					c0,10.624-8.612,19.236-19.236,19.236s-19.235-8.612-19.235-19.236"/>
				<path fill="#FFFFFF" stroke="#000000" stroke-width="3" stroke-linecap="round" stroke-miterlimit="10" d="M1278.399-1028.531
					c0,4.205-3.409,7.614-7.614,7.614s-7.613-3.409-7.613-7.614"/>
				<path fill="#FFFFFF" stroke="#000000" stroke-width="3" stroke-linecap="round" stroke-miterlimit="10" d="M1326.58-1028.531
					c0,4.205-3.409,7.614-7.614,7.614s-7.613-3.409-7.613-7.614"/>
				<path fill="none" stroke="#000000" stroke-width="3" stroke-linecap="round" stroke-miterlimit="10" d="M1338.201-1028.538
					c0,10.624-8.611,19.236-19.235,19.236s-19.235-8.612-19.235-19.236"/>
			</g>
		</g>
		<g>
			<g>
				<path fill="#FFFFFF" stroke="#000000" stroke-width="3" stroke-miterlimit="10" d="M1410.429-1095.582
					c0,1.958-1.588,3.546-3.546,3.546h-37.235c-1.958,0-3.546-1.588-3.546-3.546v-47.282c0-1.958,1.588-3.546,3.546-3.546h37.235
					c1.958,0,3.546,1.588,3.546,3.546V-1095.582z"/>
				<path fill="#FFFFFF" stroke="#000000" stroke-width="3" stroke-miterlimit="10" d="M1465.394-1095.582
					c0,1.958-1.588,3.546-3.546,3.546h-37.234c-1.958,0-3.546-1.588-3.546-3.546v-47.282c0-1.958,1.588-3.546,3.546-3.546h37.234
					c1.958,0,3.546,1.588,3.546,3.546V-1095.582z"/>
			</g>
			<g>
				<path fill="none" stroke="#000000" stroke-width="3" stroke-linecap="round" stroke-miterlimit="10" d="M1410.894-1028.538
					c0,10.624-8.612,19.236-19.235,19.236c-10.624,0-19.236-8.612-19.236-19.236"/>
				<path fill="#FFFFFF" stroke="#000000" stroke-width="3" stroke-linecap="round" stroke-miterlimit="10" d="M1399.271-1028.531
					c0,4.205-3.408,7.614-7.613,7.614s-7.614-3.409-7.614-7.614"/>
				<path fill="#FFFFFF" stroke="#000000" stroke-width="3" stroke-linecap="round" stroke-miterlimit="10" d="M1447.452-1028.531
					c0,4.205-3.408,7.614-7.613,7.614s-7.614-3.409-7.614-7.614"/>
				<path fill="none" stroke="#000000" stroke-width="3" stroke-linecap="round" stroke-miterlimit="10" d="M1459.074-1028.538
					c0,10.624-8.612,19.236-19.236,19.236c-10.623,0-19.235-8.612-19.235-19.236"/>
			</g>
		</g>
	</g>
	<g>
		<g>
			<path fill="none" stroke="#000000" stroke-width="3" stroke-linecap="round" stroke-miterlimit="10" d="M936.6-1265.455
				c0,8.285-6.717,15.003-15.004,15.003c-8.285,0-15.002-6.718-15.002-15.003"/>
			<path fill="#FFFFFF" stroke="#000000" stroke-width="3" stroke-linecap="round" stroke-miterlimit="10" d="M927.535-1265.45
				c0,3.279-2.658,5.938-5.939,5.938c-3.279,0-5.938-2.658-5.938-5.938"/>
			<path fill="#FFFFFF" stroke="#000000" stroke-width="3" stroke-linecap="round" stroke-miterlimit="10" d="M965.113-1265.45
				c0,3.279-2.658,5.938-5.939,5.938c-3.279,0-5.938-2.658-5.938-5.938"/>
			<path fill="none" stroke="#000000" stroke-width="3" stroke-linecap="round" stroke-miterlimit="10" d="M974.178-1265.455
				c0,8.285-6.717,15.003-15.004,15.003c-8.285,0-15.002-6.718-15.002-15.003"/>
		</g>
		<g>
			<path fill="none" stroke="#000000" stroke-width="3" stroke-linecap="round" stroke-miterlimit="10" d="M1032.705-1265.455
				c0,8.285-6.717,15.003-15.002,15.003c-8.287,0-15.004-6.718-15.004-15.003"/>
			<path fill="#FFFFFF" stroke="#000000" stroke-width="3" stroke-linecap="round" stroke-miterlimit="10" d="M1023.641-1265.45
				c0,3.279-2.658,5.938-5.938,5.938s-5.939-2.658-5.939-5.938"/>
			<path fill="#FFFFFF" stroke="#000000" stroke-width="3" stroke-linecap="round" stroke-miterlimit="10" d="M1061.219-1265.45
				c0,3.279-2.658,5.938-5.938,5.938s-5.939-2.658-5.939-5.938"/>
			<path fill="none" stroke="#000000" stroke-width="3" stroke-linecap="round" stroke-miterlimit="10" d="M1070.283-1265.455
				c0,8.285-6.717,15.003-15.002,15.003c-8.287,0-15.004-6.718-15.004-15.003"/>
		</g>
		<g>
			<path fill="none" stroke="#000000" stroke-width="3" stroke-linecap="round" stroke-miterlimit="10" d="M1128.811-1265.455
				c0,8.285-6.717,15.003-15.002,15.003s-15.004-6.718-15.004-15.003"/>
			<path fill="#FFFFFF" stroke="#000000" stroke-width="3" stroke-linecap="round" stroke-miterlimit="10" d="M1119.746-1265.45
				c0,3.279-2.658,5.938-5.938,5.938s-5.939-2.658-5.939-5.938"/>
			<path fill="#FFFFFF" stroke="#000000" stroke-width="3" stroke-linecap="round" stroke-miterlimit="10" d="M1157.324-1265.45
				c0,3.279-2.658,5.938-5.938,5.938s-5.939-2.658-5.939-5.938"/>
			<path fill="none" stroke="#000000" stroke-width="3" stroke-linecap="round" stroke-miterlimit="10" d="M1166.389-1265.455
				c0,8.285-6.717,15.003-15.002,15.003s-15.004-6.718-15.004-15.003"/>
		</g>
		<g>
			<path fill="none" stroke="#000000" stroke-width="3" stroke-linecap="round" stroke-miterlimit="10" d="M1224.918-1265.455
				c0,8.285-6.717,15.003-15.002,15.003c-8.287,0-15.004-6.718-15.004-15.003"/>
			<path fill="#FFFFFF" stroke="#000000" stroke-width="3" stroke-linecap="round" stroke-miterlimit="10" d="M1215.854-1265.45
				c0,3.279-2.658,5.938-5.938,5.938c-3.281,0-5.939-2.658-5.939-5.938"/>
			<path fill="#FFFFFF" stroke="#000000" stroke-width="3" stroke-linecap="round" stroke-miterlimit="10" d="M1253.432-1265.45
				c0,3.279-2.658,5.938-5.938,5.938c-3.281,0-5.939-2.658-5.939-5.938"/>
			<path fill="none" stroke="#000000" stroke-width="3" stroke-linecap="round" stroke-miterlimit="10" d="M1262.496-1265.455
				c0,8.285-6.717,15.003-15.004,15.003c-8.285,0-15.002-6.718-15.002-15.003"/>
		</g>
	</g>
	<path fill="#FFFFFF" stroke="#000000" stroke-width="3" stroke-miterlimit="10" d="M1073.376-1041.626
		c0,3.434-2.783,6.217-6.217,6.217H692.593c-3.434,0-6.217-2.783-6.217-6.217v-129.157c0-3.434,2.783-6.217,6.217-6.217h374.566
		c3.434,0,6.217,2.783,6.217,6.217V-1041.626z"/>
	<g>
		<path fill="none" stroke="#000000" stroke-width="3" stroke-linecap="round" stroke-miterlimit="10" d="M754.149-1028.538
			c0,10.624-8.612,19.236-19.235,19.236c-10.624,0-19.236-8.612-19.236-19.236"/>
		<path fill="#FFFFFF" stroke="#000000" stroke-width="3" stroke-linecap="round" stroke-miterlimit="10" d="M742.527-1028.531
			c0,4.205-3.408,7.614-7.613,7.614s-7.614-3.409-7.614-7.614"/>
		<path fill="#FFFFFF" stroke="#000000" stroke-width="3" stroke-linecap="round" stroke-miterlimit="10" d="M790.708-1028.531
			c0,4.205-3.408,7.614-7.613,7.614s-7.614-3.409-7.614-7.614"/>
		<path fill="none" stroke="#000000" stroke-width="3" stroke-linecap="round" stroke-miterlimit="10" d="M802.33-1028.538
			c0,10.624-8.612,19.236-19.236,19.236c-10.623,0-19.235-8.612-19.235-19.236"/>
	</g>
	<path fill="none" stroke="#000000" stroke-width="3" stroke-miterlimit="10" d="M686.376-1146.41h63.763
		c1.958,0,3.546,1.588,3.546,3.546v47.282c0,1.958-1.588,3.546-3.546,3.546h-63.763"/>
	<path fill="none" stroke="#000000" stroke-width="3" stroke-miterlimit="10" d="M686.376-1156.16h39.707
		c1.219,0,2.208,0.989,2.208,2.208v5.333c0,1.22-0.989,2.208-2.208,2.208h-39.707"/>
	<path fill="#FFFFFF" stroke="#000000" stroke-width="3" stroke-miterlimit="10" d="M808.65-1095.582
		c0,1.958-1.588,3.546-3.546,3.546h-37.235c-1.958,0-3.546-1.588-3.546-3.546v-47.282c0-1.958,1.588-3.546,3.546-3.546h37.235
		c1.958,0,3.546,1.588,3.546,3.546V-1095.582z"/>
	<g>
		<g>
			<path fill="#FFFFFF" stroke="#000000" stroke-width="3" stroke-miterlimit="10" d="M874.557-1095.582
				c0,1.958-1.588,3.546-3.546,3.546h-37.235c-1.958,0-3.546-1.588-3.546-3.546v-47.282c0-1.958,1.588-3.546,3.546-3.546h37.235
				c1.958,0,3.546,1.588,3.546,3.546V-1095.582z"/>
			<path fill="#FFFFFF" stroke="#000000" stroke-width="3" stroke-miterlimit="10" d="M929.521-1095.582
				c0,1.958-1.588,3.546-3.546,3.546h-37.234c-1.958,0-3.546-1.588-3.546-3.546v-47.282c0-1.958,1.588-3.546,3.546-3.546h37.234
				c1.958,0,3.546,1.588,3.546,3.546V-1095.582z"/>
		</g>
		<g>
			<path fill="none" stroke="#000000" stroke-width="3" stroke-linecap="round" stroke-miterlimit="10" d="M875.021-1028.538
				c0,10.624-8.612,19.236-19.236,19.236s-19.235-8.612-19.235-19.236"/>
			<path fill="#FFFFFF" stroke="#000000" stroke-width="3" stroke-linecap="round" stroke-miterlimit="10" d="M863.399-1028.531
				c0,4.205-3.409,7.614-7.614,7.614s-7.613-3.409-7.613-7.614"/>
			<path fill="#FFFFFF" stroke="#000000" stroke-width="3" stroke-linecap="round" stroke-miterlimit="10" d="M911.58-1028.531
				c0,4.205-3.409,7.614-7.614,7.614s-7.613-3.409-7.613-7.614"/>
			<path fill="none" stroke="#000000" stroke-width="3" stroke-linecap="round" stroke-miterlimit="10" d="M923.201-1028.538
				c0,10.624-8.611,19.236-19.235,19.236s-19.235-8.612-19.235-19.236"/>
		</g>
	</g>
	<g>
		<g>
			<path fill="#FFFFFF" stroke="#000000" stroke-width="3" stroke-miterlimit="10" d="M995.429-1095.582
				c0,1.958-1.588,3.546-3.546,3.546h-37.235c-1.958,0-3.546-1.588-3.546-3.546v-47.282c0-1.958,1.588-3.546,3.546-3.546h37.235
				c1.958,0,3.546,1.588,3.546,3.546V-1095.582z"/>
			<path fill="#FFFFFF" stroke="#000000" stroke-width="3" stroke-miterlimit="10" d="M1050.394-1095.582
				c0,1.958-1.588,3.546-3.546,3.546h-37.234c-1.958,0-3.546-1.588-3.546-3.546v-47.282c0-1.958,1.588-3.546,3.546-3.546h37.234
				c1.958,0,3.546,1.588,3.546,3.546V-1095.582z"/>
		</g>
		<g>
			<path fill="none" stroke="#000000" stroke-width="3" stroke-linecap="round" stroke-miterlimit="10" d="M995.894-1028.538
				c0,10.624-8.612,19.236-19.235,19.236c-10.624,0-19.236-8.612-19.236-19.236"/>
			<path fill="#FFFFFF" stroke="#000000" stroke-width="3" stroke-linecap="round" stroke-miterlimit="10" d="M984.271-1028.531
				c0,4.205-3.408,7.614-7.613,7.614s-7.614-3.409-7.614-7.614"/>
			<path fill="#FFFFFF" stroke="#000000" stroke-width="3" stroke-linecap="round" stroke-miterlimit="10" d="M1032.452-1028.531
				c0,4.205-3.408,7.614-7.613,7.614s-7.614-3.409-7.614-7.614"/>
			<path fill="none" stroke="#000000" stroke-width="3" stroke-linecap="round" stroke-miterlimit="10" d="M1044.074-1028.538
				c0,10.624-8.612,19.236-19.236,19.236c-10.623,0-19.235-8.612-19.235-19.236"/>
		</g>
	</g>
	<path fill="none" stroke="#000000" stroke-width="2.6087" stroke-miterlimit="10" d="M686.376-1074.891c5.522,0,10,4.478,10,10
		s-4.478,10-10,10"/>
	<g>
		
			<rect x="905.006" y="-1371.486" fill="none" stroke="#000000" stroke-width="3" stroke-miterlimit="10" width="26.312" height="40.666"/>
		
			<rect x="939.803" y="-1371.486" fill="none" stroke="#000000" stroke-width="3" stroke-miterlimit="10" width="26.312" height="40.666"/>
		<g>
			
				<rect x="1202.675" y="-1371.486" fill="none" stroke="#000000" stroke-width="3" stroke-miterlimit="10" width="26.312" height="40.666"/>
			
				<rect x="1238.577" y="-1371.486" fill="none" stroke="#000000" stroke-width="3" stroke-miterlimit="10" width="26.312" height="40.666"/>
		</g>
		
			<rect x="1036.442" y="-1371.486" fill="none" stroke="#000000" stroke-width="3" stroke-miterlimit="10" width="26.312" height="40.666"/>
		
			<rect x="1071.239" y="-1371.486" fill="none" stroke="#000000" stroke-width="3" stroke-miterlimit="10" width="26.312" height="40.666"/>
		
			<rect x="1106.036" y="-1371.486" fill="none" stroke="#000000" stroke-width="3" stroke-miterlimit="10" width="26.312" height="40.666"/>
		<g>
			<g>
				<polygon fill="none" stroke="#000000" stroke-width="3" stroke-miterlimit="10" points="1001.438,-1275.247 974.599,-1275.247 
					974.599,-1371.486 987.709,-1371.486 1001.438,-1371.486 				"/>
			</g>
			<g>
				<polygon fill="none" stroke="#000000" stroke-width="3" stroke-miterlimit="10" points="1027.958,-1275.247 1001.118,-1275.247 
					1001.118,-1371.486 1014.229,-1371.486 1027.958,-1371.486 				"/>
			</g>
		</g>
		<g>
			<g>
				<polygon fill="none" stroke="#000000" stroke-width="3" stroke-miterlimit="10" points="1167.672,-1275.247 1140.832,-1275.247 
					1140.832,-1371.486 1153.942,-1371.486 1167.672,-1371.486 				"/>
			</g>
			<g>
				<polygon fill="none" stroke="#000000" stroke-width="3" stroke-miterlimit="10" points="1194.191,-1275.247 1167.352,-1275.247 
					1167.352,-1371.486 1180.462,-1371.486 1194.191,-1371.486 				"/>
			</g>
		</g>
	</g>
	<path fill="#FFFFFF" stroke="#000000" stroke-width="3" stroke-miterlimit="10" d="M601.099-1036.746v-129.157
		c0-3.434-2.783-6.217-6.217-6.217H220.315c-3.434,0-6.217,2.783-6.217,6.217v129.157H601.099z"/>
	<g>
		<g>
			<path fill="none" stroke="#000000" stroke-width="3" stroke-linecap="round" stroke-miterlimit="10" d="M259.251-1026.955
				c0,8.285-6.717,15.004-15.004,15.004c-8.285,0-15.002-6.719-15.002-15.004"/>
			<path fill="#FFFFFF" stroke="#000000" stroke-width="3" stroke-linecap="round" stroke-miterlimit="10" d="M250.187-1026.949
				c0,3.279-2.658,5.938-5.939,5.938c-3.279,0-5.938-2.658-5.938-5.938"/>
			<path fill="#FFFFFF" stroke="#000000" stroke-width="3" stroke-linecap="round" stroke-miterlimit="10" d="M287.765-1026.949
				c0,3.279-2.658,5.938-5.939,5.938c-3.279,0-5.938-2.658-5.938-5.938"/>
			<path fill="none" stroke="#000000" stroke-width="3" stroke-linecap="round" stroke-miterlimit="10" d="M296.829-1026.955
				c0,8.285-6.717,15.004-15.004,15.004c-8.285,0-15.002-6.719-15.002-15.004"/>
		</g>
		<g>
			<path fill="none" stroke="#000000" stroke-width="3" stroke-linecap="round" stroke-miterlimit="10" d="M355.356-1026.955
				c0,8.285-6.717,15.004-15.002,15.004c-8.287,0-15.004-6.719-15.004-15.004"/>
			<path fill="#FFFFFF" stroke="#000000" stroke-width="3" stroke-linecap="round" stroke-miterlimit="10" d="M346.292-1026.949
				c0,3.279-2.658,5.938-5.938,5.938s-5.939-2.658-5.939-5.938"/>
			<path fill="#FFFFFF" stroke="#000000" stroke-width="3" stroke-linecap="round" stroke-miterlimit="10" d="M383.87-1026.949
				c0,3.279-2.658,5.938-5.938,5.938s-5.939-2.658-5.939-5.938"/>
			<path fill="none" stroke="#000000" stroke-width="3" stroke-linecap="round" stroke-miterlimit="10" d="M392.935-1026.955
				c0,8.285-6.717,15.004-15.002,15.004c-8.287,0-15.004-6.719-15.004-15.004"/>
		</g>
		<g>
			<path fill="none" stroke="#000000" stroke-width="3" stroke-linecap="round" stroke-miterlimit="10" d="M451.462-1026.955
				c0,8.285-6.717,15.004-15.002,15.004s-15.004-6.719-15.004-15.004"/>
			<path fill="#FFFFFF" stroke="#000000" stroke-width="3" stroke-linecap="round" stroke-miterlimit="10" d="M442.397-1026.949
				c0,3.279-2.658,5.938-5.938,5.938s-5.939-2.658-5.939-5.938"/>
			<path fill="#FFFFFF" stroke="#000000" stroke-width="3" stroke-linecap="round" stroke-miterlimit="10" d="M479.976-1026.949
				c0,3.279-2.658,5.938-5.938,5.938s-5.939-2.658-5.939-5.938"/>
			<path fill="none" stroke="#000000" stroke-width="3" stroke-linecap="round" stroke-miterlimit="10" d="M489.04-1026.955
				c0,8.285-6.717,15.004-15.002,15.004s-15.004-6.719-15.004-15.004"/>
		</g>
		<g>
			<path fill="none" stroke="#000000" stroke-width="3" stroke-linecap="round" stroke-miterlimit="10" d="M547.569-1026.955
				c0,8.285-6.717,15.004-15.002,15.004c-8.287,0-15.004-6.719-15.004-15.004"/>
			<path fill="#FFFFFF" stroke="#000000" stroke-width="3" stroke-linecap="round" stroke-miterlimit="10" d="M538.505-1026.949
				c0,3.279-2.658,5.938-5.938,5.938c-3.281,0-5.939-2.658-5.939-5.938"/>
			<path fill="#FFFFFF" stroke="#000000" stroke-width="3" stroke-linecap="round" stroke-miterlimit="10" d="M576.083-1026.949
				c0,3.279-2.658,5.938-5.938,5.938c-3.281,0-5.939-2.658-5.939-5.938"/>
			<path fill="none" stroke="#000000" stroke-width="3" stroke-linecap="round" stroke-miterlimit="10" d="M585.147-1026.955
				c0,8.285-6.717,15.004-15.004,15.004c-8.285,0-15.002-6.719-15.002-15.004"/>
		</g>
	</g>
	
		<rect x="227.657" y="-1132.985" fill="none" stroke="#000000" stroke-width="3" stroke-miterlimit="10" width="26.312" height="40.666"/>
	
		<rect x="267.825" y="-1132.985" fill="none" stroke="#000000" stroke-width="3" stroke-miterlimit="10" width="26.312" height="40.666"/>
	
		<rect x="522.759" y="-1132.985" fill="none" stroke="#000000" stroke-width="3" stroke-miterlimit="10" width="26.312" height="40.666"/>
	
		<rect x="562.927" y="-1132.985" fill="none" stroke="#000000" stroke-width="3" stroke-miterlimit="10" width="26.312" height="40.666"/>
	
		<rect x="375.208" y="-1132.985" fill="none" stroke="#000000" stroke-width="3" stroke-miterlimit="10" width="26.312" height="40.666"/>
	
		<rect x="415.376" y="-1132.985" fill="none" stroke="#000000" stroke-width="3" stroke-miterlimit="10" width="26.312" height="40.666"/>
	<g>
		<g>
			<polygon fill="none" stroke="#000000" stroke-width="3" stroke-miterlimit="10" points="334.833,-1036.746 307.993,-1036.746 
				307.993,-1132.985 321.104,-1132.985 334.833,-1132.985 			"/>
		</g>
		<g>
			<polygon fill="none" stroke="#000000" stroke-width="3" stroke-miterlimit="10" points="361.353,-1036.746 334.513,-1036.746 
				334.513,-1132.985 347.623,-1132.985 361.353,-1132.985 			"/>
		</g>
	</g>
	<g>
		<g>
			<polygon fill="none" stroke="#000000" stroke-width="3" stroke-miterlimit="10" points="482.384,-1036.746 455.544,-1036.746 
				455.544,-1132.985 468.655,-1132.985 482.384,-1132.985 			"/>
		</g>
		<g>
			<polygon fill="none" stroke="#000000" stroke-width="3" stroke-miterlimit="10" points="508.903,-1036.746 482.063,-1036.746 
				482.063,-1132.985 495.175,-1132.985 508.903,-1132.985 			"/>
		</g>
	</g>
	<path fill="#FFFFFF" stroke="#000000" stroke-width="3" stroke-miterlimit="10" d="M196.272-1036.746v-129.157
		c0-3.434-2.783-6.217-6.217-6.217h-374.566c-3.434,0-6.217,2.783-6.217,6.217v129.157H196.272z"/>
	<g>
		<g>
			<path fill="none" stroke="#000000" stroke-width="3" stroke-linecap="round" stroke-miterlimit="10" d="M-145.575-1026.955
				c0,8.285-6.717,15.004-15.004,15.004c-8.285,0-15.002-6.719-15.002-15.004"/>
			<path fill="#FFFFFF" stroke="#000000" stroke-width="3" stroke-linecap="round" stroke-miterlimit="10" d="M-154.64-1026.949
				c0,3.279-2.658,5.938-5.939,5.938c-3.279,0-5.938-2.658-5.938-5.938"/>
			<path fill="#FFFFFF" stroke="#000000" stroke-width="3" stroke-linecap="round" stroke-miterlimit="10" d="M-117.062-1026.949
				c0,3.279-2.658,5.938-5.939,5.938c-3.279,0-5.938-2.658-5.938-5.938"/>
			<path fill="none" stroke="#000000" stroke-width="3" stroke-linecap="round" stroke-miterlimit="10" d="M-107.997-1026.955
				c0,8.285-6.717,15.004-15.004,15.004c-8.285,0-15.002-6.719-15.002-15.004"/>
		</g>
		<g>
			<path fill="none" stroke="#000000" stroke-width="3" stroke-linecap="round" stroke-miterlimit="10" d="M-49.47-1026.955
				c0,8.285-6.717,15.004-15.002,15.004c-8.287,0-15.004-6.719-15.004-15.004"/>
			<path fill="#FFFFFF" stroke="#000000" stroke-width="3" stroke-linecap="round" stroke-miterlimit="10" d="M-58.534-1026.949
				c0,3.279-2.658,5.938-5.938,5.938s-5.939-2.658-5.939-5.938"/>
			<path fill="#FFFFFF" stroke="#000000" stroke-width="3" stroke-linecap="round" stroke-miterlimit="10" d="M-20.956-1026.949
				c0,3.279-2.658,5.938-5.938,5.938s-5.939-2.658-5.939-5.938"/>
			<path fill="none" stroke="#000000" stroke-width="3" stroke-linecap="round" stroke-miterlimit="10" d="M-11.892-1026.955
				c0,8.285-6.717,15.004-15.002,15.004c-8.287,0-15.004-6.719-15.004-15.004"/>
		</g>
		<g>
			<path fill="none" stroke="#000000" stroke-width="3" stroke-linecap="round" stroke-miterlimit="10" d="M46.636-1026.955
				c0,8.285-6.717,15.004-15.002,15.004s-15.004-6.719-15.004-15.004"/>
			<path fill="#FFFFFF" stroke="#000000" stroke-width="3" stroke-linecap="round" stroke-miterlimit="10" d="M37.571-1026.949
				c0,3.279-2.658,5.938-5.938,5.938s-5.939-2.658-5.939-5.938"/>
			<path fill="#FFFFFF" stroke="#000000" stroke-width="3" stroke-linecap="round" stroke-miterlimit="10" d="M75.149-1026.949
				c0,3.279-2.658,5.938-5.938,5.938s-5.939-2.658-5.939-5.938"/>
			<path fill="none" stroke="#000000" stroke-width="3" stroke-linecap="round" stroke-miterlimit="10" d="M84.214-1026.955
				c0,8.285-6.717,15.004-15.002,15.004s-15.004-6.719-15.004-15.004"/>
		</g>
		<g>
			<path fill="none" stroke="#000000" stroke-width="3" stroke-linecap="round" stroke-miterlimit="10" d="M142.743-1026.955
				c0,8.285-6.717,15.004-15.002,15.004c-8.287,0-15.004-6.719-15.004-15.004"/>
			<path fill="#FFFFFF" stroke="#000000" stroke-width="3" stroke-linecap="round" stroke-miterlimit="10" d="M133.679-1026.949
				c0,3.279-2.658,5.938-5.938,5.938c-3.281,0-5.939-2.658-5.939-5.938"/>
			<path fill="#FFFFFF" stroke="#000000" stroke-width="3" stroke-linecap="round" stroke-miterlimit="10" d="M171.257-1026.949
				c0,3.279-2.658,5.938-5.938,5.938c-3.281,0-5.939-2.658-5.939-5.938"/>
			<path fill="none" stroke="#000000" stroke-width="3" stroke-linecap="round" stroke-miterlimit="10" d="M180.321-1026.955
				c0,8.285-6.717,15.004-15.004,15.004c-8.285,0-15.002-6.719-15.002-15.004"/>
		</g>
	</g>
	
		<rect x="-177.169" y="-1132.985" fill="none" stroke="#000000" stroke-width="3" stroke-miterlimit="10" width="26.312" height="40.666"/>
	
		<rect x="-137.001" y="-1132.985" fill="none" stroke="#000000" stroke-width="3" stroke-miterlimit="10" width="26.312" height="40.666"/>
	
		<rect x="117.933" y="-1132.985" fill="none" stroke="#000000" stroke-width="3" stroke-miterlimit="10" width="26.312" height="40.666"/>
	
		<rect x="158.101" y="-1132.985" fill="none" stroke="#000000" stroke-width="3" stroke-miterlimit="10" width="26.312" height="40.666"/>
	
		<rect x="-29.618" y="-1132.985" fill="none" stroke="#000000" stroke-width="3" stroke-miterlimit="10" width="26.312" height="40.666"/>
	
		<rect x="10.55" y="-1132.985" fill="none" stroke="#000000" stroke-width="3" stroke-miterlimit="10" width="26.312" height="40.666"/>
	<g>
		<g>
			<polygon fill="none" stroke="#000000" stroke-width="3" stroke-miterlimit="10" points="-69.993,-1036.746 -96.833,-1036.746 
				-96.833,-1132.985 -83.723,-1132.985 -69.993,-1132.985 			"/>
		</g>
		<g>
			<polygon fill="none" stroke="#000000" stroke-width="3" stroke-miterlimit="10" points="-43.474,-1036.746 -70.313,-1036.746 
				-70.313,-1132.985 -57.203,-1132.985 -43.474,-1132.985 			"/>
		</g>
	</g>
	<g>
		<g>
			<polygon fill="none" stroke="#000000" stroke-width="3" stroke-miterlimit="10" points="77.558,-1036.746 50.718,-1036.746 
				50.718,-1132.985 63.829,-1132.985 77.558,-1132.985 			"/>
		</g>
		<g>
			<polygon fill="none" stroke="#000000" stroke-width="3" stroke-miterlimit="10" points="104.077,-1036.746 77.237,-1036.746 
				77.237,-1132.985 90.349,-1132.985 104.077,-1132.985 			"/>
		</g>
	</g>
	<g>
		<g>
			<path fill="none" stroke="#000000" stroke-width="3" stroke-linecap="round" stroke-miterlimit="10" d="M662.042,202.877
				c0,3.279-2.658,5.938-5.939,5.938c-3.279,0-5.938-2.658-5.938-5.938"/>
			<path fill="none" stroke="#000000" stroke-width="3" stroke-linecap="round" stroke-miterlimit="10" d="M671.106,202.871
				c0,8.285-6.717,15.004-15.004,15.004c-8.285,0-15.002-6.719-15.002-15.004"/>
		</g>
		
			<rect x="649.952" y="114.134" fill="none" stroke="#000000" stroke-width="3" stroke-miterlimit="10" width="26.312" height="40.666"/>
		
			<rect x="690.12" y="114.134" fill="none" stroke="#000000" stroke-width="3" stroke-miterlimit="10" width="26.312" height="40.666"/>
		
			<rect x="945.054" y="114.134" fill="none" stroke="#000000" stroke-width="3" stroke-miterlimit="10" width="26.312" height="40.666"/>
		
			<rect x="985.222" y="114.134" fill="none" stroke="#000000" stroke-width="3" stroke-miterlimit="10" width="26.312" height="40.666"/>
		
			<rect x="797.503" y="114.134" fill="none" stroke="#000000" stroke-width="3" stroke-miterlimit="10" width="26.312" height="40.666"/>
		
			<rect x="837.671" y="114.134" fill="none" stroke="#000000" stroke-width="3" stroke-miterlimit="10" width="26.312" height="40.666"/>
		<g>
			<g>
				<polygon fill="none" stroke="#000000" stroke-width="3" stroke-miterlimit="10" points="757.128,210.373 730.288,210.373 
					730.288,114.134 743.399,114.134 757.128,114.134 				"/>
			</g>
			<g>
				<polygon fill="none" stroke="#000000" stroke-width="3" stroke-miterlimit="10" points="783.647,210.373 756.808,210.373 
					756.808,114.134 769.919,114.134 783.647,114.134 				"/>
			</g>
		</g>
		<g>
			<g>
				<polygon fill="none" stroke="#000000" stroke-width="3" stroke-miterlimit="10" points="904.679,210.373 877.839,210.373 
					877.839,114.134 890.95,114.134 904.679,114.134 				"/>
			</g>
			<g>
				<polygon fill="none" stroke="#000000" stroke-width="3" stroke-miterlimit="10" points="931.198,210.373 904.358,210.373 
					904.358,114.134 917.47,114.134 931.198,114.134 				"/>
			</g>
		</g>
		<path fill="none" stroke="#000000" stroke-width="3" stroke-miterlimit="10" d="M830.757,75h188.146
			c3.434,0,6.217,2.783,6.217,6.217v112.377h-39.871l-9.293,16.779H830.757H685.558l-9.293-16.779h-39.871V81.217
			c0-3.434,2.783-6.217,6.217-6.217H830.757z"/>
		<g>
			<path fill="none" stroke="#000000" stroke-width="3" stroke-linecap="round" stroke-miterlimit="10" d="M999.474,202.877
				c0,3.279,2.658,5.938,5.939,5.938c3.279,0,5.938-2.658,5.938-5.938"/>
			<path fill="none" stroke="#000000" stroke-width="3" stroke-linecap="round" stroke-miterlimit="10" d="M990.409,202.871
				c0,8.285,6.717,15.004,15.004,15.004c8.285,0,15.002-6.719,15.002-15.004"/>
		</g>
	</g>
	<g>
		<g>
			<path fill="none" stroke="#000000" stroke-width="3" stroke-linecap="round" stroke-miterlimit="10" d="M1061.651,202.877
				c0,3.279-2.658,5.938-5.939,5.938c-3.279,0-5.938-2.658-5.938-5.938"/>
			<path fill="none" stroke="#000000" stroke-width="3" stroke-linecap="round" stroke-miterlimit="10" d="M1070.716,202.871
				c0,8.285-6.717,15.004-15.004,15.004c-8.285,0-15.002-6.719-15.002-15.004"/>
		</g>
		
			<rect x="1049.562" y="114.134" fill="none" stroke="#000000" stroke-width="3" stroke-miterlimit="10" width="26.312" height="40.666"/>
		
			<rect x="1089.729" y="114.134" fill="none" stroke="#000000" stroke-width="3" stroke-miterlimit="10" width="26.312" height="40.666"/>
		
			<rect x="1344.663" y="114.134" fill="none" stroke="#000000" stroke-width="3" stroke-miterlimit="10" width="26.312" height="40.666"/>
		
			<rect x="1384.831" y="114.134" fill="none" stroke="#000000" stroke-width="3" stroke-miterlimit="10" width="26.312" height="40.666"/>
		
			<rect x="1197.112" y="114.134" fill="none" stroke="#000000" stroke-width="3" stroke-miterlimit="10" width="26.312" height="40.666"/>
		
			<rect x="1237.28" y="114.134" fill="none" stroke="#000000" stroke-width="3" stroke-miterlimit="10" width="26.312" height="40.666"/>
		<g>
			<g>
				<polygon fill="none" stroke="#000000" stroke-width="3" stroke-miterlimit="10" points="1156.737,210.373 1129.897,210.373 
					1129.897,114.134 1143.009,114.134 1156.737,114.134 				"/>
			</g>
			<g>
				<polygon fill="none" stroke="#000000" stroke-width="3" stroke-miterlimit="10" points="1183.257,210.373 1156.417,210.373 
					1156.417,114.134 1169.528,114.134 1183.257,114.134 				"/>
			</g>
		</g>
		<g>
			<g>
				<polygon fill="none" stroke="#000000" stroke-width="3" stroke-miterlimit="10" points="1304.288,210.373 1277.448,210.373 
					1277.448,114.134 1290.56,114.134 1304.288,114.134 				"/>
			</g>
			<g>
				<polygon fill="none" stroke="#000000" stroke-width="3" stroke-miterlimit="10" points="1330.808,210.373 1303.968,210.373 
					1303.968,114.134 1317.079,114.134 1330.808,114.134 				"/>
			</g>
		</g>
		<path fill="none" stroke="#000000" stroke-width="3" stroke-miterlimit="10" d="M1230.366,75h188.146
			c3.434,0,6.217,2.783,6.217,6.217v112.377h-39.871l-9.293,16.779h-145.199h-145.199l-9.293-16.779h-39.871V81.217
			c0-3.434,2.783-6.217,6.217-6.217H1230.366z"/>
		<g>
			<path fill="none" stroke="#000000" stroke-width="3" stroke-linecap="round" stroke-miterlimit="10" d="M1399.083,202.877
				c0,3.279,2.658,5.938,5.939,5.938c3.279,0,5.938-2.658,5.938-5.938"/>
			<path fill="none" stroke="#000000" stroke-width="3" stroke-linecap="round" stroke-miterlimit="10" d="M1390.019,202.871
				c0,8.285,6.717,15.004,15.004,15.004c8.285,0,15.002-6.719,15.002-15.004"/>
		</g>
	</g>
	<g>
		<g>
			<g>
				<path fill="none" stroke="#000000" stroke-width="3" stroke-linecap="round" stroke-miterlimit="10" d="M262.432,202.877
					c0,3.279-2.658,5.938-5.939,5.938c-3.279,0-5.937-2.658-5.937-5.938"/>
				<path fill="none" stroke="#000000" stroke-width="3" stroke-linecap="round" stroke-miterlimit="10" d="M271.496,202.871
					c0,8.285-6.717,15.004-15.004,15.004c-8.285,0-15.001-6.719-15.001-15.004"/>
			</g>
			
				<rect x="250.343" y="114.134" fill="none" stroke="#000000" stroke-width="3" stroke-miterlimit="10" width="26.313" height="40.666"/>
			
				<rect x="290.512" y="114.134" fill="none" stroke="#000000" stroke-width="3" stroke-miterlimit="10" width="26.312" height="40.666"/>
			
				<rect x="545.445" y="114.134" fill="none" stroke="#000000" stroke-width="3" stroke-miterlimit="10" width="26.312" height="40.666"/>
			
				<rect x="585.612" y="114.134" fill="none" stroke="#000000" stroke-width="3" stroke-miterlimit="10" width="26.312" height="40.666"/>
			
				<rect x="397.895" y="114.134" fill="none" stroke="#000000" stroke-width="3" stroke-miterlimit="10" width="26.312" height="40.666"/>
			
				<rect x="438.062" y="114.134" fill="none" stroke="#000000" stroke-width="3" stroke-miterlimit="10" width="26.312" height="40.666"/>
			<g>
				<g>
					<polygon fill="none" stroke="#000000" stroke-width="3" stroke-miterlimit="10" points="357.52,210.373 330.68,210.373 
						330.68,114.134 343.791,114.134 357.52,114.134 					"/>
				</g>
				<g>
					<polygon fill="none" stroke="#000000" stroke-width="3" stroke-miterlimit="10" points="384.039,210.373 357.199,210.373 
						357.199,114.134 370.311,114.134 384.039,114.134 					"/>
				</g>
			</g>
			<g>
				<g>
					<polygon fill="none" stroke="#000000" stroke-width="3" stroke-miterlimit="10" points="505.07,210.373 478.23,210.373 
						478.23,114.134 491.342,114.134 505.07,114.134 					"/>
				</g>
				<g>
					<polygon fill="none" stroke="#000000" stroke-width="3" stroke-miterlimit="10" points="531.59,210.373 504.75,210.373 
						504.75,114.134 517.861,114.134 531.59,114.134 					"/>
				</g>
			</g>
			<g>
				<path fill="none" stroke="#000000" stroke-width="3" stroke-linecap="round" stroke-miterlimit="10" d="M599.864,202.877
					c0,3.279,2.658,5.938,5.939,5.938c3.279,0,5.938-2.658,5.938-5.938"/>
				<path fill="none" stroke="#000000" stroke-width="3" stroke-linecap="round" stroke-miterlimit="10" d="M590.8,202.871
					c0,8.285,6.717,15.004,15.004,15.004c8.285,0,15.002-6.719,15.002-15.004"/>
			</g>
		</g>
		
			<rect x="171.427" y="114.134" fill="none" stroke="#000000" stroke-width="3" stroke-miterlimit="10" width="26.312" height="40.666"/>
		<polyline fill="none" stroke="#000000" stroke-width="3" stroke-miterlimit="10" points="150.74,75 150.74,154.8 98.059,154.8 		
			"/>
		<g>
			<polygon fill="none" stroke="#000000" stroke-width="3" stroke-miterlimit="10" points="237.419,193.594 210.579,193.594 
				210.579,114.134 223.69,114.134 237.419,114.134 			"/>
		</g>
		<path fill="none" stroke="#000000" stroke-width="3" stroke-miterlimit="10" d="M236.785,193.594h-50.682l-9.292,16.779h-72.388
			h42.801H98.059V202v-48.136l34.65-72.647c1.878-3.64,4.785-6.217,8.219-6.217h3.148h86.493h12.433h188.147h188.146
			c3.434,0,6.217,2.783,6.217,6.217v112.377H585.64l-9.292,16.779H431.148H285.949l-9.293-16.779H236.785"/>
		<g>
			<path fill="none" stroke="#000000" stroke-width="3" stroke-linecap="round" stroke-miterlimit="10" d="M200.265,202.877
				c0,3.279,2.658,5.938,5.939,5.938c3.279,0,5.938-2.658,5.938-5.938"/>
			<path fill="none" stroke="#000000" stroke-width="3" stroke-linecap="round" stroke-miterlimit="10" d="M191.201,202.871
				c0,8.285,6.717,15.004,15.004,15.004c8.285,0,15.002-6.719,15.002-15.004"/>
		</g>
		<path fill="none" stroke="#000000" stroke-width="3" stroke-miterlimit="10" d="M98.059,164.192c3.935,0,7.125,3.19,7.125,7.125
			s-3.19,7.125-7.125,7.125"/>
		<path fill="none" stroke="#000000" stroke-width="3" stroke-miterlimit="10" d="M133.706,82.146
			c3.587,1.619,5.183,5.839,3.564,9.426c-1.619,3.586-5.838,5.182-9.425,3.563"/>
	</g>
</g>
<g id="T-bana">
	<g>
		<g>
			<g>
				<g>
					<path fill="none" stroke="#000000" stroke-width="3" stroke-linecap="round" stroke-miterlimit="10" d="M627.585,457.877
						c0,3.279-2.658,5.938-5.939,5.938c-3.279,0-5.938-2.658-5.938-5.938"/>
					<path fill="none" stroke="#000000" stroke-width="3" stroke-linecap="round" stroke-miterlimit="10" d="M636.649,457.871
						c0,8.285-6.717,15.004-15.004,15.004c-8.285,0-15.002-6.719-15.002-15.004"/>
				</g>
				<path fill="none" stroke="#000000" stroke-width="3" stroke-miterlimit="10" d="M796.3,336h266.72
					c3.434,0,6.217,2.783,6.217,6.217v106.377h-39.871l-9.293,16.779H796.3H651.101l-9.293-16.779h-39.871V342.217
					c0-3.434,2.783-6.217,6.217-6.217H796.3z"/>
				<g>
					<path fill="none" stroke="#000000" stroke-width="3" stroke-linecap="round" stroke-miterlimit="10" d="M1043.59,457.877
						c0,3.279,2.658,5.938,5.939,5.938c3.279,0,5.938-2.658,5.938-5.938"/>
					<path fill="none" stroke="#000000" stroke-width="3" stroke-linecap="round" stroke-miterlimit="10" d="M1034.525,457.871
						c0,8.285,6.717,15.004,15.004,15.004c8.285,0,15.002-6.719,15.002-15.004"/>
				</g>
			</g>
			<g>
				<g>
					<g>
						<polygon fill="none" stroke="#000000" stroke-width="3" stroke-miterlimit="10" points="751.304,465.373 724.464,465.373 
							724.464,369.134 737.575,369.134 751.304,369.134 						"/>
					</g>
					<g>
						<polygon fill="none" stroke="#000000" stroke-width="3" stroke-miterlimit="10" points="777.823,465.373 750.983,465.373 
							750.983,369.134 764.095,369.134 777.823,369.134 						"/>
					</g>
				</g>
				<g>
					<g>
						<polygon fill="none" stroke="#000000" stroke-width="3" stroke-miterlimit="10" points="920.673,465.373 893.833,465.373 
							893.833,369.134 906.944,369.134 920.673,369.134 						"/>
					</g>
					<g>
						<polygon fill="none" stroke="#000000" stroke-width="3" stroke-miterlimit="10" points="947.192,465.373 920.353,465.373 
							920.353,369.134 933.464,369.134 947.192,369.134 						"/>
					</g>
				</g>
				
					<rect x="670.851" y="369.134" fill="none" stroke="#000000" stroke-width="3" stroke-miterlimit="10" width="44.832" height="48.12"/>
				
					<rect x="786.604" y="369.134" fill="none" stroke="#000000" stroke-width="3" stroke-miterlimit="10" width="44.833" height="48.12"/>
				
					<rect x="840.219" y="369.134" fill="none" stroke="#000000" stroke-width="3" stroke-miterlimit="10" width="44.833" height="48.12"/>
				
					<rect x="616.753" y="369.134" fill="none" stroke="#000000" stroke-width="3" stroke-miterlimit="10" width="44.833" height="48.12"/>
				
					<rect x="955.974" y="369.134" fill="none" stroke="#000000" stroke-width="3" stroke-miterlimit="10" width="44.833" height="48.12"/>
				
					<rect x="1009.588" y="369.134" fill="none" stroke="#000000" stroke-width="3" stroke-miterlimit="10" width="44.833" height="48.12"/>
			</g>
		</g>
		
			<rect x="724.303" y="346.583" fill="none" stroke="#000000" stroke-width="3" stroke-miterlimit="10" width="53.36" height="11.434"/>
		
			<rect x="893.672" y="346.583" fill="none" stroke="#000000" stroke-width="3" stroke-miterlimit="10" width="53.36" height="11.434"/>
	</g>
	<g>
		<g>
			<g>
				<g>
					<path fill="none" stroke="#000000" stroke-width="3" stroke-linecap="round" stroke-miterlimit="10" d="M1107.869,457.877
						c0,3.279-2.658,5.938-5.939,5.938c-3.279,0-5.938-2.658-5.938-5.938"/>
					<path fill="none" stroke="#000000" stroke-width="3" stroke-linecap="round" stroke-miterlimit="10" d="M1116.934,457.871
						c0,8.285-6.717,15.004-15.004,15.004c-8.285,0-15.002-6.719-15.002-15.004"/>
				</g>
				<path fill="none" stroke="#000000" stroke-width="3" stroke-miterlimit="10" d="M1276.584,336h266.72
					c3.434,0,6.217,2.783,6.217,6.217v106.377h-39.871l-9.293,16.779h-223.772h-145.199l-9.293-16.779h-39.871V342.217
					c0-3.434,2.783-6.217,6.217-6.217H1276.584z"/>
				<g>
					<path fill="none" stroke="#000000" stroke-width="3" stroke-linecap="round" stroke-miterlimit="10" d="M1523.874,457.877
						c0,3.279,2.658,5.938,5.939,5.938c3.279,0,5.938-2.658,5.938-5.938"/>
					<path fill="none" stroke="#000000" stroke-width="3" stroke-linecap="round" stroke-miterlimit="10" d="M1514.81,457.871
						c0,8.285,6.717,15.004,15.004,15.004c8.285,0,15.002-6.719,15.002-15.004"/>
				</g>
			</g>
			<g>
				<g>
					<g>
						<polygon fill="none" stroke="#000000" stroke-width="3" stroke-miterlimit="10" points="1231.588,465.373 1204.748,465.373 
							1204.748,369.134 1217.859,369.134 1231.588,369.134 						"/>
					</g>
					<g>
						<polygon fill="none" stroke="#000000" stroke-width="3" stroke-miterlimit="10" points="1258.107,465.373 1231.268,465.373 
							1231.268,369.134 1244.379,369.134 1258.107,369.134 						"/>
					</g>
				</g>
				<g>
					<g>
						<polygon fill="none" stroke="#000000" stroke-width="3" stroke-miterlimit="10" points="1400.957,465.373 1374.117,465.373 
							1374.117,369.134 1387.229,369.134 1400.957,369.134 						"/>
					</g>
					<g>
						<polygon fill="none" stroke="#000000" stroke-width="3" stroke-miterlimit="10" points="1427.477,465.373 1400.637,465.373 
							1400.637,369.134 1413.748,369.134 1427.477,369.134 						"/>
					</g>
				</g>
				
					<rect x="1151.135" y="369.134" fill="none" stroke="#000000" stroke-width="3" stroke-miterlimit="10" width="44.832" height="48.12"/>
				
					<rect x="1266.889" y="369.134" fill="none" stroke="#000000" stroke-width="3" stroke-miterlimit="10" width="44.833" height="48.12"/>
				
					<rect x="1320.503" y="369.134" fill="none" stroke="#000000" stroke-width="3" stroke-miterlimit="10" width="44.833" height="48.12"/>
				
					<rect x="1097.037" y="369.134" fill="none" stroke="#000000" stroke-width="3" stroke-miterlimit="10" width="44.833" height="48.12"/>
				
					<rect x="1436.258" y="369.134" fill="none" stroke="#000000" stroke-width="3" stroke-miterlimit="10" width="44.833" height="48.12"/>
				
					<rect x="1489.872" y="369.134" fill="none" stroke="#000000" stroke-width="3" stroke-miterlimit="10" width="44.833" height="48.12"/>
			</g>
		</g>
		
			<rect x="1204.907" y="346.583" fill="none" stroke="#000000" stroke-width="3" stroke-miterlimit="10" width="53.36" height="11.434"/>
		
			<rect x="1374.276" y="346.583" fill="none" stroke="#000000" stroke-width="3" stroke-miterlimit="10" width="53.36" height="11.434"/>
	</g>
	<g>
		<g>
			<path fill="none" stroke="#000000" stroke-width="3" stroke-linecap="round" stroke-miterlimit="10" d="M211.871,457.877
				c0,3.279-2.658,5.938-5.939,5.938c-3.279,0-5.937-2.658-5.937-5.938"/>
			<path fill="none" stroke="#000000" stroke-width="3" stroke-linecap="round" stroke-miterlimit="10" d="M220.936,457.871
				c0,8.285-6.717,15.004-15.004,15.004c-8.285,0-15.001-6.719-15.001-15.004"/>
		</g>
		<g>
			<g>
				<polygon fill="none" stroke="#000000" stroke-width="3" stroke-miterlimit="10" points="270.237,465.373 243.397,465.373 
					243.397,369.134 256.509,369.134 270.237,369.134 				"/>
			</g>
			<g>
				<polygon fill="none" stroke="#000000" stroke-width="3" stroke-miterlimit="10" points="296.757,465.373 269.917,465.373 
					269.917,369.134 283.028,369.134 296.757,369.134 				"/>
			</g>
		</g>
		<g>
			<g>
				<polygon fill="none" stroke="#000000" stroke-width="3" stroke-miterlimit="10" points="439.606,465.373 412.767,465.373 
					412.767,369.134 425.878,369.134 439.606,369.134 				"/>
			</g>
			<g>
				<polygon fill="none" stroke="#000000" stroke-width="3" stroke-miterlimit="10" points="466.126,465.373 439.286,465.373 
					439.286,369.134 452.397,369.134 466.126,369.134 				"/>
			</g>
		</g>
		<g>
			<path fill="none" stroke="#000000" stroke-width="3" stroke-linecap="round" stroke-miterlimit="10" d="M563.304,457.877
				c0,3.279,2.658,5.938,5.939,5.938c3.279,0,5.938-2.658,5.938-5.938"/>
			<path fill="none" stroke="#000000" stroke-width="3" stroke-linecap="round" stroke-miterlimit="10" d="M554.239,457.871
				c0,8.285,6.717,15.004,15.004,15.004c8.285,0,15.002-6.719,15.002-15.004"/>
		</g>
		<polyline fill="none" stroke="#000000" stroke-width="3" stroke-miterlimit="10" points="147.743,336 133.539,417.254 
			92.7,417.254 		"/>
		<g>
			<polygon fill="none" stroke="#000000" stroke-width="3" stroke-miterlimit="10" points="181.002,448.594 154.163,448.594 
				154.163,369.134 167.274,369.134 181.002,369.134 			"/>
		</g>
		<path fill="none" stroke="#000000" stroke-width="3" stroke-miterlimit="10" d="M186.225,448.594h-50.682l-9.292,16.779H99.063
			h24.801H92.7V457v-48.137l23.008-66.646c1.878-3.64,4.785-6.217,8.219-6.217h14.79h41.292h12.433h188.147h202.146
			c3.434,0,6.217,2.783,6.217,6.217v106.377h-39.871l-9.292,16.779H380.588H235.389l-9.293-16.779H186.225"/>
		<g>
			<path fill="none" stroke="#000000" stroke-width="3" stroke-linecap="round" stroke-miterlimit="10" d="M149.705,457.877
				c0,3.279,2.658,5.938,5.939,5.938c3.279,0,5.938-2.658,5.938-5.938"/>
			<path fill="none" stroke="#000000" stroke-width="3" stroke-linecap="round" stroke-miterlimit="10" d="M140.64,457.871
				c0,8.285,6.717,15.004,15.004,15.004c8.285,0,15.002-6.719,15.002-15.004"/>
		</g>
		
			<rect x="189.784" y="369.134" fill="none" stroke="#000000" stroke-width="3" stroke-miterlimit="10" width="44.833" height="48.12"/>
		
			<rect x="305.538" y="369.134" fill="none" stroke="#000000" stroke-width="3" stroke-miterlimit="10" width="44.833" height="48.12"/>
		
			<rect x="243.397" y="346.583" fill="none" stroke="#000000" stroke-width="3" stroke-miterlimit="10" width="53.359" height="11.434"/>
		
			<rect x="412.607" y="346.583" fill="none" stroke="#000000" stroke-width="3" stroke-miterlimit="10" width="53.36" height="11.434"/>
		
			<rect x="359.152" y="369.134" fill="none" stroke="#000000" stroke-width="3" stroke-miterlimit="10" width="44.833" height="48.12"/>
		
			<rect x="474.907" y="369.134" fill="none" stroke="#000000" stroke-width="3" stroke-miterlimit="10" width="44.833" height="48.12"/>
		
			<rect x="528.521" y="369.134" fill="none" stroke="#000000" stroke-width="3" stroke-miterlimit="10" width="44.833" height="48.12"/>
		<path fill="none" stroke="#000000" stroke-width="3" stroke-miterlimit="10" d="M92.7,429h6.709c2.624,0,4.75,2.127,4.75,4.75l0,0
			c0,2.623-2.126,4.75-4.75,4.75H92.7"/>
		<line fill="none" stroke="#000000" stroke-width="3" stroke-miterlimit="10" x1="114.229" y1="345" x2="145.908" y2="345"/>
	</g>
</g>
</svg>
