<?xml version="1.0" encoding="utf-8"?>
<!-- Generator: Adobe Illustrator 15.0.2, SVG Export Plug-In . SVG Version: 6.00 Build 0)  -->
<!DOCTYPE svg PUBLIC "-//W3C//DTD SVG 1.1//EN" "http://www.w3.org/Graphics/SVG/1.1/DTD/svg11.dtd">
<svg version="1.1" id="Lager_1" xmlns="http://www.w3.org/2000/svg" xmlns:xlink="http://www.w3.org/1999/xlink" x="0px" y="0px"
	 width="37.135px" height="47.096px" viewBox="0 0 37.135 47.096" enable-background="new 0 0 37.135 47.096" xml:space="preserve">
<g>
	<path fill="#FFFFFF" d="M36.747,45.186l-4.724-3.957c2.188-1.162,3.677-3.401,3.677-5.969V9.827c0-3.757-3.187-6.814-7.104-6.814
		h-0.973C27.339,1.309,25.874,0,24.087,0c-1.778,0-3.252,1.309-3.531,3.013h-3.975C16.295,1.309,14.83,0,13.043,0
		C11.265,0,9.79,1.309,9.511,3.013H8.526c-3.916,0-7.102,3.058-7.102,6.814V35.26c0,2.568,1.488,4.807,3.678,5.971l-4.716,3.955
		c-0.457,0.383-0.517,1.064-0.134,1.522c0.215,0.256,0.521,0.388,0.834,0.388c0.245,0,0.491-0.086,0.693-0.255l5.768-4.838
		c0.323,0.045,0.652,0.065,0.983,0.065h20.071c0.336,0,0.659-0.021,0.981-0.065l5.777,4.838c0.203,0.173,0.447,0.255,0.699,0.255
		c0.309,0,0.611-0.134,0.829-0.388C37.266,46.25,37.202,45.568,36.747,45.186z M24.085,2.162c0.789,0,1.428,0.641,1.428,1.43
		c0,0.787-0.641,1.427-1.428,1.427s-1.428-0.641-1.428-1.427C22.657,2.804,23.3,2.162,24.085,2.162z M13.045,2.162
		c0.788,0,1.428,0.641,1.428,1.43c0,0.787-0.641,1.427-1.428,1.427c-0.787,0-1.43-0.641-1.43-1.427
		C11.617,2.804,12.262,2.162,13.045,2.162z M8.529,39.914c-2.727,0-4.939-2.088-4.939-4.654V9.827c0-2.565,2.216-4.652,4.939-4.652
		h1.311c0.588,1.185,1.798,2.007,3.207,2.007c1.408,0,2.618-0.822,3.206-2.007h4.627c0.589,1.185,1.798,2.007,3.205,2.007
		c1.408,0,2.619-0.822,3.207-2.007h1.307c2.727,0,4.939,2.087,4.939,4.652V35.26c0,2.566-2.217,4.654-4.939,4.654H8.529z"/>
	<path fill="#FFFFFF" d="M8.526,26.174h20.069c1.702,0,3.087-1.312,3.087-2.923v-7.282c0-1.611-1.385-2.921-3.087-2.921h-1.915
		v-1.931c0-1.146-0.938-2.084-2.096-2.084H12.542c-1.149,0-2.086,0.936-2.086,2.084v1.931h-1.93c-1.703,0-3.088,1.31-3.088,2.921
		v7.282C5.437,24.861,6.824,26.174,8.526,26.174z M12.623,11.195l11.895-0.078v1.931H12.623V11.195z M7.599,15.969
		c0-0.41,0.429-0.758,0.926-0.758h4.016h12.042h4.011c0.502,0,0.926,0.348,0.926,0.758v7.282c0,0.412-0.429,0.761-0.926,0.761H8.524
		c-0.502,0-0.926-0.349-0.926-0.761V15.969L7.599,15.969z"/>
	<path fill="#FFFFFF" d="M9.533,28.874c-2.256,0-4.093,1.835-4.093,4.093c0,2.256,1.837,4.094,4.093,4.094
		c2.256,0,4.093-1.838,4.093-4.094C13.625,30.709,11.789,28.874,9.533,28.874z M9.533,34.896c-1.059,0-1.93-0.865-1.93-1.931
		s0.873-1.931,1.93-1.931c1.064,0,1.93,0.865,1.93,1.931S10.597,34.896,9.533,34.896z"/>
	<path fill="#FFFFFF" d="M27.599,28.874c-2.256,0-4.092,1.835-4.092,4.093c0,2.256,1.836,4.094,4.092,4.094
		c2.257,0,4.093-1.838,4.093-4.094C31.691,30.709,29.854,28.874,27.599,28.874z M27.599,34.896c-1.059,0-1.93-0.865-1.93-1.931
		s0.873-1.931,1.93-1.931c1.064,0,1.93,0.865,1.93,1.931S28.663,34.896,27.599,34.896z"/>
</g>
</svg>
