<?xml version="1.0" encoding="utf-8"?>
<!-- Generator: Adobe Illustrator 15.0.2, SVG Export Plug-In . SVG Version: 6.00 Build 0)  -->
<!DOCTYPE svg PUBLIC "-//W3C//DTD SVG 1.1//EN" "http://www.w3.org/Graphics/SVG/1.1/DTD/svg11.dtd">
<svg version="1.1" id="Lager_1" xmlns="http://www.w3.org/2000/svg" xmlns:xlink="http://www.w3.org/1999/xlink" x="0px" y="0px"
	 width="47.192px" height="48.5px" viewBox="0 0 47.192 48.5" enable-background="new 0 0 47.192 48.5" xml:space="preserve">
<g>
	<path fill="#FFFFFF" d="M13.076,25.838h21.04c1.801,0,3.264-1.464,3.264-3.265v-5.979c0-1.8-1.463-3.265-3.264-3.265h-3v-1.71
		c0-1.167-0.949-2.117-2.117-2.117H18.194c-1.168,0-2.118,0.95-2.118,2.117v1.71h-3c-1.8,0-3.265,1.465-3.265,3.265v5.979
		C9.81,24.374,11.275,25.838,13.076,25.838z M18.076,11.617c0-0.064,0.053-0.117,0.118-0.117h10.804
		c0.064,0,0.117,0.053,0.117,0.117v1.71h-11.04V11.617z M11.987,16.593c0-0.6,0.488-1.088,1.088-1.088h21.041
		c0.6,0,1.088,0.488,1.088,1.088v5.979c0,0.6-0.488,1.088-1.088,1.088H13.075c-0.6,0-1.088-0.488-1.088-1.088V16.593z"/>
	<path fill="#FFFFFF" d="M14.323,28.454c-2.162,0-3.92,1.759-3.92,3.921s1.759,3.921,3.92,3.921c2.161,0,3.92-1.759,3.92-3.921
		S16.484,28.454,14.323,28.454z M14.323,34.204c-1.009,0-1.83-0.82-1.83-1.829s0.821-1.829,1.83-1.829c1.009,0,1.83,0.82,1.83,1.829
		C16.153,33.385,15.331,34.204,14.323,34.204z"/>
	<path fill="#FFFFFF" d="M32.87,28.454c-2.162,0-3.922,1.759-3.922,3.921s1.76,3.921,3.922,3.921s3.92-1.759,3.92-3.921
		S35.032,28.454,32.87,28.454z M32.87,34.204c-1.01,0-1.83-0.82-1.83-1.829s0.82-1.829,1.83-1.829c1.008,0,1.828,0.82,1.828,1.829
		C34.698,33.385,33.877,34.204,32.87,34.204z"/>
	<path fill="#FFFFFF" d="M46.842,46.74l-7.062-6.043c1.407-0.247,2.482-1.471,2.482-2.947V6.416c0-1.654-1.346-3-3-3h-6.266
		C32.825,1.507,31.234,0,29.282,0c-2.045,0-3.707,1.646-3.744,3.683V3.416h-3.911C21.454,1.507,19.864,0,17.911,0
		s-3.544,1.507-3.716,3.416H7.928c-1.654,0-3,1.346-3,3V37.75c0,1.479,1.076,2.701,2.483,2.947L0.35,46.74
		c-0.42,0.359-0.469,0.99-0.11,1.41C0.437,48.381,0.718,48.5,1,48.5c0.23,0,0.461-0.079,0.649-0.24l8.692-7.438
		c0.024-0.021,0.035-0.051,0.057-0.072h26.394c0.021,0.021,0.033,0.053,0.058,0.072l8.692,7.438c0.188,0.161,0.42,0.24,0.649,0.24
		c0.281,0,0.562-0.119,0.761-0.35C47.311,47.73,47.261,47.1,46.842,46.74z M29.282,2c0.965,0,1.75,0.785,1.75,1.75
		s-0.785,1.75-1.75,1.75c-0.966,0-1.75-0.785-1.75-1.75S28.316,2,29.282,2z M17.911,2c0.965,0,1.75,0.785,1.75,1.75
		s-0.786,1.75-1.75,1.75s-1.75-0.785-1.75-1.75S16.946,2,17.911,2z M6.928,37.75V6.416c0-0.551,0.449-1,1-1h6.641
		c0.615,1.23,1.875,2.084,3.342,2.084s2.726-0.854,3.342-2.084l5.035-0.041l-0.75-1.558C25.575,5.854,27.237,7.5,29.282,7.5
		c1.465,0,2.726-0.854,3.342-2.084h6.64c0.552,0,1,0.449,1,1V37.75c0,0.553-0.448,1-1,1H7.928C7.377,38.75,6.928,38.303,6.928,37.75
		z"/>
</g>
</svg>
