<?xml version="1.0" encoding="utf-8"?>
<!-- Generator: Adobe Illustrator 15.0.2, SVG Export Plug-In . SVG Version: 6.00 Build 0)  -->
<!DOCTYPE svg PUBLIC "-//W3C//DTD SVG 1.1//EN" "http://www.w3.org/Graphics/SVG/1.1/DTD/svg11.dtd">
<svg version="1.1" id="Lager_1" xmlns="http://www.w3.org/2000/svg" xmlns:xlink="http://www.w3.org/1999/xlink" x="0px" y="0px"
	 width="52.833px" height="48px" viewBox="0 0 52.833 48" enable-background="new 0 0 52.833 48" xml:space="preserve">
<path fill="#FFFFFF" d="M38.104,2.279c6.986,0,12.665,5.692,12.665,12.721c0,3.611-1.502,6.863-3.899,9.179L26.416,44.826
	L5.605,23.807C3.427,21.519,2.077,18.418,2.077,15c0-7.029,5.664-12.721,12.666-12.721c5.264,0,9.771,3.225,11.687,7.829
	C28.319,5.518,32.838,2.279,38.104,2.279 M38.104,0.156c-4.658,0-8.932,2.177-11.688,5.761c-2.756-3.583-7.029-5.761-11.688-5.761
	C6.583,0.156-0.046,6.813-0.046,15c0,3.846,1.461,7.498,4.121,10.281l20.839,21.047l1.502,1.516l1.502-1.516l20.438-20.646
	c2.896-2.798,4.521-6.602,4.521-10.682C52.877,6.813,46.249,0.156,38.104,0.156L38.104,0.156z"/>
</svg>
